<svg xmlns="http://www.w3.org/2000/svg" xmlns:xlink="http://www.w3.org/1999/xlink" width="294" height="222"><defs><path d="M274 142.603c0 7.946-1.697 14.996-5.093 21.15s-8.014 11.17-13.858 15.045-12.486 6.562-19.93 8.06V198a4 4 0 0 1-4 4h-20.4a4 4 0 0 1-4-4v-11.63c-8.88-1.954-15.387-4.375-24.24-9.867-4.964-3.08-9.876-7.05-14.735-11.906a4 4 0 0 1-.034-5.623l16.19-16.582a4 4 0 0 1 5.847.132c5.515 6.182 10.128 10.263 13.837 12.243 6.485 3.46 11.948 5.13 18.803 5.13 6.007 0 10.658-1.35 13.956-4.054s4.946-6.43 4.946-11.186c0-3.647-1.1-6.757-3.33-9.33s-5.044-4.738-8.47-6.497-8.34-3.908-14.74-6.448l-3.036-1.172c-7.9-3.126-14.608-6.35-20.125-9.67s-10.218-7.832-14.102-13.53-5.827-12.78-5.827-21.248c0-7.23 1.518-13.677 4.554-19.343A39.68 39.68 0 0 1 188.7 43.397c5.288-3.68 11.295-6.3 18.02-7.864V24a4 4 0 0 1 4-4h20.4a4 4 0 0 1 4 4v11.826c9.048 1.982 19.274 7.798 30.678 17.446a4 4 0 0 1 .221 5.906l-14.6 14.356a4 4 0 0 1-5.522.083c-8.92-8.26-17.475-12.39-25.662-12.39-4.505 0-8.226 1.14-11.164 3.42s-4.407 5.34-4.407 9.183c0 3.19 1.045 5.927 3.134 8.206s4.684 4.217 7.786 5.813 7.492 3.566 13.172 5.9c.783.26 1.96.716 3.526 1.368 8.292 3.387 15.343 6.887 21.154 10.502s10.69 8.467 14.64 14.556S274 133.746 274 142.603z" id="A"/><filter x="-25.2%" y="-10.4%" width="151.8%" height="131.9%" id="B"><feOffset dy="10" in="SourceAlpha"/><feGaussianBlur stdDeviation="8"/><feColorMatrix values="0 0 0 0 0.317647059 0 0 0 0 0.368627451 0 0 0 0 1 0 0 0 0.2 0"/></filter></defs><g fill-rule="evenodd"><use fill="#000" filter="url(#B)" xlink:href="#A"/><use fill="#fff" xlink:href="#A"/></g></svg>