<svg xmlns="http://www.w3.org/2000/svg" viewBox="0 0 135 40" fill="#fff"><path d="M27.85 20.16a7 7 0 0 0 4.29 6.48 15.71 15.71 0 0 1-2.23 4.56c-1.3 2-2.7 3.9-4.88 3.93s-2.83-1.25-5.27-1.25-3.22 1.22-5.26 1.3-3.67-2.1-5-4.06c-2.72-4-4.84-11.23-2-16.17a7.82 7.82 0 0 1 6.58-4c2.08 0 4 1.4 5.3 1.4s3.65-1.74 6.1-1.48a7.45 7.45 0 0 1 5.87 3.18 7.28 7.28 0 0 0-3.51 6.1zm-4-11.92a6 6 0 0 1-4.75 2.26 6.8 6.8 0 0 1 1.68-4.95 7.24 7.24 0 0 1 4.7-2.45 7.15 7.15 0 0 1-1.64 5.14zm31.9 23.32L54.52 28H49.4l-1.23 3.56H46l4.85-13.18h2.25L58 31.56zm-3.82-11l-2 5.8H54l-2-5.8zM64.3 21.8c2.48 0 4.12 1.92 4.12 5s-1.63 5-4.1 5a3.36 3.36 0 0 1-3.08-1.8v4.76h-2V22h2v1.66a3.38 3.38 0 0 1 3.05-1.86zm-.53 8.26c1.6 0 2.58-1.28 2.58-3.3s-1-3.3-2.58-3.3-2.57 1.32-2.57 3.3 1.02 3.3 2.57 3.3zm11.3-8.26c2.5 0 4.13 1.92 4.13 5s-1.63 5-4.1 5A3.34 3.34 0 0 1 72 30v4.76h-2V22h1.94v1.66a3.39 3.39 0 0 1 3.13-1.86zm-.53 8.26c1.6 0 2.6-1.28 2.6-3.3s-1-3.3-2.6-3.3S72 24.78 72 26.76s1 3.3 2.54 3.3zm9.7-2.17h2.06c.15 1.3 1.44 2.17 3.2 2.17s2.92-.86 2.92-2c0-1-.74-1.64-2.48-2.06l-1.74-.4c-2.47-.6-3.6-1.76-3.6-3.6 0-2.28 2-3.84 4.88-3.84s4.8 1.56 4.85 3.84h-2c-.12-1.32-1.22-2.1-2.84-2.1s-2.73.8-2.73 2c0 .93.7 1.48 2.44 1.9l1.48.36c2.75.64 3.9 1.72 3.9 3.65 0 2.47-2 4-5.2 4-3-.02-5.02-1.52-5.15-3.9zm12.53-8.2h2V22h1.86v1.56H98.8v5.3c0 .83.37 1.2 1.2 1.2a4.13 4.13 0 0 0 .66-.05v1.57a6 6 0 0 1-1.12.09c-2 0-2.75-.74-2.75-2.6V23.5h-1.43V22h1.43zm9.73 12.07c-2.8 0-4.64-1.9-4.64-5s1.85-5 4.64-5 4.65 1.9 4.65 5-1.84 5-4.65 5zm0-1.63c1.6 0 2.6-1.22 2.6-3.36s-1-3.35-2.6-3.35-2.6 1.22-2.6 3.35 1.02 3.36 2.6 3.36zm6.2 1.44V22h1.9v1.64h.05A2.35 2.35 0 0 1 117 21.8a3.58 3.58 0 0 1 .69.07v1.84a2.81 2.81 0 0 0-.91-.11 2 2 0 0 0-2.09 2.21v5.75zm10.35-8.2a2.49 2.49 0 0 0-2.49 2.5h4.9a2.37 2.37 0 0 0-2.4-2.5zm2.4 5.37h1.9c-.28 1.75-2 3-4.22 3-2.87 0-4.6-1.9-4.6-4.95s1.77-5 4.53-5 4.4 1.88 4.4 4.8v.67h-6.9v.12a2.54 2.54 0 0 0 2.63 2.78 2.22 2.22 0 0 0 2.26-1.42zM47.67 5.25h2.73c2.3 0 3.67 1.42 3.67 3.86S52.7 13 50.4 13h-2.73zm1.2 1V12h1.42c1.64 0 2.55-1 2.55-2.84s-.9-2.83-2.55-2.83zm8.6 6.82a2.63 2.63 0 0 1-2.68-2.94 2.69 2.69 0 1 1 5.36 0 2.62 2.62 0 0 1-2.68 2.98zm0-1c.92 0 1.5-.72 1.5-2s-.6-2-1.5-2-1.5.72-1.5 2 .6 2.08 1.5 2.08zm11-4.8L66.93 13h-1.2l-1.2-4.23-1.2 4.23h-1.2l-1.55-5.65h1.16l1 4.45L64 7.35h1.12l1.18 4.45 1-4.45zm.68 5.73V7.35h1.1v.94a1.82 1.82 0 0 1 1.77-1 1.87 1.87 0 0 1 2 2.09V13h-1.17V9.57c0-.85-.4-1.32-1.2-1.32a1.32 1.32 0 0 0-1.35 1.46V13zm6 0V5.25h1.16V13zm4.76.1a2.62 2.62 0 0 1-2.68-2.94 2.69 2.69 0 1 1 5.36 0 2.63 2.63 0 0 1-2.66 2.94zm0-1c.9 0 1.5-.72 1.5-2s-.6-2-1.5-2-1.5.72-1.5 2 .58 2.04 1.52 2.04zm5.53 0a1.36 1.36 0 0 0 1.45-1.3v-.44l-1.4.08c-.7.05-1.1.36-1.1.84s.43.9 1.05.9zm-.32.92a1.71 1.71 0 0 1-1.88-1.71c0-1 .76-1.6 2.1-1.67l1.55-.1V9.2c0-.63-.43-1-1.14-1a1.08 1.08 0 0 0-1.17.8h-1.1c.07-1 .94-1.77 2.34-1.77s2.24.72 2.24 1.86V13H87v-.93a2 2 0 0 1-1.85 1.03zm6.15 0c-1.43 0-2.38-1.14-2.38-2.93s1-2.9 2.36-2.9a1.94 1.94 0 0 1 1.78 1v-3h1.16V13H93.1v-1a2 2 0 0 1-1.82 1.1zm.3-4.86c-.92 0-1.5.75-1.5 1.93s.57 1.94 1.5 1.94 1.5-.75 1.5-1.94-.58-1.86-1.47-1.86zm8.45 4.87a2.62 2.62 0 0 1-2.68-2.94 2.69 2.69 0 1 1 5.36 0 2.62 2.62 0 0 1-2.66 3.01zm0-1c.9 0 1.5-.72 1.5-2s-.6-2-1.5-2-1.5.72-1.5 2 .6 2.1 1.52 2.1zm3.56.85V7.35h1.1v.94a2 2 0 0 1 3.74 1.05V13h-1.17V9.57c0-.85-.4-1.32-1.2-1.32a1.32 1.32 0 0 0-1.34 1.46V13zm8.5-7h1.17v1.46h1.07v.92h-1.07v3.1c0 .5.2.7.7.7h.38v.9a2.7 2.7 0 0 1-.65.06c-1.14 0-1.6-.44-1.6-1.53V8.27h-.82v-.92h.82zm3.22 7V5.25h1.15v3a1.85 1.85 0 0 1 1.79-1 1.91 1.91 0 0 1 2 2.11V13h-1.17V9.58a1.16 1.16 0 0 0-1.24-1.33 1.34 1.34 0 0 0-1.38 1.48V13zm8.4-4.82a1.46 1.46 0 0 0-1.44 1.47h2.82a1.38 1.38 0 0 0-1.36-1.36zm1.38 3.16h1.1a2.29 2.29 0 0 1-2.44 1.77 2.59 2.59 0 0 1-2.66-2.91c0-1.77 1-2.95 2.62-2.95a2.51 2.51 0 0 1 2.54 2.82v.4h-4v.07a1.48 1.48 0 0 0 1.52 1.64 1.3 1.3 0 0 0 1.34-.72z"/></svg>