<svg xmlns="http://www.w3.org/2000/svg" viewBox="0 0 135 40" fill="#fff"><path d="M7.04 4.542l17.218 9.783-3.836 4.04zm25.033 15.763l-6.332 3.577-4.216-4.375 4.2-4.303 6.34 3.655c.84.484.84.962 0 1.447zM3.776 4.26a1.619 1.619 0 0 1 .147-.75l15.4 15.993-15.4 15.992a1.619 1.619 0 0 1-.147-.75zM24.26 24.683L7.03 34.54l13.393-13.9zm100.286 10.55h-1.766l2.12-4.657-3.755-8.655h1.86l2.714 6.637h.037l2.64-6.637h1.86zM116.6 21.92a3.746 3.746 0 0 1 4.048 3.913v5.517h-1.634v-1.267h-.074a3.422 3.422 0 0 1-2.99 1.565 3.12 3.12 0 0 1-3.398-3.056c0-2.068 1.857-3.187 3.993-3.187a5.214 5.214 0 0 1 2.47.559v-.26a2.408 2.408 0 0 0-4.55-.895l-1.56-.67a3.758 3.758 0 0 1 3.695-2.218zm-.37 8.163a2.837 2.837 0 0 0 2.786-2.665 3.572 3.572 0 0 0-2.172-.596c-1.8 0-2.507.97-2.507 1.808 0 .97 1.003 1.454 1.894 1.454zm-6.207-11.747h1.518v13.312h-1.518zm-5.635 0a3.963 3.963 0 1 1 0 7.92h-2.794v5.392h-1.7V18.336zm.037 6.284a2.324 2.324 0 1 0 0-4.648h-2.83v4.648zm-16.42 2.495L92 25.453a1.742 1.742 0 0 0-1.668-.949 2.459 2.459 0 0 0-2.349 2.611zm2.502 4.6a4.389 4.389 0 0 1-4.46-4.476 4.262 4.262 0 0 1 4.239-4.476 4.174 4.174 0 0 1 3.847 2.848l.204.5-6 2.475a2.286 2.286 0 0 0 2.179 1.357 2.569 2.569 0 0 0 2.213-1.238l1.532 1.017a4.475 4.475 0 0 1-3.745 1.983zm-7.388-.27V18.3h1.975v13.156zm-5.635 4.3A4.283 4.283 0 0 1 73.5 33.1l1.72-.712a2.486 2.486 0 0 0 2.264 1.593c1.48 0 2.4-.916 2.4-2.628v-.644h-.068a3.07 3.07 0 0 1-2.366 1.017 4.479 4.479 0 0 1 0-8.952 3.12 3.12 0 0 1 2.366 1h.068v-.73h1.873v8.036c0 3.307-1.957 4.663-4.273 4.663zm.136-5.78a2.505 2.505 0 0 0 2.4-2.696 2.526 2.526 0 0 0-2.4-2.73 2.721 2.721 0 0 0 0 5.425zm-9.806 1.763a4.476 4.476 0 1 1 4.511-4.476 4.431 4.431 0 0 1-4.511 4.476zm0-1.763a2.719 2.719 0 1 0-2.537-2.713 2.594 2.594 0 0 0 2.537 2.713zm-9.84 1.763a4.476 4.476 0 1 1 4.511-4.476 4.432 4.432 0 0 1-4.511 4.476zm0-1.763a2.719 2.719 0 1 0-2.537-2.713 2.594 2.594 0 0 0 2.537 2.713zm-11.724 1.76a6.952 6.952 0 1 1 0-13.902 6.664 6.664 0 0 1 4.784 1.916l-1.345 1.34a4.873 4.873 0 0 0-3.439-1.356 5.052 5.052 0 0 0 0 10.104 4.68 4.68 0 0 0 3.524-1.39 3.953 3.953 0 0 0 1.038-2.39H46.25v-1.9h6.418a6.169 6.169 0 0 1 .102 1.186 6.259 6.259 0 0 1-1.652 4.442 6.395 6.395 0 0 1-4.869 1.95zm-2.503-20.904a1.984 1.984 0 0 1-.253.266 1.839 1.839 0 0 1-.417.272 2.938 2.938 0 0 1-.613.212 3.628 3.628 0 0 1-.84.086 2.568 2.568 0 0 1-.994-.188 2.155 2.155 0 0 1-.777-.544 2.491 2.491 0 0 1-.504-.876 3.623 3.623 0 0 1-.18-1.188v-.384a3.995 3.995 0 0 1 .162-1.186 2.489 2.489 0 0 1 .466-.882 1.98 1.98 0 0 1 .743-.548 2.508 2.508 0 0 1 .996-.188 2.759 2.759 0 0 1 .917.138 1.883 1.883 0 0 1 .66.386 1.8 1.8 0 0 1 .423.59 2.608 2.608 0 0 1 .206.75h-.98a1.72 1.72 0 0 0-.119-.42.992.992 0 0 0-.583-.552 1.426 1.426 0 0 0-.504-.08 1.329 1.329 0 0 0-.611.132 1.142 1.142 0 0 0-.431.386 1.837 1.837 0 0 0-.257.624 3.775 3.775 0 0 0-.085.842v.392a3.186 3.186 0 0 0 .103.85 1.821 1.821 0 0 0 .294.622 1.273 1.273 0 0 0 .467.384 1.42 1.42 0 0 0 .623.132 2.459 2.459 0 0 0 .441-.034 1.582 1.582 0 0 0 .31-.086.916.916 0 0 0 .207-.114 1.027 1.027 0 0 0 .133-.118v-1.14h-1.186V8.6h2.182zM48.2 8.978h-2.364v1.792H48.6v.808h-3.764V5.754h3.736v.816h-2.736v1.608H48.2zm5.373-2.408h-1.795v5.008h-.992V6.57h-1.78v-.816h4.566zm3.827 5.008h-.996V5.754h.996zm5.388-5.008h-1.795v5.008H60V6.57h-1.78v-.816h4.566zm7.365 2.248a3.823 3.823 0 0 1-.172 1.19 2.602 2.602 0 0 1-.484.892 2.104 2.104 0 0 1-.751.562 2.501 2.501 0 0 1-1.941 0 2.16 2.16 0 0 1-.757-.562 2.597 2.597 0 0 1-.494-.892 3.741 3.741 0 0 1-.176-1.19v-.296a3.76 3.76 0 0 1 .176-1.192 2.654 2.654 0 0 1 .49-.896 2.111 2.111 0 0 1 .753-.564 2.506 2.506 0 0 1 1.943 0 2.107 2.107 0 0 1 .755.564 2.603 2.603 0 0 1 .486.896 3.842 3.842 0 0 1 .172 1.192zm-1-.304a3.596 3.596 0 0 0-.093-.862 1.851 1.851 0 0 0-.271-.626 1.178 1.178 0 0 0-.437-.382 1.29 1.29 0 0 0-.587-.13 1.26 1.26 0 0 0-.577.13 1.199 1.199 0 0 0-.437.382 1.881 1.881 0 0 0-.277.626 3.452 3.452 0 0 0-.097.862v.304a3.477 3.477 0 0 0 .097.864 1.878 1.878 0 0 0 .279.63 1.204 1.204 0 0 0 .441.384 1.272 1.272 0 0 0 .579.13 1.172 1.172 0 0 0 1.022-.512 2.605 2.605 0 0 0 .358-1.496zm6.563 3.064h-1L72.16 7.446v4.132h-1V5.754h1l2.574 4.148V5.754h.992z"/></svg>