<svg xmlns="http://www.w3.org/2000/svg" xmlns:xlink="http://www.w3.org/1999/xlink" width="124" height="124"><defs><linearGradient x1="100%" y1="0%" x2="0%" y2="100%" id="A"><stop stop-color="#fff" offset="0%"/><stop stop-color="#e2dbd3" offset="100%"/></linearGradient><rect id="B" width="99.902" height="99.902" rx="24"/><filter x="-21.0%" y="-15.0%" width="142.0%" height="142.0%" id="C"><feOffset dy="6" in="SourceAlpha"/><feGaussianBlur stdDeviation="6"/><feColorMatrix values="0 0 0 0 0 0 0 0 0 0 0 0 0 0 0 0 0 0 0.15 0"/></filter><linearGradient x1="100%" y1="0%" x2="0%" y2="100%" id="D"><stop stop-color="#fcc642" offset="0%"/><stop stop-color="#f7941f" offset="100%"/></linearGradient><circle id="E" cx="42.927" cy="42.927" r="42.927"/><filter x="-2.3%" y="-2.3%" width="104.7%" height="104.7%" id="F"><feGaussianBlur stdDeviation="2" in="SourceAlpha"/><feOffset/><feComposite in2="SourceAlpha" operator="arithmetic" k2="-1" k3="1"/><feColorMatrix values="0 0 0 0 0.653306159 0 0 0 0 0.371978148 0 0 0 0 0 0 0 0 0.25 0"/></filter><radialGradient cx="82.6476246%" cy="12.6611373%" fx="82.6476246%" fy="12.6611373%" r="99.900788%" id="G"><stop stop-color="#fff" stop-opacity=".15" offset="0%"/><stop stop-color="#fff" stop-opacity="0" offset="100%"/></radialGradient><linearGradient x1="93.233165%" y1="13.3948856%" x2="7.59313283%" y2="100%" id="H"><stop stop-color="#fff" offset="0%"/><stop stop-color="#e2dbd3" offset="100%"/></linearGradient><path d="M48.2 19.635l-.437 3.816h3.388l.437-3.816h2.964l-.437 3.816h2.836c10.054 0 10.054 22.17-1.69 22.17h-3.678l-.418 3.66H48.2l.418-3.66h-3.39l-.417 3.66H41.85l.418-3.66h-5.77l-2.51 16.364h-8.154l5.567-28.97h7.245l-.833 6.335h15.41c4.367 0 5.107-9.812 1.064-9.812h-32.34l3.887-6.087H44.8l.437-3.816H48.2z" id="I"/><filter x="-24.8%" y="-17.7%" width="149.6%" height="149.6%" id="J"><feOffset dy="3" in="SourceAlpha"/><feGaussianBlur stdDeviation="3"/><feColorMatrix values="0 0 0 0 0.653306159 0 0 0 0 0.371978148 0 0 0 0 0 0 0 0 0.25 0"/></filter></defs><g transform="translate(12 6)" fill="none" fill-rule="evenodd"><use fill="#000" filter="url(#C)" xlink:href="#B"/><use fill="url(#A)" xlink:href="#B"/><g transform="translate(7.024 7.024)"><use fill="url(#D)" xlink:href="#E"/><use fill="#000" filter="url(#F)" xlink:href="#E"/><circle fill="url(#G)" cx="42.927" cy="42.927" r="42.927"/><use fill="#000" filter="url(#J)" xlink:href="#I"/><use fill="url(#H)" xlink:href="#I"/></g></g></svg>