<svg xmlns="http://www.w3.org/2000/svg" xmlns:xlink="http://www.w3.org/1999/xlink" width="124" height="124"><defs><radialGradient cx="30.6297406%" cy="24.8388054%" fx="30.6297406%" fy="24.8388054%" r="86.9598475%" id="A"><stop stop-color="#ffed72" offset="0%"/><stop stop-color="#fbdd11" offset="100%"/></radialGradient><rect id="H" width="99.902" height="99.902" rx="24"/><filter x="-21.0%" y="-15.0%" width="142.0%" height="142.0%" id="C"><feOffset dy="6" in="SourceAlpha"/><feGaussianBlur stdDeviation="6"/><feColorMatrix values="0 0 0 0 0 0 0 0 0 0 0 0 0 0 0 0 0 0 0.15 0"/></filter><radialGradient cx="13.2545856%" cy="13.3394017%" fx="13.2545856%" fy="13.3394017%" r="77.3006755%" id="D"><stop stop-color="#fff" stop-opacity=".15" offset="0%"/><stop stop-color="#fff" stop-opacity="0" offset="100%"/></radialGradient><path d="M37.938 27.515C21.317 29.608 13.663 14.97 15.02 13.543c.896-.943 2.3-1 3.498-1.032 5.557-.15 13.423 6.34 15.018 6.307 3.1-.063 7.738-4.975 10.784-9.024C45.595 8.1 53.56 5.55 52.676 10c-2.863 14.432-12.62 17.25-14.738 17.517zM14.807.204C31.427-1.888 39.08 12.75 37.723 14.177c-.896.943-2.29 1-3.497 1.032-5.557.15-13.423-6.34-15.018-6.307-3.1.063-7.738 4.975-10.784 9.024C7.15 19.62-.815 22.17.068 17.722 2.932 3.29 12.69.47 14.807.204z" id="E"/><filter x="-19.9%" y="-27.1%" width="139.8%" height="175.8%" id="F"><feOffset dy="3" in="SourceAlpha"/><feGaussianBlur stdDeviation="3"/><feColorMatrix values="0 0 0 0 0 0 0 0 0 0 0 0 0 0 0 0 0 0 0.4 0"/></filter></defs><g transform="translate(12 6)" fill="none" fill-rule="evenodd"><mask id="G" fill="#fff"><use xlink:href="#H"/></mask><use fill="#000" filter="url(#C)" xlink:href="#H"/><use fill="url(#A)" xlink:href="#H"/><g mask="url(#G)"><g transform="translate(7.024 7.024)"><circle fill="#212124" cx="42.927" cy="42.927" r="42.927"/><circle fill="url(#D)" cx="42.927" cy="42.927" r="42.927"/><g transform="translate(16.555 29.067)"><g id="H"><use fill="#000" filter="url(#F)" xlink:href="#E"/><use fill="#fbdd11" xlink:href="#E"/></g><g fill-rule="nonzero"><path d="M37.84 13.955C37.25 10.4 29.562-.938 14.807.92 12.69 1.186 2.932 4.005.068 18.437c-.018.092-.033.18-.044.268-.042-.28-.03-.607.044-.983C2.932 3.29 12.69.47 14.807.204c15.98-2.012 23.672 11.44 23.033 13.75zm-22.936.526c-.074-.45-.036-.777.117-.937.896-.943 2.3-1 3.498-1.032 5.557-.15 13.423 6.34 15.018 6.307 3.1-.063 7.738-4.975 10.784-9.024 1.248-1.66 8.91-4.14 8.4-.064-.46-3.04-7.232-.77-8.4.78-3.046 4.05-7.694 8.96-10.784 9.024-1.595.032-9.46-6.458-15.018-6.307-1.208.033-2.6.09-3.498 1.032-.052.055-.09.13-.117.222z" fill="#fff193"/><path d="M37.84 13.24c.074.45.036.777-.117.937-.896.943-2.29 1-3.497 1.032-5.557.15-13.423-6.34-15.018-6.307-3.1.063-7.738 4.975-10.784 9.024-1.248 1.66-8.91 4.14-8.398.064.46 3.04 7.232.77 8.398-.78 3.046-4.05 7.695-8.96 10.784-9.024 1.595-.033 9.46 6.458 15.018 6.307 1.208-.033 2.6-.09 3.497-1.032.052-.055.09-.13.117-.222zm-22.936.526c.59 3.565 8.277 14.893 23.034 13.035 2.118-.267 11.875-3.085 14.738-17.517.018-.092.033-.182.044-.268.042.28.03.607-.044.983-2.863 14.432-12.62 17.25-14.738 17.517-15.98 2.012-23.672-11.442-23.034-13.75z" fill="#b39c0c"/></g></g></g></g></g></svg>