<svg xmlns="http://www.w3.org/2000/svg" xmlns:xlink="http://www.w3.org/1999/xlink" width="124" height="124"><defs><radialGradient cx="30.6297406%" cy="24.8388054%" fx="30.6297406%" fy="24.8388054%" r="86.9598475%" id="A"><stop stop-color="#c4dfff" offset="0%"/><stop stop-color="#a3cdff" offset="100%"/></radialGradient><rect id="B" width="99.902" height="99.902" rx="24"/><filter x="-21.0%" y="-15.0%" width="142.0%" height="142.0%" id="C"><feOffset dy="6" in="SourceAlpha"/><feGaussianBlur stdDeviation="6"/><feColorMatrix values="0 0 0 0 0 0 0 0 0 0 0 0 0 0 0 0 0 0 0.15 0"/></filter><radialGradient cx="13.2545856%" cy="13.3394017%" fx="13.2545856%" fy="13.3394017%" r="77.3006755%" id="D"><stop stop-color="#fff" stop-opacity=".15" offset="0%"/><stop stop-color="#fff" stop-opacity="0" offset="100%"/></radialGradient><path d="M63.31 32.178c-.315 0-.618.125-.84.35s-.348.527-.348.843v4.452l-1.52 1.523h-4.434c-.315 0-.618.125-.84.35s-.348.527-.348.843V45l-1.52 1.523-4.6.014-2.354-1.988v-3.672l1.52-1.523h4.437c.316.001.618-.125.842-.35s.35-.527.35-.844v-4.78c.001-.317-.125-.62-.348-.845s-.527-.35-.843-.35h-4.763c-.315 0-.618.125-.84.35s-.348.527-.348.843v4.452l-1.518 1.523-4.6.015-2.354-1.99v-4c.001-.317-.124-.62-.347-.845s-.526-.35-.84-.35h-4.763c-.315 0-.618.125-.84.35s-.348.527-.348.843v4.452l-1.518 1.523h-4.432c-.315 0-.618.125-.84.35s-.348.527-.348.843V45l-1.518 1.523H17.78c-.315 0-.618.125-.84.35s-.348.527-.348.843v4.78a1.19 1.19 0 0 0 1.189 1.191h4.763c.315 0 .618-.126.84-.35s.348-.527.348-.844V48.03l1.518-1.523h4.437c.315 0 .618-.126.84-.35s.348-.527.348-.844v-4.447l1.518-1.523 4.6-.015 2.354 1.99v3.667l-1.518 1.523h-4.437c-.316-.001-.62.125-.842.348s-.35.527-.35.844v4.78c-.001.317.125.62.348.845s.526.35.842.35h4.763a1.19 1.19 0 0 0 1.189-1.193V48.03l1.518-1.523 4.6-.015 2.354 1.99v3.997c0 .316.125.62.348.844s.525.35.84.35h4.763a1.19 1.19 0 0 0 1.189-1.193v-4.452l1.518-1.523h4.437a1.19 1.19 0 0 0 1.189-1.193v-4.444l1.518-1.523h4.437a1.19 1.19 0 0 0 1.189-1.193v-4.78c0-.318-.125-.623-.35-.847s-.53-.35-.846-.348H63.31z" id="E"/><filter x="-19.9%" y="-34.9%" width="139.9%" height="197.7%" id="F"><feOffset dy="3" in="SourceAlpha"/><feGaussianBlur stdDeviation="3"/><feColorMatrix values="0 0 0 0 0 0 0 0 0 0 0 0 0 0 0 0 0 0 0.4 0"/></filter></defs><g transform="translate(12 6)" fill="none" fill-rule="evenodd"><mask id="G" fill="#fff"><use xlink:href="#B"/></mask><use fill="#000" filter="url(#C)" xlink:href="#B"/><use fill="url(#A)" xlink:href="#B"/><g mask="url(#G)"><g transform="translate(7.024 7.024)"><circle fill="#1e2c3d" cx="42.927" cy="42.927" r="42.927"/><circle fill="url(#D)" cx="42.927" cy="42.927" r="42.927"/><use fill="#000" filter="url(#F)" xlink:href="#E"/><use fill="#a3cdff" xlink:href="#E"/><g fill-rule="nonzero"><path d="M37.553 32.9c.001-.203-.05-.402-.15-.58.378.21.612.6.612 1.044v3.924l-.463-.39V32.9zm-5.16 6.435l-1.518 1.526v4.45a1.19 1.19 0 0 1-1.189 1.193h-4.437l-1.518 1.526v4.452a1.19 1.19 0 0 1-1.186 1.185H17.78c-.432.001-.83-.235-1.04-.614a1.17 1.17 0 0 0 .576.15h4.764a1.19 1.19 0 0 0 1.189-1.193v-4.452l1.518-1.524h4.437a1.19 1.19 0 0 0 1.189-1.193V40.4l1.518-1.523 4.6-.014 2.354 1.988v.074l-1.892-1.598-4.613.02zm12.63 6.686l2.354 1.988v.074l-1.892-1.598-4.6.014-1.518 1.526v4.452a1.19 1.19 0 0 1-1.189 1.188h-4.764c-.432.001-.83-.235-1.04-.614a1.17 1.17 0 0 0 .577.15h4.764c.315 0 .618-.125.84-.35s.348-.527.348-.843v-4.452l1.518-1.524 4.6-.012zm1.476-1.568l-.465-.39v-3.67l1.52-1.523h4.437a1.19 1.19 0 0 0 1.189-1.193V32.9c0-.203-.05-.402-.15-.58.378.21.612.6.612 1.044v4.778a1.19 1.19 0 0 1-1.189 1.193h-4.437L46.5 40.87l-.002 3.59zM69.26 33.374v4.778c0 .316-.125.62-.348.843s-.526.35-.84.35h-4.437l-1.518 1.526v4.45c0 .316-.125.62-.348.843s-.526.35-.84.35H56.49l-1.518 1.526v4.452c0 .316-.125.62-.348.843s-.525.35-.84.35H49.02c-.432 0-.83-.235-1.04-.614.176.1.375.15.577.15h4.765c.315 0 .618-.125.84-.35s.348-.527.348-.843v-4.452l1.518-1.523h4.437c.315 0 .618-.125.84-.35s.348-.527.348-.843v-4.452l1.518-1.523H67.6c.315 0 .618-.125.84-.35s.348-.527.348-.843V32.9c.001-.203-.05-.402-.15-.58.378.2.614.6.614 1.044l-.001-.001z" fill="#231f20" opacity=".2"/><path d="M32.524 32.644c-.315 0-.618.126-.84.35s-.348.527-.348.844v4.447L29.818 39.8H25.38a1.19 1.19 0 0 0-1.189 1.193v4.452l-1.518 1.523h-4.437a1.19 1.19 0 0 0-1.189 1.193v4.78c-.001.202.05.402.15.578a1.19 1.19 0 0 1-.612-1.042v-4.78a1.19 1.19 0 0 1 1.189-1.193h4.434l1.52-1.523V40.54c0-.317.125-.622.35-.846s.528-.35.844-.35h4.434l1.52-1.523v-4.448a1.19 1.19 0 0 1 1.184-1.196h4.763a1.19 1.19 0 0 1 1.04.614c-.176-.1-.375-.15-.577-.15l-4.764.001zm6.832 8.748l.464.4v3.668l-1.52 1.523h-4.437a1.19 1.19 0 0 0-1.189 1.193v4.78c-.001.202.05.402.15.578a1.19 1.19 0 0 1-.612-1.042V47.7a1.19 1.19 0 0 1 1.189-1.193h4.437l1.518-1.523.001-3.594zm7.603-3.108L45.442 39.8l-4.6.015-2.354-1.988v-.074l1.892 1.598 4.6-.015 1.518-1.523v-4.45c0-.317.125-.62.347-.845s.526-.35.84-.35h4.764a1.19 1.19 0 0 1 1.039.614c-.176-.1-.375-.15-.577-.15h-4.764c-.315 0-.618.126-.84.35s-.348.527-.348.844v4.448zm22.153-5.5a1.17 1.17 0 0 0-.577-.15h-4.764c-.315 0-.618.126-.84.35s-.348.527-.348.844v4.447L61.065 39.8h-4.437a1.19 1.19 0 0 0-1.189 1.193v4.452l-1.518 1.523-4.6.015-2.354-1.988v-.074l1.892 1.598 4.6-.015 1.518-1.523V40.54a1.19 1.19 0 0 1 1.189-1.193H60.6l1.52-1.523v-4.45c0-.317.124-.62.347-.844s.525-.35.84-.35h4.763a1.19 1.19 0 0 1 1.04.616z" fill="#fff" opacity=".2"/></g></g></g></g></svg>