<svg xmlns="http://www.w3.org/2000/svg" xmlns:xlink="http://www.w3.org/1999/xlink" width="337" height="266"><defs><linearGradient x1="13.875%" y1="0%" x2="86.125%" y2="100%" id="A"><stop stop-color="#4082ff" offset="0%"/><stop stop-color="#5040ff" offset="100%"/></linearGradient><path d="M295.197 192.822v31.995c0 2.945-2.402 5.332-5.365 5.332h-3.568v10.905c0 2.732-2.228 4.946-4.976 4.946s-4.976-2.214-4.976-4.946V230.15h-6.626v10.905c0 2.732-2.228 4.946-4.976 4.946s-4.976-2.214-4.976-4.946V230.15h-3.568c-2.963 0-5.365-2.387-5.365-5.332v-31.995h44.394zm4.34-.19a5 5 0 0 1 4.976 0 4.94 4.94 0 0 1 2.488 4.283v20.6c0 2.732-2.228 4.946-4.976 4.946s-4.976-2.214-4.976-4.946v-20.6a4.94 4.94 0 0 1 2.488-4.283zm-55.56-.663c2.748 0 4.976 2.214 4.976 4.946v20.6c0 2.732-2.228 4.946-4.976 4.946S239 220.256 239 217.525v-20.6c0-2.732 2.228-4.946 4.976-4.946zM286.788 166a.89.89 0 0 1 .335.093c.168.084.293.235.344.415s.024.373-.076.532l-3.514 6.306c6.824 3.328 11.196 10.176 11.32 17.73h-44.394c.123-7.562 4.508-14.414 11.347-17.73l-3.514-6.306c-.095-.16-.12-.35-.07-.53a.68.68 0 0 1 .338-.416c.338-.18.76-.063.952.267l3.527 6.386a23.98 23.98 0 0 1 19.233 0l3.554-6.386a.67.67 0 0 1 .617-.36zm-23.328 13.435c-.698-.3-1.503-.133-2.038.4s-.694 1.332-.402 2.026.977 1.143 1.733 1.138c1.022 0 1.85-.824 1.85-1.84.005-.752-.447-1.432-1.145-1.723zm20.494 0c-.698-.3-1.503-.133-2.038.4s-.694 1.332-.402 2.026.977 1.143 1.733 1.138c.49 0 .962-.194 1.31-.54s.542-.813.542-1.3c.005-.752-.447-1.432-1.145-1.723z" id="B"/><filter x="-30.9%" y="-18.7%" width="161.8%" height="152.5%" id="C"><feOffset dy="6" in="SourceAlpha"/><feGaussianBlur stdDeviation="6"/><feColorMatrix values="0 0 0 0 0.317647059 0 0 0 0 0.368627451 0 0 0 0 1 0 0 0 0.3 0"/></filter></defs><g fill-rule="evenodd"><use fill="#000" filter="url(#C)" xlink:href="#B"/><use fill="url(#A)" xlink:href="#B"/></g></svg>