<svg xmlns="http://www.w3.org/2000/svg" xmlns:xlink="http://www.w3.org/1999/xlink" width="337" height="266"><defs><linearGradient x1="0%" y1="42.9124722%" x2="100%" y2="57.0875278%" id="A"><stop stop-color="#4082ff" offset="0%"/><stop stop-color="#5040ff" offset="100%"/></linearGradient><path d="M168.694 127.003l.067-.001a2.98 2.98 0 0 1 1.707.549l49.89 35.266 3.446-4.926.1-.13a2.1 2.1 0 0 1 3.469.337l9.45 17.525a2.1 2.1 0 0 1-2.233 2.933l-19.473-2.962-.147-.028a2.1 2.1 0 0 1-1.613-2.364l.038-.2a2.1 2.1 0 0 1 .318-.698l3.198-4.57-48.262-34.116-48.472 34.115 3.21 4.566a2.1 2.1 0 0 1 .32.702l.038.19a2.1 2.1 0 0 1-1.614 2.363l-.147.028-19.574 2.964a2.1 2.1 0 0 1-2.23-2.936l.07-.14 9.43-17.4a2.1 2.1 0 0 1 3.465-.337l.1.13 3.473 4.942 50.113-35.27a3 3 0 0 1 1.866-.546z" id="B"/><filter x="-15.3%" y="-29.1%" width="130.7%" height="181.4%" id="C"><feOffset dy="6" in="SourceAlpha"/><feGaussianBlur stdDeviation="6"/><feColorMatrix values="0 0 0 0 0.317647059 0 0 0 0 0.368627451 0 0 0 0 1 0 0 0 0.3 0"/></filter></defs><g fill-rule="evenodd"><use fill="#000" filter="url(#C)" xlink:href="#B"/><use fill="url(#A)" xlink:href="#B"/></g></svg>