<svg xmlns="http://www.w3.org/2000/svg" xmlns:xlink="http://www.w3.org/1999/xlink" width="337" height="266"><defs><linearGradient x1="16.9921875%" y1="0%" x2="83.0078125%" y2="100%" id="A"><stop stop-color="#4082ff" offset="0%"/><stop stop-color="#5040ff" offset="100%"/></linearGradient><path d="M84.33 208.54c-.093-10.14 8.25-14.998 8.622-15.238-3.35-4.83-8.773-7.798-14.637-8.006-6.214-.627-12.135 3.67-15.288 3.67s-7.984-3.576-13.173-3.483a19.54 19.54 0 0 0-16.513 10.034c-7.04 12.263-1.796 30.4 5.056 40.338 3.353 4.87 7.358 10.328 12.6 10.14s6.972-3.283 13.08-3.283 7.837 3.283 13.186 3.176 8.888-4.95 12.215-9.834c2.376-3.51 4.235-7.342 5.522-11.382-6.438-2.773-10.627-9.106-10.67-16.133zm-10.046-29.756A17.66 17.66 0 0 0 78.434 166c-4.547.442-8.755 2.61-11.762 6.058-2.58 3.002-4.843 7.793-4.23 12.396 4.47.347 9.048-2.282 11.842-5.67z" id="B"/><filter x="-32.3%" y="-18.7%" width="164.6%" height="152.5%" id="C"><feOffset dy="6" in="SourceAlpha"/><feGaussianBlur stdDeviation="6"/><feColorMatrix values="0 0 0 0 0.317647059 0 0 0 0 0.368627451 0 0 0 0 1 0 0 0 0.3 0"/></filter></defs><g fill-rule="evenodd"><use fill="#000" filter="url(#C)" xlink:href="#B"/><use fill="url(#A)" xlink:href="#B"/></g></svg>