<?xml version="1.0" encoding="UTF-8"?>
<svg width="309px" height="198px" viewBox="0 0 309 198" version="1.1" xmlns="http://www.w3.org/2000/svg" xmlns:xlink="http://www.w3.org/1999/xlink">
    <!-- Generator: Sketch 60 (88103) - https://sketch.com -->
    <title>chat</title>
    <desc>Created with Sketch.</desc>
    <defs>
        <path d="M147.21,0 C158.692,1.47342063e-14 168,9.30800005 168,20.79 L168,82.3493939 C168,93.8313939 158.692,103.139394 147.21,103.139394 L48.032,103.139 L20.0366972,127 L20.036656,103.125999 C8.90361176,102.729467 1.82986963e-14,93.5792053 0,82.3493939 L0,20.79 C-1.40613945e-15,9.30800005 9.30800005,2.10920917e-15 20.79,0 L147.21,0 Z" id="path-1"></path>
        <filter x="-16.7%" y="-15.7%" width="133.3%" height="144.1%" filterUnits="objectBoundingBox" id="filter-2">
            <feOffset dx="0" dy="8" in="SourceAlpha" result="shadowOffsetOuter1"></feOffset>
            <feGaussianBlur stdDeviation="8" in="shadowOffsetOuter1" result="shadowBlurOuter1"></feGaussianBlur>
            <feColorMatrix values="0 0 0 0 0.250980392   0 0 0 0 0.509803922   0 0 0 0 1  0 0 0 0.25 0" type="matrix" in="shadowBlurOuter1"></feColorMatrix>
        </filter>
        <path d="M147.21,0 C158.692,1.47342063e-14 168,9.30800005 168,20.79 L168,82.3493939 C168,93.8313939 158.692,103.139394 147.21,103.139394 L48.032,103.139 L20.0366972,127 L20.036656,103.125999 C8.90361176,102.729467 1.82986963e-14,93.5792053 0,82.3493939 L0,20.79 C-1.40613945e-15,9.30800005 9.30800005,2.10920917e-15 20.79,0 L147.21,0 Z" id="path-3"></path>
        <filter x="-16.7%" y="-15.7%" width="133.3%" height="144.1%" filterUnits="objectBoundingBox" id="filter-4">
            <feOffset dx="0" dy="8" in="SourceAlpha" result="shadowOffsetOuter1"></feOffset>
            <feGaussianBlur stdDeviation="8" in="shadowOffsetOuter1" result="shadowBlurOuter1"></feGaussianBlur>
            <feColorMatrix values="0 0 0 0 0.250980392   0 0 0 0 0.509803922   0 0 0 0 1  0 0 0 0.25 0" type="matrix" in="shadowBlurOuter1"></feColorMatrix>
        </filter>
    </defs>
    <g id="Page-1" stroke="none" stroke-width="1" fill="none" fill-rule="evenodd">
        <g id="Desktop-HD-Copy-6" transform="translate(-566.000000, -3536.000000)">
            <g id="Group-11" transform="translate(521.000000, 3544.000000)">
                <g id="chat" transform="translate(61.000000, 0.000000)">
                    <g id="Group-6-Copy" transform="translate(84.000000, 63.500000) scale(-1, 1) translate(-84.000000, -63.500000) ">
                        <g id="Group-3-Copy" transform="translate(84.000000, 63.500000) scale(-1, 1) translate(-84.000000, -63.500000) ">
                            <g id="Combined-Shape-Copy-4">
                                <use fill="black" fill-opacity="1" filter="url(#filter-2)" xlink:href="#path-1"></use>
                                <use fill="#FFFFFF" fill-rule="evenodd" xlink:href="#path-1"></use>
                            </g>
                            <rect id="Rectangle" fill="#4082FF" x="26" y="29" width="116" height="6" rx="3"></rect>
                            <rect id="Rectangle-Copy-6" fill="#4082FF" x="26" y="48" width="116" height="6" rx="3"></rect>
                            <rect id="Rectangle-Copy-7" fill="#4082FF" x="26" y="67" width="116" height="6" rx="3"></rect>
                        </g>
                    </g>
                    <g id="Group-6" transform="translate(109.000000, 41.000000)">
                        <g id="Group-3-Copy" transform="translate(84.000000, 63.500000) scale(-1, 1) translate(-84.000000, -63.500000) ">
                            <g id="Combined-Shape-Copy-4">
                                <use fill="black" fill-opacity="1" filter="url(#filter-4)" xlink:href="#path-3"></use>
                                <use fill="#FFFFFF" fill-rule="evenodd" xlink:href="#path-3"></use>
                            </g>
                            <rect id="Rectangle" fill="#4082FF" x="26" y="29" width="116" height="6" rx="3"></rect>
                            <rect id="Rectangle-Copy-6" fill="#4082FF" x="26" y="48" width="116" height="6" rx="3"></rect>
                            <rect id="Rectangle-Copy-7" fill="#4082FF" x="26" y="67" width="116" height="6" rx="3"></rect>
                        </g>
                    </g>
                </g>
            </g>
        </g>
    </g>
</svg>