<svg xmlns="http://www.w3.org/2000/svg" width="41" height="40"><path d="M20.192 0C10.373.001 2.005 7.297.433 17.226s4.118 19.56 13.432 22.74c1 .188 1.366-.445 1.366-.988l-.027-3.488c-5.568 1.24-6.742-2.75-6.742-2.75-.9-2.37-2.222-3-2.222-3-1.817-1.272.137-1.247.137-1.247 2.01.145 3.066 2.113 3.066 2.113 1.785 3.134 4.685 2.23 5.826 1.704.182-1.325.7-2.23 1.27-2.74-4.445-.518-9.118-2.277-9.118-10.135-.03-2.037.71-4.008 2.06-5.503-.206-.52-.893-2.604.196-5.427 0 0 1.68-.55 5.505 2.102a18.54 18.54 0 0 1 10.023 0c3.822-2.654 5.5-2.102 5.5-2.102 1.092 2.823.405 4.908.2 5.427 1.283 1.433 2.058 3.264 2.058 5.503 0 7.878-4.68 9.61-9.14 10.12.72.633 1.36 1.885 1.36 3.797l-.025 5.626c0 .548.36 1.186 1.376.986 9.31-3.186 14.993-12.818 13.418-22.744S30.008.001 20.192 0z" fill="#fff" fill-rule="evenodd"/></svg>