<svg xmlns="http://www.w3.org/2000/svg" width="41" height="40"><path d="M20.4 9.745c-5.68 0-10.263 4.58-10.263 10.255S14.73 30.255 20.4 30.255 30.673 25.677 30.673 20 26.09 9.745 20.4 9.745zm0 16.923c-3.67 0-6.672-3-6.672-6.667a6.68 6.68 0 0 1 6.672-6.667A6.68 6.68 0 0 1 27.082 20c0 3.677-3 6.667-6.672 6.667zM33.487 9.325c0 1.33-1.072 2.392-2.394 2.392a2.39 2.39 0 0 1-2.394-2.392c0-1.32 1.072-2.392 2.394-2.392s2.394 1.07 2.394 2.392zm6.798 2.428c-.152-3.204-.884-6.043-3.234-8.38C34.71 1.033 31.87.3 28.663.14c-3.305-.187-13.21-.187-16.516 0C8.95.292 6.11 1.024 3.76 3.363S.687 8.54.527 11.744c-.188 3.302-.188 13.2 0 16.503.152 3.204.884 6.043 3.234 8.38s5.18 3.07 8.387 3.23c3.305.187 13.21.187 16.516 0 3.207-.152 6.047-.884 8.388-3.23 2.34-2.34 3.073-5.177 3.234-8.38.188-3.302.188-13.192 0-16.494zm-4.27 20.038a6.75 6.75 0 0 1-3.805 3.802c-2.635 1.044-8.888.803-11.8.803s-9.174.232-11.8-.803a6.75 6.75 0 0 1-3.805-3.802C3.76 29.158 4 22.9 4 20s-.232-9.167.804-11.79A6.75 6.75 0 0 1 8.61 4.407c2.635-1.044 8.888-.803 11.8-.803s9.174-.232 11.8.803a6.75 6.75 0 0 1 3.805 3.802c1.045 2.633.804 8.88.804 11.79s.24 9.167-.804 11.79z" fill="#fff" fill-rule="nonzero"/></svg>