<svg xmlns="http://www.w3.org/2000/svg" width="41" height="40"><path d="M40.82 0v40H.78V0h40.04zM15.282 9.026H7.484v.45L9.995 12.5a1.04 1.04 0 0 1 .339.878v11.877c.073.428-.062.866-.364 1.18l-2.825 3.424v.45h8.012v-.45l-2.825-3.424c-.304-.312-.448-.747-.39-1.18V14.983l7.032 15.326h.816l6.04-15.326V27.31a.54.54 0 0 1-.213.491l-2.172 2.107v.45h10.548v-.45l-2.097-2.057c-.185-.14-.277-.373-.24-.602V12.136c-.038-.23.053-.46.24-.602l2.147-2.057v-.45H26.61l-5.3 13.206-6.028-13.206z" fill="#fff" fill-rule="evenodd"/></svg>