<svg xmlns="http://www.w3.org/2000/svg" width="41" height="40"><path d="M20.587 0c11.057 0 20.02 8.954 20.02 20s-8.963 20-20.02 20S.567 31.046.567 20 9.53 0 20.587 0zm8.026 7.857a2 2 0 0 0-1.797 1.167l-4.68-1.056c-.127-.026-.26.001-.367.075a.45.45 0 0 0-.206.331l-1.43 6.976a13.64 13.64 0 0 0-7.651 2.484 2.77 2.77 0 0 0-1.958-.828c-1.572.023-2.828 1.32-2.808 2.898a2.9 2.9 0 0 0 1.649 2.65 5.54 5.54 0 0 0-.07.882c0 4.488 5.046 8.14 11.266 8.14s11.266-3.627 11.266-8.14a5.78 5.78 0 0 0-.07-.882c1.016-.49 1.665-1.518 1.67-2.65a2.86 2.86 0 0 0-2.812-2.898c-.736.005-1.44.303-1.958.828-2.213-1.555-4.835-2.42-7.536-2.484l1.3-6.25 4.192.927a2.01 2.01 0 0 0 2.102 1.86c1.087-.054 1.933-.968 1.907-2.06s-.913-1.966-2-1.97zM24.97 26.56a.5.5 0 0 1 .369.162.59.59 0 0 1 0 .77c-1.38 1.432-4.007 1.52-4.77 1.52s-3.41-.12-4.77-1.528a.55.55 0 0 1 0-.762.5.5 0 0 1 .738 0c.874.907 2.72 1.217 4.032 1.217s3.178-.3 4.032-1.217a.5.5 0 0 1 .369-.162zm.72-6.467a2.07 2.07 0 0 1 1.286 1.917c.012 1.125-.883 2.05-2.003 2.07a2.06 2.06 0 0 1-1.945-1.237c-.337-.77-.175-1.67.41-2.275s1.476-.792 2.253-.475zm-9.53-.082c1.102.02 1.982.927 1.972 2.033s-.905 1.998-2.007 2c-1.122-.018-2.02-.943-2.008-2.07.03-1.106.94-1.982 2.042-1.962z" fill="#fff" fill-rule="evenodd"/></svg>