<svg id="Layer_1" data-name="Layer 1" xmlns="http://www.w3.org/2000/svg" viewBox="0 0 135 40"><title>appstore-button</title><g id="Page-1"><g id="button-appstore2-v2"><g id="Group-21"><path id="Combined-Shape" d="M27.85,20.16a7,7,0,0,0,4.29,6.48,15.71,15.71,0,0,1-2.23,4.56c-1.31,2-2.69,3.9-4.88,3.93s-2.83-1.25-5.27-1.25-3.22,1.22-5.26,1.3-3.67-2.1-5-4.06c-2.72-4-4.84-11.23-2-16.17a7.82,7.82,0,0,1,6.58-4c2.08,0,4,1.41,5.3,1.41s3.65-1.74,6.11-1.48a7.45,7.45,0,0,1,5.87,3.18A7.28,7.28,0,0,0,27.85,20.16Zm-4-11.92a6,6,0,0,1-4.75,2.26,6.8,6.8,0,0,1,1.68-4.95A7.24,7.24,0,0,1,25.48,3.1,7.15,7.15,0,0,1,23.84,8.24Z" style="fill:#fff"/><path id="App-Store" d="M55.75,31.56,54.52,28H49.4l-1.23,3.56H46l4.85-13.18H53.1L58,31.56Zm-3.82-11-2,5.79H54l-2-5.79ZM64.3,21.8c2.48,0,4.12,1.92,4.12,5s-1.63,5-4.09,5A3.36,3.36,0,0,1,61.25,30h0v4.76h-2V22h2v1.66h0A3.38,3.38,0,0,1,64.3,21.8Zm-.53,8.26c1.59,0,2.58-1.28,2.58-3.3s-1-3.3-2.58-3.3-2.57,1.32-2.57,3.3S62.22,30.06,63.77,30.06Zm11.3-8.26c2.49,0,4.13,1.92,4.13,5s-1.63,5-4.09,5A3.34,3.34,0,0,1,72,30h0v4.76H70V22h1.94v1.66h0A3.39,3.39,0,0,1,75.07,21.8Zm-.53,8.26c1.59,0,2.59-1.28,2.59-3.3s-1-3.3-2.59-3.3S72,24.78,72,26.76,73,30.06,74.54,30.06Zm9.71-2.17h2.06c.15,1.31,1.44,2.17,3.21,2.17s2.92-.86,2.92-2c0-1-.74-1.64-2.48-2.06l-1.74-.41C85.75,25,84.61,23.83,84.61,22c0-2.28,2-3.84,4.88-3.84s4.79,1.56,4.85,3.84h-2c-.12-1.32-1.22-2.11-2.84-2.11s-2.73.8-2.73,2c0,.93.71,1.48,2.44,1.9l1.48.36c2.75.64,3.9,1.72,3.9,3.65,0,2.47-2,4-5.19,4C86.39,31.78,84.38,30.28,84.25,27.89Zm12.53-8.21h2V22h1.86v1.56H98.8v5.3c0,.83.37,1.21,1.19,1.21a4.13,4.13,0,0,0,.66-.05v1.57a6,6,0,0,1-1.12.09c-2,0-2.75-.74-2.75-2.6V23.51H95.35V22h1.43Zm9.73,12.07c-2.8,0-4.64-1.9-4.64-5s1.85-5,4.64-5,4.65,1.89,4.65,5S109.32,31.75,106.51,31.75Zm0-1.63c1.59,0,2.6-1.22,2.6-3.36s-1-3.35-2.6-3.35-2.59,1.22-2.59,3.35S104.94,30.12,106.51,30.12Zm6.21,1.44V22h1.91v1.64h.05A2.35,2.35,0,0,1,117,21.8a3.58,3.58,0,0,1,.69.07v1.84a2.81,2.81,0,0,0-.91-.11,2,2,0,0,0-2.09,2.21v5.75Zm10.35-8.19a2.49,2.49,0,0,0-2.49,2.5h4.89A2.37,2.37,0,0,0,123.07,23.37Zm2.39,5.37h1.91c-.28,1.75-2,3-4.22,3-2.87,0-4.61-1.91-4.61-4.95s1.77-5,4.53-5,4.41,1.88,4.41,4.8v.67h-6.91v.12a2.54,2.54,0,0,0,2.63,2.78A2.22,2.22,0,0,0,125.46,28.74Z" style="fill:#fff"/><path id="Download-on-the" d="M47.67,5.25H50.4c2.31,0,3.67,1.42,3.67,3.86S52.71,13,50.4,13H47.67Zm1.2,1V12h1.42c1.64,0,2.55-1,2.55-2.84s-.91-2.83-2.55-2.83Zm8.61,6.82a2.63,2.63,0,0,1-2.68-2.94,2.69,2.69,0,1,1,5.36,0A2.62,2.62,0,0,1,57.48,13.11Zm0-1c.92,0,1.5-.72,1.5-2s-.59-2-1.5-2-1.5.72-1.5,2S56.58,12.15,57.48,12.15Zm11-4.8L66.93,13H65.72L64.53,8.77h0L63.33,13h-1.2L60.58,7.35h1.16l1,4.45h0L64,7.35h1.12l1.18,4.45h0l1-4.45ZM69.16,13V7.35h1.11v.94h0a1.82,1.82,0,0,1,1.77-1,1.87,1.87,0,0,1,2,2.09V13H72.87V9.57c0-.85-.4-1.32-1.2-1.32a1.32,1.32,0,0,0-1.35,1.46V13Zm6,0V5.25h1.16V13Zm4.76.11a2.62,2.62,0,0,1-2.68-2.94,2.69,2.69,0,1,1,5.36,0A2.63,2.63,0,0,1,79.94,13.11Zm0-1c.91,0,1.5-.72,1.5-2s-.6-2-1.5-2-1.5.72-1.5,2S79,12.15,79.94,12.15Zm5.53,0a1.36,1.36,0,0,0,1.45-1.3v-.44l-1.39.08c-.7.05-1.09.36-1.09.84S84.85,12.18,85.47,12.18Zm-.32.92a1.71,1.71,0,0,1-1.88-1.71c0-1,.76-1.59,2.1-1.67l1.55-.09V9.2c0-.63-.43-1-1.14-1A1.08,1.08,0,0,0,84.59,9h-1.1c.07-1,.94-1.77,2.34-1.77s2.24.72,2.24,1.86V13H87v-.93h0A2,2,0,0,1,85.15,13.1Zm6.15,0c-1.43,0-2.38-1.14-2.38-2.93s1-2.91,2.36-2.91a1.94,1.94,0,0,1,1.78,1h0v-3h1.16V13H93.12V12h0A2,2,0,0,1,91.3,13.1Zm.3-4.86c-.92,0-1.49.75-1.49,1.93s.57,1.94,1.49,1.94,1.49-.75,1.49-1.94S92.49,8.24,91.6,8.24Zm8.45,4.87a2.62,2.62,0,0,1-2.68-2.94,2.69,2.69,0,1,1,5.36,0A2.62,2.62,0,0,1,100.05,13.11Zm0-1c.91,0,1.5-.72,1.5-2s-.59-2-1.5-2-1.5.72-1.5,2S99.14,12.15,100.05,12.15Zm3.56.85V7.35h1.1v.94h0a2,2,0,0,1,3.74,1.05V13h-1.17V9.57c0-.85-.39-1.32-1.2-1.32a1.32,1.32,0,0,0-1.34,1.46V13Zm8.51-7h1.17V7.35h1.07v.92h-1.07v3.11c0,.49.21.71.69.71l.38,0V13a2.7,2.7,0,0,1-.65.06c-1.14,0-1.59-.44-1.59-1.53V8.27h-.82V7.35h.82Zm3.22,7V5.25h1.15v3h0a1.85,1.85,0,0,1,1.79-1,1.91,1.91,0,0,1,2,2.11V13h-1.17V9.58a1.16,1.16,0,0,0-1.24-1.33,1.34,1.34,0,0,0-1.38,1.48V13Zm8.41-4.82a1.46,1.46,0,0,0-1.44,1.47h2.82A1.38,1.38,0,0,0,123.75,8.18Zm1.38,3.16h1.1a2.29,2.29,0,0,1-2.44,1.77,2.59,2.59,0,0,1-2.66-2.91c0-1.77,1-2.95,2.62-2.95a2.51,2.51,0,0,1,2.54,2.82v.39h-4v.07a1.48,1.48,0,0,0,1.52,1.64A1.3,1.3,0,0,0,125.13,11.34Z" style="fill:#fff"/></g></g></g></svg>