<?xml version="1.0" encoding="UTF-8"?>
<svg width="135px" height="40px" viewBox="0 0 135 40" version="1.1" xmlns="http://www.w3.org/2000/svg" xmlns:xlink="http://www.w3.org/1999/xlink">
    <!-- Generator: Sketch 60 (88103) - https://sketch.com -->
    <title>button-appstore2-v2</title>
    <desc>Created with Sketch.</desc>
    <g id="Page-1" stroke="none" stroke-width="1" fill="none" fill-rule="evenodd">
        <g id="Desktop-HD-Copy-6" transform="translate(-371.000000, -2427.000000)" fill-rule="nonzero">
            <g id="Group-15" transform="translate(313.000000, 2082.000000)">
                <g id="Group-10-Copy-2" transform="translate(42.000000, 340.000000)">
                    <g id="button-appstore2-v2" transform="translate(16.000000, 5.000000)">
                        <rect id="Rectangle-5" fill="#4082FF" x="0" y="0" width="135" height="40"></rect>
                        <g id="Group-21" transform="translate(6.114713, 3.102994)" fill="#FFFFFF">
                            <path d="M21.7400846,17.0601609 C21.7814678,21.9177861 25.9774716,23.5235814 26.028887,23.5411861 C26.0038063,23.6543588 25.3717723,25.8587121 23.7979573,28.0970173 C22.4837278,30.0674804 21.1067965,31.9939318 18.9197581,32.0291411 C16.7954214,32.0781826 16.080621,30.7754387 13.6440294,30.7754387 C11.1848652,30.7754387 10.4236655,31.9939318 8.38585736,32.0781826 C6.30290389,32.1548886 4.71153246,29.9744272 3.34964958,28.0215688 C0.627137844,24.0341162 -1.49218266,16.7847739 1.34946247,11.8517002 C2.72639378,9.4323186 5.23697346,7.8743073 7.92061008,7.83281063 C10.0060716,7.79005649 11.9410488,9.24495485 13.2226734,9.24495485 C14.4792173,9.24495485 16.8719176,7.5046097 19.338606,7.76490699 C20.3706775,7.79508638 23.3076293,8.1735863 25.2024774,10.9438033 C25.0494851,11.035599 21.7037176,13.0073195 21.7400846,17.0601609 Z M17.72717,5.14181452 C16.5834894,6.49485742 14.7538511,7.5297592 12.9718663,7.39646687 C12.7386156,5.57061343 13.6415214,3.62907232 14.6522742,2.44453104 C15.7947008,1.10029046 17.7785855,0.070418589 19.3649408,-8.66862138e-13 C19.5731107,1.89752949 18.8231973,3.76739455 17.72717,5.14181452 Z" id="Combined-Shape"></path>
                            <path d="M49.6343332,28.4601988 L48.4052271,24.8973208 L43.2839517,24.8973208 L42.0548456,28.4601988 L39.8852871,28.4601988 L44.7365316,15.2775502 L46.9898928,15.2775502 L51.8411374,28.4601988 L49.6343332,28.4601988 Z M45.8166552,17.4700905 L43.8147021,23.2529156 L47.8744768,23.2529156 L45.8725237,17.4700905 L45.8166552,17.4700905 Z M58.1822075,18.6942588 C60.668354,18.6942588 62.3071621,20.6127316 62.3071621,23.6548813 C62.3071621,26.697031 60.6776654,28.6246394 58.2194532,28.6246394 C56.8134303,28.6246394 55.6960611,27.9486061 55.1373765,26.8797427 L55.0908194,26.8797427 L55.0908194,31.6393823 L53.0795549,31.6393823 L53.0795549,18.8495638 L55.0256396,18.8495638 L55.0256396,20.5031046 L55.0628852,20.5031046 C55.6401926,19.3976988 56.7668732,18.6942588 58.1822075,18.6942588 Z M57.6514572,26.9528274 C59.2437082,26.9528274 60.2400291,25.6738455 60.2400291,23.6548813 C60.2400291,21.6450527 59.2437082,20.3569352 57.6514572,20.3569352 C56.1150745,20.3569352 55.081508,21.6724594 55.081508,23.6548813 C55.081508,25.6555743 56.1057631,26.9528274 57.6514572,26.9528274 Z M68.9555088,18.6942588 C71.4416552,18.6942588 73.0804633,20.6127316 73.0804633,23.6548813 C73.0804633,26.697031 71.4509666,28.6246394 68.9927544,28.6246394 C67.5867315,28.6246394 66.4693623,27.9486061 65.9106777,26.8797427 L65.8641207,26.8797427 L65.8641207,31.6393823 L63.8528561,31.6393823 L63.8528561,18.8495638 L65.7989408,18.8495638 L65.7989408,20.5031046 L65.8361864,20.5031046 C66.4134939,19.3976988 67.5401745,18.6942588 68.9555088,18.6942588 Z M68.4247584,26.9528274 C70.0170095,26.9528274 71.0133303,25.6738455 71.0133303,23.6548813 C71.0133303,21.6450527 70.0170095,20.3569352 68.4247584,20.3569352 C66.8883758,20.3569352 65.8548093,21.6724594 65.8548093,23.6548813 C65.8548093,25.6555743 66.8790644,26.9528274 68.4247584,26.9528274 Z M78.1365589,24.7876938 L80.1943805,24.7876938 C80.343363,26.0940824 81.637649,26.9528274 83.4068169,26.9528274 C85.1014935,26.9528274 86.3212882,26.0940824 86.3212882,24.915592 C86.3212882,23.8924065 85.5856868,23.2803223 83.8444532,22.8600854 L82.1032195,22.4489841 C79.6356959,21.8643067 78.4903925,20.7314942 78.4903925,18.8952417 C78.4903925,16.6204811 80.5109684,15.0582961 83.3788827,15.0582961 C86.2188627,15.0582961 88.1649473,16.6204811 88.2301272,18.8952417 L86.2002399,18.8952417 C86.0791915,17.5797175 84.9711338,16.7849216 83.3509484,16.7849216 C81.7307631,16.7849216 80.6227053,17.5888531 80.6227053,18.7582079 C80.6227053,19.6900376 81.3303725,20.2381726 83.0622947,20.6584095 L84.5428089,21.0146973 C87.2989862,21.6541883 88.4442896,22.7413228 88.4442896,24.6689312 C88.4442896,27.1355391 86.4423365,28.6794529 83.2578343,28.6794529 C80.2781832,28.6794529 78.2669186,27.1720814 78.1365589,24.7876938 Z M90.6604052,16.5748032 L92.6809811,16.5748032 L92.6809811,18.8495638 L94.5432631,18.8495638 L94.5432631,20.4117487 L92.6809811,20.4117487 L92.6809811,25.7103879 C92.6809811,26.5417261 93.0534375,26.916285 93.8728416,26.916285 C94.0776926,26.916285 94.403592,26.8980139 94.5339517,26.8706071 L94.5339517,28.4327921 C94.3104779,28.4876056 93.8635302,28.5241479 93.4165825,28.5241479 C91.4332522,28.5241479 90.6604052,27.7841656 90.6604052,25.9296419 L90.6604052,20.4117487 L89.2357595,20.4117487 L89.2357595,18.8495638 L90.6604052,18.8495638 L90.6604052,16.5748032 Z M100.40014,28.6429105 C97.5974056,28.6429105 95.7537464,26.7518445 95.7537464,23.6548813 C95.7537464,20.5670537 97.606717,18.6759877 100.40014,18.6759877 C103.193563,18.6759877 105.046533,20.5670537 105.046533,23.6548813 C105.046533,26.7518445 103.202874,28.6429105 100.40014,28.6429105 Z M100.40014,27.0167765 C101.98308,27.0167765 102.998023,25.7926081 102.998023,23.6548813 C102.998023,21.5262901 101.973768,20.3021217 100.40014,20.3021217 C98.8265117,20.3021217 97.8022566,21.5262901 97.8022566,23.6548813 C97.8022566,25.7926081 98.8265117,27.0167765 100.40014,27.0167765 Z M106.601539,28.4601988 L106.601539,18.8495638 L108.519689,18.8495638 L108.519689,20.4848334 L108.566246,20.4848334 C108.892146,19.3611565 109.767418,18.6942588 110.922033,18.6942588 C111.210687,18.6942588 111.462095,18.7399367 111.611077,18.7673435 L111.611077,20.603596 C111.452783,20.5396469 111.09895,20.493969 110.707871,20.493969 C109.413585,20.493969 108.612803,21.3435784 108.612803,22.7047805 L108.612803,28.4601988 L106.601539,28.4601988 Z M116.955827,20.2655794 C115.549804,20.2655794 114.562794,21.3161716 114.460369,22.7687296 L119.35817,22.7687296 C119.311613,21.2979005 118.361849,20.2655794 116.955827,20.2655794 Z M119.348859,25.6373032 L121.257698,25.6373032 C120.978356,27.3913354 119.283679,28.6429105 117.039629,28.6429105 C114.162404,28.6429105 112.42117,26.7335733 112.42117,23.7005592 C112.42117,20.6858163 114.190338,18.6759877 116.955827,18.6759877 C119.674758,18.6759877 121.369435,20.5579181 121.369435,23.4721696 L121.369435,24.1482029 L114.451057,24.1482029 L114.451057,24.2669655 C114.451057,25.9387775 115.475312,27.0441832 117.086186,27.0441832 C118.23149,27.0441832 119.078828,26.477777 119.348859,25.6373032 Z" id="App-Store"></path>
                            <path d="M41.5531309,2.1465175 L44.2870177,2.1465175 C46.5912169,2.1465175 47.9554747,3.56448625 47.9554747,6.0083339 C47.9554747,8.45755266 46.596588,9.89700578 44.2870177,9.89700578 L41.5531309,9.89700578 L41.5531309,2.1465175 Z M42.7562559,3.18313859 L42.7562559,8.85501359 L44.1742247,8.85501359 C45.8177794,8.85501359 46.7254942,7.85061906 46.7254942,6.01907609 C46.7254942,4.19290422 45.8124083,3.18313859 44.1742247,3.18313859 L42.7562559,3.18313859 Z M51.3681918,10.0044277 C49.7514926,10.0044277 48.6880161,8.89261125 48.6880161,7.07181047 C48.6880161,5.25638078 49.7568637,4.14456437 51.3681918,4.14456437 C52.97952,4.14456437 54.0483676,5.25638078 54.0483676,7.07181047 C54.0483676,8.89261125 52.9848911,10.0044277 51.3681918,10.0044277 Z M51.3681918,9.04837298 C52.2812778,9.04837298 52.866727,8.3286464 52.866727,7.07181047 C52.866727,5.82034562 52.2759067,5.10061906 51.3681918,5.10061906 C50.460477,5.10061906 49.8696567,5.82034562 49.8696567,7.07181047 C49.8696567,8.3286464 50.460477,9.04837298 51.3681918,9.04837298 Z M62.3595223,4.24661516 L60.8126473,9.89700578 L59.6041512,9.89700578 L58.4171394,5.6645839 L58.390284,5.6645839 L57.2140144,9.89700578 L56.0162605,9.89700578 L54.4640144,4.24661516 L55.6241707,4.24661516 L56.6554207,8.69388078 L56.6769051,8.69388078 L57.8531746,4.24661516 L58.9703621,4.24661516 L60.1520027,8.69388078 L60.1788582,8.69388078 L61.2101082,4.24661516 L62.3595223,4.24661516 Z M63.0490949,9.89700578 L63.0490949,4.24661516 L64.1555402,4.24661516 L64.1555402,5.19192766 L64.1823957,5.19192766 C64.488548,4.5473964 65.0901105,4.14993547 65.9602277,4.14993547 C67.2063214,4.14993547 67.9206769,4.94485734 67.9206769,6.23929094 L67.9206769,9.89700578 L66.7551496,9.89700578 L66.7551496,6.46487687 C66.7551496,5.61624406 66.3576886,5.1489589 65.5520246,5.1489589 C64.7356183,5.1489589 64.2092511,5.72903703 64.2092511,6.60452531 L64.2092511,9.89700578 L63.0490949,9.89700578 Z M69.0614214,9.89700578 L69.0614214,2.1465175 L70.2215776,2.1465175 L70.2215776,9.89700578 L69.0614214,9.89700578 Z M73.8222831,10.0044277 C72.2055838,10.0044277 71.1421073,8.89261125 71.1421073,7.07181047 C71.1421073,5.25638078 72.2109549,4.14456437 73.8222831,4.14456437 C75.4336112,4.14456437 76.5024588,5.25638078 76.5024588,7.07181047 C76.5024588,8.89261125 75.4389823,10.0044277 73.8222831,10.0044277 Z M73.8222831,9.04837298 C74.735369,9.04837298 75.3208182,8.3286464 75.3208182,7.07181047 C75.3208182,5.82034562 74.7299979,5.10061906 73.8222831,5.10061906 C72.9145682,5.10061906 72.3237479,5.82034562 72.3237479,7.07181047 C72.3237479,8.3286464 72.9145682,9.04837298 73.8222831,9.04837298 Z M79.3565822,9.07522848 C80.1676174,9.07522848 80.8014065,8.51663469 80.8014065,7.78079484 L80.8014065,7.33499406 L79.4102932,7.42093156 C78.7174221,7.4692714 78.3253322,7.77542375 78.3253322,8.25882219 C78.3253322,8.75296281 78.7335354,9.07522848 79.3565822,9.07522848 Z M79.0343166,9.99368548 C77.9278713,9.99368548 77.1544338,9.30618548 77.1544338,8.29104875 C77.1544338,7.3027675 77.911758,6.6958339 79.2545315,6.62063859 L80.8014065,6.52933 L80.8014065,6.0942714 C80.8014065,5.46585344 80.37709,5.08987687 79.6681057,5.08987687 C78.996719,5.08987687 78.5777736,5.4121425 78.4757229,5.91702531 L77.3800197,5.91702531 C77.4444729,4.8965175 78.31459,4.14456437 79.7110744,4.14456437 C81.0807033,4.14456437 81.9561916,4.86966203 81.9561916,6.00296281 L81.9561916,9.89700578 L80.8443752,9.89700578 L80.8443752,8.96780658 L80.8175197,8.96780658 C80.489883,9.59622458 79.7755275,9.99368548 79.0343166,9.99368548 Z M85.1809205,9.99368548 C83.7522095,9.99368548 82.806897,8.85501359 82.806897,7.07181047 C82.806897,5.28860734 83.7522095,4.15530656 85.1701783,4.15530656 C85.9812134,4.15530656 86.6257447,4.56350969 86.9426392,5.18655656 L86.9641236,5.18655656 L86.9641236,2.1465175 L88.1296509,2.1465175 L88.1296509,9.89700578 L87.0017213,9.89700578 L87.0017213,8.93557998 L86.9802369,8.93557998 C86.6472291,9.58011128 86.0026978,9.99368548 85.1809205,9.99368548 Z M85.4870728,5.13284562 C84.5686158,5.13284562 83.9939088,5.88479875 83.9939088,7.07181047 C83.9939088,8.26419328 84.5686158,9.01077528 85.4870728,9.01077528 C86.3786744,9.01077528 86.9748658,8.25345109 86.9748658,7.07181047 C86.9748658,5.90091203 86.3786744,5.13284562 85.4870728,5.13284562 Z M93.9345774,10.0044277 C92.3178782,10.0044277 91.2544016,8.89261125 91.2544016,7.07181047 C91.2544016,5.25638078 92.3232493,4.14456437 93.9345774,4.14456437 C95.5459055,4.14456437 96.6147532,5.25638078 96.6147532,7.07181047 C96.6147532,8.89261125 95.5512766,10.0044277 93.9345774,10.0044277 Z M93.9345774,9.04837298 C94.8476634,9.04837298 95.4331126,8.3286464 95.4331126,7.07181047 C95.4331126,5.82034562 94.8422923,5.10061906 93.9345774,5.10061906 C93.0268626,5.10061906 92.4360423,5.82034562 92.4360423,7.07181047 C92.4360423,8.3286464 93.0268626,9.04837298 93.9345774,9.04837298 Z M97.4923141,9.89700578 L97.4923141,4.24661516 L98.5987594,4.24661516 L98.5987594,5.19192766 L98.6256149,5.19192766 C98.9317672,4.5473964 99.5333297,4.14993547 100.403447,4.14993547 C101.649541,4.14993547 102.363896,4.94485734 102.363896,6.23929094 L102.363896,9.89700578 L101.198369,9.89700578 L101.198369,6.46487687 C101.198369,5.61624406 100.800908,5.1489589 99.9952438,5.1489589 C99.1788375,5.1489589 98.6524703,5.72903703 98.6524703,6.60452531 L98.6524703,9.89700578 L97.4923141,9.89700578 Z M106.009643,2.90921281 L107.17517,2.90921281 L107.17517,4.24661516 L108.249389,4.24661516 L108.249389,5.16507219 L107.17517,5.16507219 L107.17517,8.28030656 C107.17517,8.76907609 107.390014,8.98929098 107.86267,8.98929098 C107.980834,8.98929098 108.168822,8.97854878 108.244018,8.96243548 L108.244018,9.88089248 C108.115112,9.91311908 107.857299,9.93460348 107.599487,9.93460348 C106.455444,9.93460348 106.009643,9.49954488 106.009643,8.40921281 L106.009643,5.16507219 L105.187865,5.16507219 L105.187865,4.24661516 L106.009643,4.24661516 L106.009643,2.90921281 Z M109.223629,9.89700578 L109.223629,2.1465175 L110.373044,2.1465175 L110.373044,5.19192766 L110.399899,5.19192766 C110.711422,4.53128312 111.329098,4.14993547 112.188473,4.14993547 C113.429196,4.14993547 114.170407,4.9770839 114.170407,6.25540422 L114.170407,9.89700578 L113.004879,9.89700578 L113.004879,6.48099016 C113.004879,5.64847062 112.585934,5.1489589 111.769528,5.1489589 C110.910153,5.1489589 110.383786,5.73977922 110.383786,6.63138078 L110.383786,9.89700578 L109.223629,9.89700578 Z M117.631464,5.07913469 C116.820429,5.07913469 116.251093,5.69681047 116.192011,6.55081437 L119.017206,6.55081437 C118.990351,5.68606828 118.442499,5.07913469 117.631464,5.07913469 Z M119.011835,8.23733781 L120.112909,8.23733781 C119.951776,9.26858778 118.974237,10.0044277 117.679804,10.0044277 C116.020136,10.0044277 115.015741,8.88186906 115.015741,7.09866594 C115.015741,5.326205 116.036249,4.14456437 117.631464,4.14456437 C119.199823,4.14456437 120.177362,5.25100969 120.177362,6.96438859 L120.177362,7.36184953 L116.18664,7.36184953 L116.18664,7.43167375 C116.18664,8.4145839 116.77746,9.06448628 117.706659,9.06448628 C118.367304,9.06448628 118.856073,8.73147844 119.011835,8.23733781 Z" id="Download-on-the"></path>
                        </g>
                    </g>
                </g>
            </g>
        </g>
    </g>
</svg>