<svg id="Layer_1" data-name="Layer 1" xmlns="http://www.w3.org/2000/svg" viewBox="0 0 135 40"><title>playstore-button</title><g id="Page-1"><g id="Desktop-HD-Copy-6"><g id="button-playstore-v2"><g id="Group-20"><path id="Combined-Shape" d="M7.04,4.5421l17.2179,9.7833-3.8356,4.04ZM32.0733,20.3054l-6.3317,3.5773-4.2162-4.3754,4.2086-4.3032,6.3393,3.6547C32.9135,19.3432,32.9135,19.821,32.0733,20.3054ZM3.7759,4.2609a1.6191,1.6191,0,0,1,.147-.75l15.411,15.9926L3.9229,35.4958a1.6193,1.6193,0,0,1-.147-.75ZM24.26,24.6832,7.0306,34.5409,20.4235,20.6424Z" style="fill:#fff"/><path d="M124.5462,35.232h-1.7655L124.9,30.5747l-3.755-8.6547h1.8591l2.7138,6.6371h.0373l2.64-6.6371h1.8586ZM116.59,21.92a3.7462,3.7462,0,0,1,4.0482,3.9134V31.35h-1.6341v-1.267H118.93a3.4217,3.4217,0,0,1-2.99,1.5654,3.12,3.12,0,0,1-3.3982-3.0565c0-2.0685,1.8568-3.1868,3.9925-3.1868a5.2143,5.2143,0,0,1,2.47.5594v-.261a2.4077,2.4077,0,0,0-4.55-.8947l-1.5595-.6707A3.758,3.758,0,0,1,116.59,21.92Zm-.3715,8.1626a2.8369,2.8369,0,0,0,2.7856-2.6653,3.5719,3.5719,0,0,0-2.1725-.5959c-1.8015,0-2.5071.9687-2.5071,1.8075C114.3249,29.598,115.3278,30.0826,116.2189,30.0826ZM110.012,18.336H111.53V31.648H110.012Zm-5.6352,0a3.9631,3.9631,0,1,1,0,7.92h-2.7941V31.648H99.8916V18.336Zm.0365,6.2843a2.3241,2.3241,0,1,0,0-4.6479h-2.8306V24.62ZM87.9927,27.1149,92.01,25.4531a1.7415,1.7415,0,0,0-1.6682-.9491A2.459,2.459,0,0,0,87.9927,27.1149Zm2.5025,4.6113a4.3886,4.3886,0,0,1-4.46-4.4757,4.2618,4.2618,0,0,1,4.2387-4.4761,4.1741,4.1741,0,0,1,3.8472,2.8483l.2043.5087-6.0091,2.4752a2.2863,2.2863,0,0,0,2.179,1.3565,2.5692,2.5692,0,0,0,2.213-1.2378l1.532,1.0174A4.4749,4.4749,0,0,1,90.4952,31.7262Zm-7.3883-.2713V18.2988h1.9747V31.4549ZM77.472,35.744a4.2825,4.2825,0,0,1-3.9838-2.6448l1.72-.7117A2.4859,2.4859,0,0,0,77.472,33.981c1.4809,0,2.4-.9157,2.4-2.6279v-.6443h-.0681a3.07,3.07,0,0,1-2.3662,1.0174,4.4792,4.4792,0,0,1,0-8.9518,3.12,3.12,0,0,1,2.3662,1h.0681v-.7292h1.8725v8.0361C81.7448,34.3879,79.7872,35.744,77.472,35.744Zm.1362-5.7809a2.5054,2.5054,0,0,0,2.4-2.6956,2.5261,2.5261,0,0,0-2.4-2.73,2.7214,2.7214,0,0,0,0,5.4252Zm-9.8056,1.7631a4.476,4.476,0,1,1,4.5112-4.4757A4.4312,4.4312,0,0,1,67.8026,31.7262Zm0-1.7631a2.7187,2.7187,0,1,0-2.5365-2.7126A2.5943,2.5943,0,0,0,67.8026,29.9631Zm-9.84,1.7631a4.476,4.476,0,1,1,4.5112-4.4757A4.4316,4.4316,0,0,1,57.963,31.7262Zm0-1.7631a2.7187,2.7187,0,1,0-2.5365-2.7126A2.5942,2.5942,0,0,0,57.963,29.9631ZM46.25,31.7262a6.9523,6.9523,0,1,1,0-13.9022A6.6638,6.6638,0,0,1,51.034,19.74l-1.3446,1.3391a4.8726,4.8726,0,0,0-3.439-1.3561,5.0524,5.0524,0,0,0,0,10.1044,4.68,4.68,0,0,0,3.5241-1.39,3.9533,3.9533,0,0,0,1.0382-2.39H46.25V24.1479h6.4182a6.1685,6.1685,0,0,1,.1022,1.1865,6.2593,6.2593,0,0,1-1.6516,4.4422A6.3945,6.3945,0,0,1,46.25,31.7262Z" style="fill:#fff"/><path id="GET-IT-ON" d="M43.7466,10.8216a1.9841,1.9841,0,0,1-.253.266,1.8389,1.8389,0,0,1-.4171.272,2.9383,2.9383,0,0,1-.6127.212,3.628,3.628,0,0,1-.84.086,2.5681,2.5681,0,0,1-.9943-.188,2.1549,2.1549,0,0,1-.7768-.544,2.4911,2.4911,0,0,1-.504-.876,3.6234,3.6234,0,0,1-.18-1.188v-.384a3.9954,3.9954,0,0,1,.1621-1.186,2.4894,2.4894,0,0,1,.4665-.882,1.98,1.98,0,0,1,.7432-.548,2.5081,2.5081,0,0,1,.9962-.188,2.7589,2.7589,0,0,1,.9172.138,1.8829,1.8829,0,0,1,.66.386,1.8,1.8,0,0,1,.423.59,2.6078,2.6078,0,0,1,.2056.75h-.98a1.72,1.72,0,0,0-.1186-.42.992.992,0,0,0-.5831-.552,1.4259,1.4259,0,0,0-.504-.08,1.3287,1.3287,0,0,0-.6108.132,1.1423,1.1423,0,0,0-.4309.386,1.8368,1.8368,0,0,0-.257.624,3.7753,3.7753,0,0,0-.085.842v.392a3.1858,3.1858,0,0,0,.1028.85,1.8209,1.8209,0,0,0,.2945.622,1.273,1.273,0,0,0,.4665.384,1.42,1.42,0,0,0,.6227.132,2.4594,2.4594,0,0,0,.4408-.034,1.5822,1.5822,0,0,0,.31-.086.9159.9159,0,0,0,.2075-.114,1.027,1.027,0,0,0,.1325-.118v-1.14h-1.186V8.59h2.1822ZM48.21,8.9776H45.8458V10.77h2.7634v.808H44.8456V5.7536h3.7359V6.57H45.8458v1.608H48.21ZM53.5825,6.57H51.7876v5.008h-.9922V6.57h-1.779v-.816h4.5661Zm3.8268,5.008H56.413V5.7536h.9963ZM62.7976,6.57H61.0028v5.008h-.9923V6.57H58.2316v-.816h4.566Zm7.365,2.248a3.8226,3.8226,0,0,1-.1719,1.19,2.602,2.602,0,0,1-.4843.892,2.1036,2.1036,0,0,1-.7511.562,2.501,2.501,0,0,1-1.9411,0,2.16,2.16,0,0,1-.7571-.562,2.5967,2.5967,0,0,1-.4941-.892,3.7413,3.7413,0,0,1-.176-1.19v-.296a3.76,3.76,0,0,1,.176-1.192,2.6535,2.6535,0,0,1,.49-.896,2.1113,2.1113,0,0,1,.7531-.564,2.5057,2.5057,0,0,1,1.943,0,2.1071,2.1071,0,0,1,.7551.564,2.6031,2.6031,0,0,1,.4863.896,3.8416,3.8416,0,0,1,.1719,1.192Zm-1-.304a3.5958,3.5958,0,0,0-.0929-.862,1.8509,1.8509,0,0,0-.2708-.626,1.1782,1.1782,0,0,0-.4369-.382,1.29,1.29,0,0,0-.587-.13,1.26,1.26,0,0,0-.5772.13,1.1987,1.1987,0,0,0-.4369.382,1.8809,1.8809,0,0,0-.2767.626,3.4523,3.4523,0,0,0-.0969.862v.304a3.4769,3.4769,0,0,0,.0969.864,1.8779,1.8779,0,0,0,.2787.63,1.2037,1.2037,0,0,0,.4408.384,1.2722,1.2722,0,0,0,.5792.13,1.172,1.172,0,0,0,1.0219-.512,2.6048,2.6048,0,0,0,.3578-1.496Zm6.5625,3.064h-1l-2.5657-4.132v4.132h-1V5.7536h1l2.5736,4.148V5.7536h.9923Z" style="fill:#fff"/></g></g></g></g></svg>