<?xml version="1.0" encoding="UTF-8"?>
<svg width="135px" height="40px" viewBox="0 0 135 40" version="1.1" xmlns="http://www.w3.org/2000/svg" xmlns:xlink="http://www.w3.org/1999/xlink">
    <!-- Generator: Sketch 60 (88103) - https://sketch.com -->
    <title>button-playstore-v2</title>
    <desc>Created with Sketch.</desc>
    <g id="Page-1" stroke="none" stroke-width="1" fill="none" fill-rule="evenodd">
        <g id="Desktop-HD-Copy-6" transform="translate(-371.000000, -2365.000000)" fill-rule="nonzero">
            <g id="Group-15" transform="translate(313.000000, 2082.000000)">
                <g id="Group-10-Copy" transform="translate(42.000000, 278.000000)">
                    <g id="button-playstore-v2" transform="translate(16.000000, 5.000000)">
                        <rect id="Rectangle-5" fill="#4082FF" x="0" y="0" width="135" height="40"></rect>
                        <g id="Group-20" transform="translate(3.775862, 3.510526)" fill="#FFFFFF">
                            <path d="M3.26409313,1.03159256 L20.4820511,10.8148689 L16.6463985,14.8547026 L3.26409313,1.03159256 Z M28.2974282,16.7948935 L21.9657888,20.3721996 L17.7495396,15.9968134 L21.9581686,11.6935626 L28.2974282,15.3482998 C29.1376558,15.8327113 29.1376558,16.3104819 28.2974282,16.7948935 Z M-1.4033219e-12,0.750330826 C-1.4033219e-12,0.426023203 0.053040971,0.17844293 0.14707793,-4.56523708e-13 L15.558032,15.992621 L0.14707793,31.985242 C0.053040971,31.8067991 -1.4033219e-12,31.5592188 -1.4033219e-12,31.2349112 L-1.4033219e-12,0.750330826 Z M20.4842152,21.1726524 L3.25471909,31.0303378 L16.647674,17.1318827 L20.4842152,21.1726524 Z" id="Combined-Shape"></path>
                            <path d="M120.770388,31.7214745 L119.004795,31.7214745 L121.123763,27.0641668 L117.368716,18.4094745 L119.227799,18.4094745 L121.941588,25.0465512 L121.978899,25.0465512 L124.618496,18.4094745 L126.47715,18.4094745 L120.770388,31.7214745 Z M112.814499,18.4094745 C115.042741,18.4094745 116.862692,19.7513417 116.862692,22.3228598 L116.862692,27.8390907 L115.228677,27.8390907 L115.228677,26.5720344 L115.154131,26.5720344 C114.652873,27.3360517 113.724475,28.1374745 112.164578,28.1374745 C110.307353,28.1374745 108.766307,26.9822046 108.766307,25.0809753 C108.766307,23.0124962 110.623103,21.8942018 112.758804,21.8942018 C113.98453,21.8942018 114.875655,22.2484788 115.228677,22.453564 L115.228677,22.1925856 C115.228677,20.8133129 114.133193,19.9749146 112.851772,19.9749146 C111.904524,19.9749146 110.994548,20.4405481 110.678798,21.2978641 L109.119329,20.6271455 C109.43465,19.7887472 110.530563,18.4094745 112.814499,18.4094745 Z M112.443055,26.5720344 C113.798593,26.5720344 115.228677,25.3978468 115.228677,23.9067877 C115.228677,23.9067877 114.50421,23.31088 113.056131,23.31088 C111.254602,23.31088 110.548985,24.2795525 110.548985,25.1183807 C110.548985,26.0874832 111.551929,26.5720344 112.443055,26.5720344 Z M106.236186,14.8254745 L107.754258,14.8254745 L107.754258,28.1374745 L106.236186,28.1374745 L106.236186,14.8254745 Z M100.60095,14.8254745 C102.787809,14.8254745 104.718114,16.4618618 104.718114,18.785832 C104.718114,21.1098023 102.787809,22.7457606 100.60095,22.7457606 L97.8068414,22.7457606 L97.8068414,28.1374745 L96.1157042,28.1374745 L96.1157042,14.8254745 L100.60095,14.8254745 Z M100.637418,21.1098023 C102.144515,21.1098023 102.990084,19.8453017 102.990084,18.785832 C102.990084,17.7259335 102.144515,16.4618618 100.637418,16.4618618 L97.8068414,16.4618618 L97.8068414,21.1098023 L100.637418,21.1098023 Z M84.216843,23.6043372 L88.2342553,21.9426052 C88.0129102,21.3834662 87.3493008,20.9934679 86.56608,20.9934679 C85.5615141,20.9934679 84.1657634,21.8747794 84.216843,23.6043372 Z M86.7193188,28.2156437 C84.1657634,28.2156437 82.2592166,26.2491195 82.2592166,23.7399888 C82.2592166,21.0782501 84.18279,19.26391 86.4979738,19.26391 C88.8301842,19.26391 89.9705367,21.112163 90.3451206,22.1121696 L90.5494391,22.6208631 L84.5403473,25.0960809 C84.9996382,25.9947727 85.7147529,26.4525969 86.7193188,26.4525969 C87.7234591,26.4525969 88.4215472,25.9608598 88.9323434,25.214776 L90.4643064,26.232163 C89.9705367,26.9608665 88.7791046,28.2156437 86.7193188,28.2156437 Z M79.3310773,27.9443405 L79.3310773,14.7882551 L81.3057303,14.7882551 L81.3057303,27.9443405 L79.3310773,27.9443405 Z M73.6961437,32.2334745 C71.5171722,32.2334745 70.2061286,30.7756437 69.7123589,29.5886923 L71.4320395,28.8769453 C71.7385172,29.6056487 72.4872593,30.4704276 73.6961437,30.4704276 C75.177027,30.4704276 76.0964602,29.5547794 76.0964602,27.8426018 L76.0964602,27.1982567 L76.0283541,27.1982567 C75.585664,27.7408631 74.734337,28.2156437 73.6620906,28.2156437 C71.4150129,28.2156437 69.3552272,26.2660759 69.3552272,23.7569453 C69.3552272,21.2308582 71.4150129,19.26391 73.6620906,19.26391 C74.734337,19.26391 75.585664,19.7386906 76.0283541,20.2643405 L76.0964602,20.2643405 L76.0964602,19.5352132 L77.968954,19.5352132 L77.968954,27.5712986 C77.968954,30.8773824 76.0113275,32.2334745 73.6961437,32.2334745 Z M73.832356,26.4525969 C75.177027,26.4525969 76.2326726,25.3165147 76.2326726,23.7569453 C76.2326726,22.1799954 75.177027,21.0273808 73.832356,21.0273808 C72.4702328,21.0273808 71.3298802,22.1799954 71.3298802,23.7569453 C71.3298802,25.3165147 72.4702328,26.4525969 73.832356,26.4525969 Z M64.0267714,28.2156437 C61.5413221,28.2156437 59.5155895,26.3169453 59.5155895,23.7399888 C59.5155895,21.1460759 61.5413221,19.26391 64.0267714,19.26391 C66.5122206,19.26391 68.5379533,21.1460759 68.5379533,23.7399888 C68.5379533,26.3169453 66.5122206,28.2156437 64.0267714,28.2156437 Z M64.0267714,26.4525969 C65.3884689,26.4525969 66.5633002,25.3334712 66.5633002,23.7399888 C66.5633002,22.1291261 65.3884689,21.0273808 64.0267714,21.0273808 C62.6646481,21.0273808 61.4902425,22.1291261 61.4902425,23.7399888 C61.4902425,25.3334712 62.6646481,26.4525969 64.0267714,26.4525969 Z M54.1871336,28.2156437 C51.7016844,28.2156437 49.6755261,26.3169453 49.6755261,23.7399888 C49.6755261,21.1460759 51.7016844,19.26391 54.1871336,19.26391 C56.6725829,19.26391 58.6983155,21.1460759 58.6983155,23.7399888 C58.6983155,26.3169453 56.6725829,28.2156437 54.1871336,28.2156437 Z M54.1871336,26.4525969 C55.5488312,26.4525969 56.7236625,25.3334712 56.7236625,23.7399888 C56.7236625,22.1291261 55.5488312,21.0273808 54.1871336,21.0273808 C52.8250104,21.0273808 51.6506048,22.1291261 51.6506048,23.7399888 C51.6506048,25.3334712 52.8250104,26.4525969 54.1871336,26.4525969 Z M42.4745764,28.2156437 C38.6274296,28.2156437 35.3928126,25.0960809 35.3928126,21.2647711 C35.3928126,17.4330373 38.6274296,14.3134745 42.4745764,14.3134745 C44.6024683,14.3134745 46.1178304,15.1443405 47.258183,16.2295533 L45.913512,17.5686889 C45.096238,16.8056487 43.9899385,16.2125969 42.4745764,16.2125969 C39.6656229,16.2125969 37.4696249,18.4673808 37.4696249,21.2647711 C37.4696249,24.0621614 39.6656229,26.3169453 42.4745764,26.3169453 C44.2959906,26.3169453 45.3346096,25.5878179 45.9986447,24.9265164 C46.5434939,24.38391 46.9006256,23.6043372 47.036838,22.5360809 L42.4745764,22.5360809 L42.4745764,20.6373824 L48.8927309,20.6373824 C48.960837,20.9765114 48.9948901,21.3834662 48.9948901,21.82391 C48.9948901,23.2482518 48.6032797,25.0112986 47.3433157,26.2660759 C46.1178304,27.5373857 44.5518144,28.2156437 42.4745764,28.2156437 Z" id="Combined-Shape"></path>
                            <path d="M39.9707493,7.31107555 C39.9101316,7.39107595 39.8257951,7.47974173 39.7177373,7.57707555 C39.6096795,7.67440937 39.4706561,7.76507513 39.3006627,7.84907555 C39.1306694,7.93307597 38.926417,8.00374193 38.6878992,8.06107555 C38.4493814,8.11840917 38.1693579,8.14707555 37.8478201,8.14707555 C37.486749,8.14707555 37.1553329,8.08440951 36.8535618,7.95907555 C36.5517908,7.83374159 36.2928513,7.65241007 36.0767358,7.41507555 C35.8606203,7.17774103 35.6926061,6.88574395 35.5726884,6.53907555 C35.4527706,6.19240715 35.3928126,5.79641111 35.3928126,5.35107555 L35.3928126,4.96707555 C35.3928126,4.52440667 35.4468407,4.12907729 35.5548984,3.78107555 C35.6629562,3.43307381 35.8184516,3.13907675 36.0213894,2.89907555 C36.2243272,2.65907435 36.4720657,2.47640951 36.7646123,2.35107555 C37.0571589,2.22574159 37.3892339,2.16307555 37.7608472,2.16307555 C38.1113761,2.16307555 38.4170959,2.20907509 38.6780159,2.30107555 C38.9389359,2.39307601 39.1590015,2.52174139 39.3382192,2.68707555 C39.517437,2.85240971 39.6584371,3.04907441 39.7612237,3.27707555 C39.8640104,3.50507669 39.9325338,3.75507419 39.966796,4.02707555 L38.9863743,4.02707555 C38.9626543,3.87507479 38.9231216,3.73507619 38.8677749,3.60707555 C38.8124283,3.47907491 38.7366572,3.36840935 38.6404594,3.27507555 C38.5442617,3.18174175 38.4256635,3.10840915 38.2846612,3.05507555 C38.143659,3.00174195 37.9756449,2.97507555 37.7806138,2.97507555 C37.5460494,2.97507555 37.3424558,3.01907511 37.1698269,3.10707555 C36.997198,3.19507599 36.8535624,3.32374137 36.7389158,3.49307555 C36.6242691,3.66240973 36.5386148,3.87040765 36.4819504,4.11707555 C36.425286,4.36374345 36.3969542,4.64440731 36.3969542,4.95907555 L36.3969542,5.35107555 C36.3969542,5.67107715 36.4312159,5.95440765 36.4997403,6.20107555 C36.5682647,6.44774345 36.6664377,6.65507471 36.7942621,6.82307555 C36.9220866,6.99107639 37.077582,7.11907511 37.2607531,7.20707555 C37.4439242,7.29507599 37.6514711,7.33907555 37.8833999,7.33907555 C38.054711,7.33907555 38.2016411,7.32774233 38.3241944,7.30507555 C38.4467477,7.28240877 38.5501917,7.25374239 38.6345295,7.21907555 C38.7188672,7.18440871 38.7880495,7.14640909 38.8420784,7.10507555 C38.8961073,7.06374201 38.9402522,7.02440907 38.9745144,6.98707555 L38.9745144,5.84707555 L37.7885204,5.84707555 L37.7885204,5.07907555 L39.9707493,5.07907555 L39.9707493,7.31107555 Z M44.43404,5.46707555 L42.0699587,5.46707555 L42.0699587,7.25907555 L44.8333246,7.25907555 L44.8333246,8.06707555 L41.0697704,8.06707555 L41.0697704,2.24307555 L44.8056515,2.24307555 L44.8056515,3.05907555 L42.0699587,3.05907555 L42.0699587,4.66707555 L44.43404,4.66707555 L44.43404,5.46707555 Z M49.8065927,3.05907555 L48.0117885,3.05907555 L48.0117885,8.06707555 L47.0195069,8.06707555 L47.0195069,3.05907555 L45.2405159,3.05907555 L45.2405159,2.24307555 L49.8065927,2.24307555 L49.8065927,3.05907555 Z M53.6333999,8.06707555 L52.637165,8.06707555 L52.637165,2.24307555 L53.6333999,2.24307555 L53.6333999,8.06707555 Z M59.0217659,3.05907555 L57.2269617,3.05907555 L57.2269617,8.06707555 L56.2346801,8.06707555 L56.2346801,3.05907555 L54.4556891,3.05907555 L54.4556891,2.24307555 L59.0217659,2.24307555 L59.0217659,3.05907555 Z M66.3867885,5.30707555 C66.3867885,5.74974443 66.329466,6.14640713 66.2148194,6.49707555 C66.1001727,6.84774397 65.9387474,7.14507433 65.7305385,7.38907555 C65.5223296,7.63307677 65.2719556,7.82040823 64.979409,7.95107555 C64.6868623,8.08174287 64.3626939,8.14707555 64.0068939,8.14707555 C63.6537295,8.14707555 63.3308788,8.08174287 63.0383322,7.95107555 C62.7457855,7.82040823 62.4934349,7.63307677 62.2812727,7.38907555 C62.0691105,7.14507433 61.9043907,6.84774397 61.7871085,6.49707555 C61.6698263,6.14640713 61.6111861,5.74974443 61.6111861,5.30707555 L61.6111861,5.01107555 C61.6111861,4.56840667 61.6698263,4.17107731 61.7871085,3.81907555 C61.9043907,3.46707379 62.0677927,3.16841011 62.2773194,2.92307555 C62.486846,2.67774099 62.7378789,2.48974287 63.0304256,2.35907555 C63.3229722,2.22840823 63.6458229,2.16307555 63.9989873,2.16307555 C64.3547873,2.16307555 64.6796146,2.22840823 64.973479,2.35907555 C65.2673434,2.48974287 65.5190352,2.67774099 65.7285618,2.92307555 C65.9380885,3.16841011 66.1001727,3.46707379 66.2148194,3.81907555 C66.329466,4.17107731 66.3867885,4.56840667 66.3867885,5.01107555 L66.3867885,5.30707555 Z M65.3866002,5.00307555 C65.3866002,4.67774059 65.3556329,4.39041013 65.2936974,4.14107555 C65.2317618,3.89174097 65.1414954,3.68307639 65.0228954,3.51507555 C64.9042954,3.34707471 64.7586832,3.21974265 64.5860543,3.13307555 C64.4134254,3.04640845 64.2177384,3.00307555 63.9989873,3.00307555 C63.7855073,3.00307555 63.5931147,3.04640845 63.4218036,3.13307555 C63.2504925,3.21974265 63.1048802,3.34707471 62.9849624,3.51507555 C62.8650447,3.68307639 62.7728016,3.89174097 62.7082305,4.14107555 C62.6436594,4.39041013 62.6113743,4.67774059 62.6113743,5.00307555 L62.6113743,5.30707555 C62.6113743,5.63241051 62.6436594,5.92040763 62.7082305,6.17107555 C62.7728016,6.42174347 62.8657036,6.63174137 62.9869391,6.80107555 C63.1081747,6.97040973 63.2551047,7.09840845 63.4277335,7.18507555 C63.6003624,7.27174265 63.7934139,7.31507555 64.0068939,7.31507555 C64.4496672,7.31507555 64.7903076,7.14441059 65.0288254,6.80307555 C65.2673432,6.46174051 65.3866002,5.96307883 65.3866002,5.30707555 L65.3866002,5.00307555 Z M71.9491002,8.06707555 L70.948912,8.06707555 L68.3832117,3.93507555 L68.3832117,8.06707555 L67.3830234,8.06707555 L67.3830234,2.24307555 L68.3832117,2.24307555 L70.9568186,6.39107555 L70.9568186,2.24307555 L71.9491002,2.24307555 L71.9491002,8.06707555 Z" id="GET-IT-ON"></path>
                        </g>
                    </g>
                </g>
            </g>
        </g>
    </g>
</svg>