<svg xmlns="http://www.w3.org/2000/svg" width="41" height="40"><path d="M.96 20c0-3.627.894-6.973 2.683-10.04S7.86 4.467 10.93 2.68 17.35 0 20.98 0s6.98.893 10.05 2.68 5.5 4.213 7.287 7.28S41 16.373 41 20s-.894 6.973-2.683 10.04-4.217 5.493-7.287 7.28S24.61 40 20.98 40s-6.98-.893-10.05-2.68-5.5-4.213-7.287-7.28S.96 23.627.96 20zm3.323 0c0 4.16 1.4 7.827 4.204 11 1.28-2.507 3.3-4.893 6.086-7.16s5.485-3.693 8.128-4.28a47.52 47.52 0 0 0-1.161-2.52c-4.59 1.467-9.556 2.2-14.895 2.2-1.04 0-1.815-.013-2.322-.04a4.95 4.95 0 0 1-.02.4 4.97 4.97 0 0 0-.02.4zm.52-4.12c.587.053 1.455.08 2.603.08 4.458 0 8.69-.6 12.692-1.8-2.03-3.6-4.258-6.6-6.687-9A16.25 16.25 0 0 0 7.988 9.6a17.07 17.07 0 0 0-3.183 6.28zm5.966 17.28c3.016 2.347 6.42 3.52 10.2 3.52 1.975 0 3.937-.373 5.886-1.12-.534-4.56-1.575-8.973-3.123-13.24-2.456.533-4.93 1.88-7.427 4.04s-4.344 4.427-5.545 6.8zm6.126-29.28c2.35 2.427 4.524 5.453 6.526 9.08 3.63-1.52 6.366-3.453 8.208-5.8-3.096-2.56-6.647-3.84-10.65-3.84-1.36 0-2.723.187-4.084.56zm7.968 11.92c.4.853.854 1.933 1.36 3.24 1.975-.187 4.124-.28 6.446-.28 1.655 0 3.297.04 4.925.12-.214-3.627-1.52-6.853-3.924-9.68-1.735 2.587-4.67 4.787-8.81 6.6zm2.362 6.04c1.36 3.947 2.282 8 2.763 12.16 2.11-1.36 3.83-3.107 5.165-5.24s2.135-4.44 2.402-6.92a78.58 78.58 0 0 0-5.325-.2c-1.468 0-3.136.067-5.005.2z" fill="#fff" fill-rule="nonzero"/></svg>