<svg xmlns="http://www.w3.org/2000/svg" width="40" height="40"><defs><radialGradient cx="50%" cy="50%" fx="50%" fy="50%" r="52.0889896%" gradientTransform="translate(0.500000,0.500000),scale(0.999017,1.000000),rotate(90.000000),translate(-0.500000,-0.500000)" id="A"><stop stop-color="#fff" stop-opacity=".01" offset="0%"/><stop stop-color="#fff" stop-opacity="0" offset="100%"/></radialGradient></defs><g fill-rule="evenodd"><path fill="url(#A)" d="M0 0h40.04v40H0z"/><path d="M12.592 36c15.11 0 23.373-12.312 23.373-23 0-.35 0-.698-.024-1.044 1.608-1.144 2.996-2.56 4.098-4.182a16.61 16.61 0 0 1-4.718 1.271c1.715-1 2.998-2.598 3.612-4.47a16.63 16.63 0 0 1-5.216 1.961c-2.546-2.663-6.593-3.315-9.87-1.6s-4.97 5.398-4.13 8.96c-6.605-.326-12.76-3.394-16.93-8.442C.606 9.166 1.72 13.89 5.33 16.26a8.26 8.26 0 0 1-3.728-1.011v.102c.001 3.846 2.758 7.16 6.6 7.92-1.21.324-2.478.372-3.71.14 1.076 3.29 4.16 5.546 7.675 5.61a16.66 16.66 0 0 1-10.202 3.466A17 17 0 0 1 0 32.371a23.54 23.54 0 0 0 12.592 3.623" fill="#fff"/></g></svg>