<svg xmlns="http://www.w3.org/2000/svg" xmlns:xlink="http://www.w3.org/1999/xlink" width="1777" height="645"><defs><linearGradient x1="9.62323472%" y1="43.5345782%" x2="90.5578043%" y2="51.2452069%" id="A"><stop stop-color="#4082ff" offset="0%"/><stop stop-color="#6040ff" offset="100%"/></linearGradient><path d="M1777 457v20L0 639v-20l1777-162zm0-457v441L0 603V0h1777z" id="B"/><linearGradient x1="-24.7599873%" y1="42.64435%" x2="137.421884%" y2="56.966351%" id="C"><stop stop-color="#4082ff" offset="0%"/><stop stop-color="#6040ff" offset="100%"/></linearGradient><linearGradient x1="2.272496%" y1="3.26423895%" x2="58.7311475%" y2="75.7376297%" id="D"><stop stop-color="#4082ff" offset="0%"/><stop stop-color="#6040ff" offset="100%"/></linearGradient><linearGradient x1="17.0509976%" y1="21.5941932%" x2="106.973213%" y2="90.777948%" id="E"><stop stop-color="#4082ff" offset="0%"/><stop stop-color="#6040ff" offset="100%"/></linearGradient></defs><g fill="none" fill-rule="evenodd"><path fill="#fff" d="M0 0h1777v645H0z"/><mask id="F" fill="#fff"><use xlink:href="#B"/></mask><use fill="url(#A)" xlink:href="#B"/><path d="M1362.667-18L676.333 668m0-686l686.333 686M720.353-18v686m168.98-686v686M1019.5-18v686m129.693-686v686m168.98-686v686m-298.9-44c165.083 0 298.9-133.762 298.9-298.765s-133.827-298.765-298.9-298.765-298.9 133.762-298.9 298.765S854.18 624 1019.263 624zm.237-115.437c101.43 0 183.653-82.184 183.653-183.564S1120.93 141.436 1019.5 141.436 835.847 223.62 835.847 325 918.07 508.564 1019.5 508.564zm-.237-53.46c71.758 0 129.93-58.143 129.93-129.867s-58.172-129.867-129.93-129.867-129.93 58.143-129.93 129.867 58.172 129.867 129.93 129.867zM-10-18l686.333 686m0-686L-10 668M34.02-18v686M203-18v686M333.167-18v686M462.86-18v686M631.84-18v686M-10 194.897h686.333M-10 26h2058.763M-10 194.897h2058.763M-10 325h2058.763M-10 455.103h2058.763M-10 624h2058.763M332.93 624c165.083 0 298.9-133.762 298.9-298.765S498.013 26.472 332.93 26.472 34.02 160.233 34.02 325.237 167.847 624 332.93 624zm.237-115.437c101.43 0 183.653-82.184 183.653-183.564s-82.224-183.564-183.653-183.564S149.513 223.62 149.513 325s82.224 183.564 183.653 183.564zm-.237-53.46c71.758 0 129.93-58.143 129.93-129.867S404.688 195.37 332.93 195.37 203 253.513 203 325.237s58.172 129.867 129.93 129.867zM1362.667-18L2049 668m0-686l-686.333 686m44.02-686v686m168.98-686v686m130.167-686v686m129.693-686v686m168.98-686v686m-298.9-44c165.083 0 298.9-133.762 298.9-298.765s-133.827-298.765-298.9-298.765-298.9 133.762-298.9 298.765S1540.513 624 1705.597 624zm.237-115.437c101.43 0 183.653-82.184 183.653-183.564s-82.224-183.564-183.653-183.564S1522.18 223.62 1522.18 325s82.224 183.564 183.653 183.564zm-.237-53.46c71.758 0 129.93-58.143 129.93-129.867s-58.172-129.867-129.93-129.867-129.93 58.143-129.93 129.867 58.172 129.867 129.93 129.867z" stroke="url(#C)" stroke-width="3.3" stroke-linecap="square" mask="url(#F)"/><path d="M1425.948 406.564l63.654 63.655-180.097 104.706a8 8 0 0 1-12.021-6.916v-32.976l128.464-128.47zm-128.464-128.467l125.638 125.64-125.638 125.64V278.097zm188.132 68.8l96.853 55.447a8 8 0 0 1 .046 13.859l-89.338 51.94-64.402-64.403 56.84-56.842zM1305.484 245a8 8 0 0 1 3.975 1.057l172.562 98.79-56.073 56.073-128.464-128.467V253a8 8 0 0 1 8-8z" fill="url(#D)" mask="url(#F)"/><path d="M904.244 137.47l.058.018-21.105 36.557c-7.704 13.344-24.767 17.917-38.1 10.212s-17.915-24.768-10.21-38.112l17.04-29.515c2.665-3.83 9.24-10.44 22.394-9.198 0 0 30.953 3.36 33.192 19.448.001 0 .306 5.294-3.257 10.59zm299.342-93.372h-65.813c-4.482-.3-6.44-1.9-7.207-2.83l-.05-.085-70.45-122.032-.09.06-4.226-6.06c-6.924-10.59-17.92 16.495-17.92 16.495-13.128 30.18 1.863 64.494 7.1 74.864l97.852 169.496c7.703 13.344 24.766 17.917 38.11 10.212s17.915-24.768 10.21-38.112l-24.47-42.384c-.473-1.026-1.3-3.815 3.72-3.826h33.244c15.408 0 27.898-12.49 27.898-27.9s-12.49-27.9-27.898-27.9zm-127.83 37.93s3.513 17.87-10.08 17.87H822.382c-15.408 0-27.898-12.49-27.898-27.9s12.49-27.9 27.898-27.9h62.548c10.098-.585 12.492-6.415 12.492-6.415l.055.028L979.1-103.72c1.49-2.732.25-5.313.034-5.722l-26.963-46.705c-7.704-13.344-3.132-30.408 10.21-38.112s30.405-3.132 38.11 10.212l12.505 21.662 12.483-21.623c7.703-13.344 24.766-17.917 38.11-10.212s17.915 24.768 10.21 38.112L960.186 40.688c-.497 1.198-.65 3.08 3.047 3.4l67.926.662s39.25.61 44.596 37.268z" fill="url(#E)" fill-rule="nonzero" mask="url(#F)"/></g></svg>