<?xml version="1.0" encoding="UTF-8"?>
<svg width="1777px" height="645px" viewBox="0 0 1777 645" version="1.1" xmlns="http://www.w3.org/2000/svg" xmlns:xlink="http://www.w3.org/1999/xlink">
    <!-- Generator: Sketch 61.2 (89653) - https://sketch.com -->
    <title>bg-hero</title>
    <desc>Created with Sketch.</desc>
    <defs>
        <linearGradient x1="9.62323472%" y1="43.5345782%" x2="90.5578043%" y2="51.2452069%" id="linearGradient-1">
            <stop stop-color="#4082FF" offset="0%"></stop>
            <stop stop-color="#6040FF" offset="100%"></stop>
        </linearGradient>
        <path d="M1777,457 L1777,477 L2.10564899e-11,639 L-2.55178101e-11,619 L1777,457 Z M1777,0 L1777,441 L-7.63975549e-11,603 L-7.63975549e-11,0 L1777,0 Z" id="path-2"></path>
        <linearGradient x1="-24.7599873%" y1="42.64435%" x2="137.421884%" y2="56.966351%" id="linearGradient-4">
            <stop stop-color="#4082FF" offset="0%"></stop>
            <stop stop-color="#6040FF" offset="100%"></stop>
        </linearGradient>
        <linearGradient x1="4.24780975%" y1="5.22109795%" x2="68.4389388%" y2="85.9390762%" id="linearGradient-5">
            <stop stop-color="#4082FF" offset="0%"></stop>
            <stop stop-color="#6040FF" offset="100%"></stop>
        </linearGradient>
        <linearGradient x1="17.0509976%" y1="21.5941932%" x2="106.973213%" y2="90.777948%" id="linearGradient-6">
            <stop stop-color="#4082FF" offset="0%"></stop>
            <stop stop-color="#6040FF" offset="100%"></stop>
        </linearGradient>
    </defs>
    <g id="Page-1" stroke="none" stroke-width="1" fill="none" fill-rule="evenodd">
        <g id="bg-hero">
            <rect id="Rectangle" fill="#FFFFFF" x="0" y="0" width="1777" height="645"></rect>
            <mask id="mask-3" fill="white">
                <use xlink:href="#path-2"></use>
            </mask>
            <use id="Combined-Shape" fill="url(#linearGradient-1)" xlink:href="#path-2"></use>
            <path d="M1362.66667,-18 L676.333333,668 M676.333333,-18 L1362.66667,668 M720.353333,-18 L720.353333,668 M889.333333,-18 L889.333333,668 M1019.5,-18 L1019.5,668 M1149.19333,-18 L1149.19333,668 M1318.17333,-18 L1318.17333,668 M1019.26333,624.001379 C1184.34677,624.001379 1318.17333,490.23981 1318.17333,325.236552 C1318.17333,160.233294 1184.34677,26.4717241 1019.26333,26.4717241 C854.179899,26.4717241 720.353333,160.233294 720.353333,325.236552 C720.353333,490.23981 854.179899,624.001379 1019.26333,624.001379 Z M1019.5,508.564138 C1120.92894,508.564138 1203.15333,426.379674 1203.15333,325 C1203.15333,223.620326 1120.92894,141.435862 1019.5,141.435862 C918.071065,141.435862 835.846667,223.620326 835.846667,325 C835.846667,426.379674 918.071065,508.564138 1019.5,508.564138 Z M1019.26333,455.103448 C1091.02169,455.103448 1149.19333,396.960058 1149.19333,325.236552 C1149.19333,253.513045 1091.02169,195.369655 1019.26333,195.369655 C947.504976,195.369655 889.333333,253.513045 889.333333,325.236552 C889.333333,396.960058 947.504976,455.103448 1019.26333,455.103448 Z M-10,-18 L676.333333,668 M676.333333,-18 L-10,668 M34.02,-18 L34.02,668 M203,-18 L203,668 M333.166667,-18 L333.166667,668 M462.86,-18 L462.86,668 M631.84,-18 L631.84,668 M-10,194.896552 L676.333333,194.896552 M-10,25.9986207 L2048.76333,25.9986207 M-10,194.896552 L2048.76333,194.896552 M-10,325 L2048.76333,325 M-10,455.103448 L2048.76333,455.103448 M-10,624.001379 L2048.76333,624.001379 M332.93,624.001379 C498.013435,624.001379 631.84,490.23981 631.84,325.236552 C631.84,160.233294 498.013435,26.4717241 332.93,26.4717241 C167.846565,26.4717241 34.02,160.233294 34.02,325.236552 C34.02,490.23981 167.846565,624.001379 332.93,624.001379 Z M333.166667,508.564138 C434.595602,508.564138 516.82,426.379674 516.82,325 C516.82,223.620326 434.595602,141.435862 333.166667,141.435862 C231.737731,141.435862 149.513333,223.620326 149.513333,325 C149.513333,426.379674 231.737731,508.564138 333.166667,508.564138 Z M332.93,455.103448 C404.688358,455.103448 462.86,396.960058 462.86,325.236552 C462.86,253.513045 404.688358,195.369655 332.93,195.369655 C261.171642,195.369655 203,253.513045 203,325.236552 C203,396.960058 261.171642,455.103448 332.93,455.103448 Z M1362.66667,-18 L2049,668 M2049,-18 L1362.66667,668 M1406.68667,-18 L1406.68667,668 M1575.66667,-18 L1575.66667,668 M1705.83333,-18 L1705.83333,668 M1835.52667,-18 L1835.52667,668 M2004.50667,-18 L2004.50667,668 M1705.59667,624.001379 C1870.6801,624.001379 2004.50667,490.23981 2004.50667,325.236552 C2004.50667,160.233294 1870.6801,26.4717241 1705.59667,26.4717241 C1540.51323,26.4717241 1406.68667,160.233294 1406.68667,325.236552 C1406.68667,490.23981 1540.51323,624.001379 1705.59667,624.001379 Z M1705.83333,508.564138 C1807.26227,508.564138 1889.48667,426.379674 1889.48667,325 C1889.48667,223.620326 1807.26227,141.435862 1705.83333,141.435862 C1604.4044,141.435862 1522.18,223.620326 1522.18,325 C1522.18,426.379674 1604.4044,508.564138 1705.83333,508.564138 Z M1705.59667,455.103448 C1777.35502,455.103448 1835.52667,396.960058 1835.52667,325.236552 C1835.52667,253.513045 1777.35502,195.369655 1705.59667,195.369655 C1633.83831,195.369655 1575.66667,253.513045 1575.66667,325.236552 C1575.66667,396.960058 1633.83831,455.103448 1705.59667,455.103448 Z" id="Combined-Shape" stroke="url(#linearGradient-4)" stroke-width="3.3" stroke-linecap="square" mask="url(#mask-3)"></path>
            <path d="M1405.94761,336.564254 L1469.60161,400.218843 L1289.50488,504.925124 C1285.68523,507.145808 1280.78857,505.849588 1278.56788,502.029935 C1277.85795,500.808824 1277.48398,499.421518 1277.48398,498.009031 L1277.48361,465.032843 L1405.94761,336.564254 Z M1277.48361,208.096843 L1403.12161,333.738254 L1277.48361,459.378843 L1277.48361,208.096843 Z M1465.61561,276.895843 L1562.46833,332.342876 C1566.30271,334.538028 1567.63157,339.425931 1565.43642,343.260314 C1564.73786,344.48051 1563.73007,345.495054 1562.51456,346.201731 L1473.17661,398.140843 L1408.77461,333.738254 L1465.61561,276.895843 Z M1285.48398,174.989843 C1286.87836,174.989843 1288.24854,175.354299 1289.45865,176.047079 L1462.02061,274.837843 L1405.94761,330.911254 L1277.48361,202.443843 L1277.48398,182.989843 C1277.48398,178.571565 1281.0657,174.989843 1285.48398,174.989843 Z" id="Combined-Shape" fill="url(#linearGradient-5)" mask="url(#mask-3)"></path>
            <path d="M904.243804,177.470089 L904.301839,177.488417 L883.196929,214.045417 C875.493426,227.389635 858.430258,231.961933 845.086886,224.25733 C831.744126,216.553949 827.172118,199.489698 834.875621,186.14548 L850.423135,159.21511 L851.914964,156.630821 C854.579728,152.799597 861.155502,146.190415 874.308882,147.432462 C874.308882,147.432462 905.26157,150.792038 907.501145,166.880612 C907.501756,166.880612 907.807208,172.175045 904.243804,177.470089 L904.243804,177.470089 Z M1203.58568,84.097828 L1137.77235,84.097828 C1133.29076,83.7978549 1131.33281,82.1971841 1130.56491,81.2667179 L1130.51603,81.1817968 L1060.06472,-40.8504136 L1059.97369,-40.7893193 L1055.74807,-46.8480416 C1048.82408,-57.4375176 1037.82841,-30.352579 1037.82841,-30.352579 C1024.70008,-0.172602845 1039.69106,34.1410141 1044.91857,44.5117725 L1142.77077,214.007538 C1150.47367,227.351756 1167.53683,231.924054 1180.88021,224.219451 C1194.22297,216.51607 1198.79497,199.45182 1191.09147,186.107601 L1166.62231,143.724038 C1166.14886,142.697653 1165.32353,139.908698 1170.3415,139.897701 L1203.58568,139.897701 C1218.9933,139.897701 1231.48385,127.40636 1231.48385,111.997765 C1231.48385,96.5891698 1218.9933,84.097828 1203.58568,84.097828 Z M1075.75518,122.027006 C1075.75518,122.027006 1079.26788,139.897701 1065.67526,139.897701 L1052.08264,139.897701 L1052.08264,139.897701 L822.382017,139.897701 C806.9744,139.897701 794.483851,127.40636 794.483851,111.997765 C794.483851,96.5891698 806.9744,84.097828 822.382017,84.097828 L884.930064,84.097828 C895.028312,83.5125445 897.422446,77.6829259 897.422446,77.6829259 L897.477428,77.7110292 L979.123564,-63.7137357 L979.099128,-63.7186232 C980.587902,-66.4507606 979.348377,-69.031995 979.132728,-69.4407159 L952.169245,-116.14548 C944.465131,-129.489698 949.037139,-146.553338 962.380511,-154.25733 C975.723882,-161.961933 992.785828,-157.389635 1000.48994,-144.045417 L1012.99515,-122.38382 L1025.47837,-144.006927 C1033.18187,-157.351145 1050.24443,-161.923443 1063.5878,-154.21884 C1076.93117,-146.514238 1081.50318,-129.450598 1073.79907,-116.106991 L960.186142,80.6881548 C959.689477,81.8862141 959.537362,83.7666968 963.233333,84.097828 C1008.51722,84.5389289 1031.15917,84.7594793 1031.15917,84.7594793 C1031.15917,84.7594793 1070.40977,85.3704224 1075.75518,122.027006 Z" id="Shape-Copy" fill="url(#linearGradient-6)" fill-rule="nonzero" mask="url(#mask-3)"></path>
        </g>
    </g>
</svg>