<?xml version="1.0" encoding="UTF-8"?>
<svg width="320px" height="400px" viewBox="0 0 320 400" version="1.1" xmlns="http://www.w3.org/2000/svg" xmlns:xlink="http://www.w3.org/1999/xlink">
    <!-- Generator: Sketch 61.2 (89653) - https://sketch.com -->
    <title>bg-hero-small</title>
    <desc>Created with Sketch.</desc>
    <defs>
        <linearGradient x1="12.6004383%" y1="0%" x2="87.3995617%" y2="87.2859753%" id="linearGradient-1">
            <stop stop-color="#4082FF" offset="0%"></stop>
            <stop stop-color="#6040FF" offset="100%"></stop>
        </linearGradient>
        <path d="M320,324 L8.00355338e-11,370 L7.63975549e-11,358 L320,312 L320,324 Z M7.82165444e-11,0 L320,0 L320,302 L7.63975549e-11,350 L7.82165444e-11,0 Z" id="path-2"></path>
        <linearGradient x1="44.33793%" y1="13.7736582%" x2="113.103611%" y2="34.9281907%" id="linearGradient-4">
            <stop stop-color="#4082FF" offset="0%"></stop>
            <stop stop-color="#6040FF" offset="100%"></stop>
        </linearGradient>
        <linearGradient x1="46.0616876%" y1="44.9811724%" x2="114.11826%" y2="96.1619753%" id="linearGradient-5">
            <stop stop-color="#4082FF" offset="0%"></stop>
            <stop stop-color="#6040FF" offset="100%"></stop>
        </linearGradient>
        <linearGradient x1="-2.09389825%" y1="-8.64345979%" x2="50%" y2="67.2493907%" id="linearGradient-6">
            <stop stop-color="#4082FF" offset="0%"></stop>
            <stop stop-color="#6040FF" offset="100%"></stop>
        </linearGradient>
    </defs>
    <g id="Page-1" stroke="none" stroke-width="1" fill="none" fill-rule="evenodd">
        <g id="bg-hero-small">
            <rect id="Rectangle" fill="#FFFFFF" x="0" y="0" width="320" height="400"></rect>
            <mask id="mask-3" fill="white">
                <use xlink:href="#path-2"></use>
            </mask>
            <use id="Combined-Shape" fill="url(#linearGradient-1)" xlink:href="#path-2"></use>
            <path d="M334.259259,-21.3333333 L-275.814815,588.444444 M-275.814815,-21.3333333 L334.259259,588.444444 M-236.685926,-21.3333333 L-236.685926,588.444444 M-86.4814815,-21.3333333 L-86.4814815,588.444444 M29.2222222,-21.3333333 L29.2222222,588.444444 M144.505185,-21.3333333 L144.505185,588.444444 M294.70963,-21.3333333 L294.70963,588.444444 M29.0118519,549.334559 C175.752683,549.334559 294.70963,430.435386 294.70963,283.765824 C294.70963,137.096261 175.752683,18.1970881 29.0118519,18.1970881 C-117.728979,18.1970881 -236.685926,137.096261 -236.685926,283.765824 C-236.685926,430.435386 -117.728979,549.334559 29.0118519,549.334559 Z M29.2222222,446.723678 C119.381276,446.723678 192.46963,373.670821 192.46963,283.555556 C192.46963,193.44029 119.381276,120.387433 29.2222222,120.387433 C-60.9368313,120.387433 -134.025185,193.44029 -134.025185,283.555556 C-134.025185,373.670821 -60.9368313,446.723678 29.2222222,446.723678 Z M29.0118519,399.203065 C92.7970586,399.203065 144.505185,347.520052 144.505185,283.765824 C144.505185,220.011596 92.7970586,168.328582 29.0118519,168.328582 C-34.7733549,168.328582 -86.4814815,220.011596 -86.4814815,283.765824 C-86.4814815,347.520052 -34.7733549,399.203065 29.0118519,399.203065 Z M-275.814815,17.7765517 L334.259259,17.7765517 M-275.814815,167.908046 L334.259259,167.908046 M-275.814815,283.555556 L334.259259,283.555556 M-275.814815,399.203065 L334.259259,399.203065 M-275.814815,549.334559 L334.259259,549.334559" id="Combined-Shape" stroke="url(#linearGradient-4)" stroke-width="3.09375" stroke-linecap="square" mask="url(#mask-3)"></path>
            <path d="M-53.0915713,132.54989 L-53.0450895,132.564562 L-69.9483359,161.829103 C-76.1181897,172.511392 -89.7843424,176.171599 -100.471253,170.003925 C-111.157675,163.837228 -114.819466,150.176986 -108.649612,139.494698 L-96.1973696,117.936448 L-95.0025415,115.867678 C-92.8682907,112.800714 -87.6016527,107.509943 -77.0669087,108.504225 C-77.0669087,108.504225 -52.2764265,111.193626 -50.4827164,124.072822 C-50.4822272,124.072822 -50.2375859,128.311111 -53.0915713,132.54989 L-53.0915713,132.54989 Z M186.655931,57.8037017 L133.945026,57.8037017 C130.355648,57.5635678 128.787498,56.2822018 128.172469,55.5373467 L128.133327,55.4693658 L71.7077878,-42.2196316 L71.6348847,-42.1707245 L68.2505169,-47.0208416 C62.7049877,-55.4979092 53.89839,-33.8159246 53.89839,-33.8159246 C43.3837066,-9.65630642 55.3902127,17.8123662 59.577004,26.1143464 L137.948336,161.798781 C144.1177,172.481069 157.783853,176.141277 168.470764,169.973602 C179.157186,163.806906 182.818977,150.146664 176.649123,139.464375 L157.051397,105.535564 C156.672203,104.713925 156.011182,102.481315 160.03015,102.472512 L186.655931,102.472512 C198.996128,102.472512 209,92.4729666 209,80.1381069 C209,67.8032473 198.996128,57.8037017 186.655931,57.8037017 Z M84.2745225,88.1666964 C84.2745225,88.1666964 87.0878975,102.472512 76.2013594,102.472512 L65.3148212,102.472512 L65.3148212,102.472512 L-118.655931,102.472512 C-130.996128,102.472512 -141,92.4729666 -141,80.1381069 C-141,67.8032473 -130.996128,57.8037017 -118.655931,57.8037017 L-68.5602412,57.8037017 C-60.4723996,57.3351717 -58.554901,52.6684562 -58.554901,52.6684562 L-58.5108656,52.6909535 L6.8807772,-60.5221356 L6.8612059,-60.5260481 C8.05358763,-62.7131736 7.06083321,-64.7794986 6.88811644,-65.1066871 L-14.7073503,-102.494698 C-20.8776933,-113.176986 -17.2159022,-126.836739 -6.52899139,-133.003925 C4.15791946,-139.171599 17.8230936,-135.511392 23.9934366,-124.829103 L34.0090517,-107.488602 L44.0070527,-124.798291 C50.1769064,-135.48058 63.8425698,-139.140788 74.5294807,-132.973113 C85.2163915,-126.805439 88.8781826,-113.145686 82.7078396,-102.463886 L-8.28649454,55.0741964 C-8.68428131,56.0332647 -8.80611268,57.5386252 -5.84595286,57.8037017 C30.4226102,58.1568109 48.5568917,58.3333656 48.5568917,58.3333656 C48.5568917,58.3333656 79.9932996,58.8224366 84.2745225,88.1666964 Z" id="Shape-Copy" fill="url(#linearGradient-5)" fill-rule="nonzero" mask="url(#mask-3)"></path>
            <path d="M362.731095,245.168448 L419.312984,301.750382 L259.810909,394.482601 C256.229985,396.564492 251.639366,395.349286 249.557475,391.768362 C248.891912,390.62357 248.541311,389.322971 248.541311,387.998764 L248.540984,359.362382 L362.731095,245.168448 Z M248.540984,130.974382 L360.219095,242.655448 L248.540984,354.337382 L248.540984,130.974382 Z M415.769984,192.129382 L501.27575,241.08099 C504.870483,243.138945 506.116288,247.721355 504.058332,251.316088 C503.403439,252.460022 502.458629,253.411157 501.319089,254.073667 L422.489984,299.903382 L365.244095,242.656448 L415.769984,192.129382 Z M256.041311,101.828382 C257.348551,101.828382 258.633088,102.17006 259.767569,102.819542 L412.573984,190.300382 L362.731095,240.143448 L248.540984,125.949382 L248.541311,109.328382 C248.541311,105.186246 251.899176,101.828382 256.041311,101.828382 Z" id="Combined-Shape" fill="url(#linearGradient-6)" mask="url(#mask-3)"></path>
        </g>
    </g>
</svg>