<svg xmlns="http://www.w3.org/2000/svg" xmlns:xlink="http://www.w3.org/1999/xlink" width="320" height="400"><defs><linearGradient x1="16.6805498%" y1="0%" x2="83.3194502%" y2="87.2859753%" id="A"><stop stop-color="#4082ff" offset="0%"/><stop stop-color="#6040ff" offset="100%"/></linearGradient><path id="B" d="M276 136h320v392H276z"/><linearGradient x1="44.33793%" y1="13.7736582%" x2="113.103611%" y2="34.9281907%" id="C"><stop stop-color="#4082ff" offset="0%"/><stop stop-color="#6040ff" offset="100%"/></linearGradient><linearGradient x1="46.0616876%" y1="44.9811724%" x2="114.11826%" y2="96.1619753%" id="D"><stop stop-color="#4082ff" offset="0%"/><stop stop-color="#6040ff" offset="100%"/></linearGradient><linearGradient x1="-2.09389825%" y1="-8.64345979%" x2="50%" y2="67.2493907%" id="E"><stop stop-color="#4082ff" offset="0%"/><stop stop-color="#6040ff" offset="100%"/></linearGradient></defs><g transform="translate(-276 -136)" fill="none" fill-rule="evenodd"><path fill="#fff" d="M276 136h320v400H276z"/><mask id="F" fill="#fff"><use xlink:href="#B"/></mask><use fill="url(#A)" xlink:href="#B"/><path d="M610.26 114.667L.185 724.444m0-609.778L610.26 724.444M39.314 114.667v609.778M189.52 114.667v609.778m115.704-609.778v609.778m115.283-609.778v609.778M570.7 114.667v609.778m-265.698-39.1c146.74 0 265.698-118.9 265.698-265.57s-118.957-265.57-265.698-265.57-265.698 118.9-265.698 265.57 118.957 265.57 265.698 265.57zm.2-102.61c90.16 0 163.247-73.053 163.247-163.168S395.38 256.387 305.222 256.387 141.975 329.44 141.975 419.556s73.088 163.168 163.247 163.168zm-.2-47.52c63.785 0 115.493-51.683 115.493-115.437S368.797 304.33 305.012 304.33 189.52 356.012 189.52 419.766s51.708 115.437 115.493 115.437zM.185 153.777H610.26M.185 303.908H610.26M.185 419.556H610.26M.185 535.203H610.26M.185 685.335H610.26" stroke="url(#C)" stroke-width="3.094" stroke-linecap="square" mask="url(#F)"/><path d="M222.908 268.55l.046.015-16.903 29.265c-6.17 10.682-19.836 14.342-30.523 8.175s-14.348-19.827-8.178-30.51l13.647-23.627c2.134-3.067 7.4-8.358 17.936-7.363 0 0 24.8 2.69 26.584 15.57 0 0 .245 4.238-2.61 8.477zm239.748-74.746h-52.71c-3.59-.24-5.158-1.52-5.773-2.266l-.04-.068-56.498-97.64-3.384-4.85c-5.546-8.477-14.352 13.205-14.352 13.205-10.515 24.16 1.492 51.628 5.68 59.93l78.37 135.684c6.17 10.682 19.836 14.342 30.522 8.175s14.348-19.827 8.178-30.51l-19.598-33.93c-.38-.822-1.04-3.054 2.98-3.063h26.626c12.34 0 22.344-10 22.344-22.334s-10.004-22.334-22.344-22.334zm-102.38 30.363s2.813 14.306-8.073 14.306H157.344c-12.34 0-22.344-10-22.344-22.334s10.004-22.334 22.344-22.334h50.096c8.088-.47 10.005-5.135 10.005-5.135l.044.022L282.86 75.474c1.192-2.187.2-4.253.027-4.58l-21.595-37.388c-6.17-10.682-2.51-24.342 8.178-30.51S293.823.49 299.993 11.17l10.016 17.34 9.998-17.3C326.177.52 339.843-3.14 350.53 3.027s14.35 19.827 8.178 30.51l-90.994 157.538c-.398.96-.52 2.464 2.44 2.73l54.403.53s31.436.49 35.718 29.833z" fill="url(#D)" fill-rule="nonzero" mask="url(#F)"/><path d="M638.73 381.168l56.582 56.582-159.502 92.732a7.5 7.5 0 0 1-11.27-6.484v-28.636l114.2-114.194zm-114.2-114.194l111.678 111.68L524.54 490.337V266.974zm167.23 61.155l85.506 48.952a7.5 7.5 0 0 1 .043 12.993l-78.83 45.83-57.246-57.247 50.526-50.527zm-159.73-90.3a7.5 7.5 0 0 1 3.726.991l152.806 87.48-49.843 49.843-114.2-114.194v-16.62a7.5 7.5 0 0 1 7.5-7.5z" fill="url(#E)" mask="url(#F)"/></g></svg>