<svg xmlns="http://www.w3.org/2000/svg" xmlns:xlink="http://www.w3.org/1999/xlink" width="320" height="400"><defs><linearGradient x1="12.6004383%" y1="0%" x2="87.3995617%" y2="87.2859753%" id="A"><stop stop-color="#4082ff" offset="0%"/><stop stop-color="#6040ff" offset="100%"/></linearGradient><path d="M320 324L0 370v-12l320-46v12zM0 0h320v302L0 350V0z" id="B"/><linearGradient x1="44.33793%" y1="13.7736582%" x2="113.103611%" y2="34.9281907%" id="C"><stop stop-color="#4082ff" offset="0%"/><stop stop-color="#6040ff" offset="100%"/></linearGradient><linearGradient x1="46.0616876%" y1="44.9811724%" x2="114.11826%" y2="96.1619753%" id="D"><stop stop-color="#4082ff" offset="0%"/><stop stop-color="#6040ff" offset="100%"/></linearGradient><linearGradient x1="-2.09389825%" y1="-8.64345979%" x2="50%" y2="67.2493907%" id="E"><stop stop-color="#4082ff" offset="0%"/><stop stop-color="#6040ff" offset="100%"/></linearGradient></defs><g fill="none" fill-rule="evenodd"><path fill="#fff" d="M0 0h320v400H0z"/><mask id="F" fill="#fff"><use xlink:href="#B"/></mask><use fill="url(#A)" xlink:href="#B"/><path d="M334.26-21.333l-610.074 609.778m0-609.778L334.26 588.444M-236.686-21.333v609.778M-86.48-21.333v609.778M29.222-21.333v609.778M144.505-21.333v609.778M294.7-21.333v609.778m-265.698-39.1c146.74 0 265.698-118.9 265.698-265.57S175.753 18.197 29.012 18.197s-265.698 118.9-265.698 265.57 118.957 265.57 265.698 265.57zm.2-102.61c90.16 0 163.247-73.053 163.247-163.168S119.38 120.387 29.222 120.387-134.025 193.44-134.025 283.556-60.937 446.724 29.222 446.724zm-.2-47.52c63.785 0 115.493-51.683 115.493-115.437S92.797 168.33 29.012 168.33-86.48 220.012-86.48 283.766-34.773 399.203 29.012 399.203zM-275.815 17.777H334.26m-610.074 150.13H334.26m-610.074 115.648H334.26m-610.074 115.648H334.26m-610.074 150.13H334.26" stroke="url(#C)" stroke-width="3.094" stroke-linecap="square" mask="url(#F)"/><path d="M-53.092 132.55l.046.015-16.903 29.265c-6.17 10.682-19.836 14.342-30.523 8.175s-14.348-19.827-8.178-30.51l13.647-23.627c2.134-3.067 7.4-8.358 17.936-7.363 0 0 24.8 2.69 26.584 15.57 0 0 .245 4.238-2.61 8.477zm239.748-74.746h-52.71c-3.59-.24-5.158-1.52-5.773-2.266l-.04-.068-56.498-97.64-3.384-4.85c-5.546-8.477-14.352 13.205-14.352 13.205-10.515 24.16 1.492 51.628 5.68 59.93l78.37 135.684c6.17 10.682 19.836 14.342 30.522 8.175s14.348-19.827 8.178-30.51l-19.598-33.93c-.38-.822-1.04-3.054 2.98-3.063h26.626c12.34 0 22.344-10 22.344-22.334s-10.004-22.334-22.344-22.334zM84.275 88.167s2.813 14.306-8.073 14.306h-194.857c-12.34 0-22.344-10-22.344-22.334s10.004-22.334 22.344-22.334h50.096c8.088-.47 10.005-5.135 10.005-5.135l.044.022L6.86-60.526c1.192-2.187.2-4.253.027-4.58l-21.595-37.388c-6.17-10.682-2.51-24.342 8.178-30.51s24.352-2.507 30.522 8.175l10.016 17.34 9.998-17.3c6.17-10.682 19.836-14.342 30.522-8.175s14.35 19.827 8.178 30.51L-8.286 55.074c-.398.96-.52 2.464 2.44 2.73l54.403.53s31.436.49 35.718 29.833z" fill="url(#D)" fill-rule="nonzero" mask="url(#F)"/><path d="M362.73 245.168l56.582 56.582-159.502 92.732a7.5 7.5 0 0 1-11.27-6.484v-28.636l114.2-114.194zm-114.2-114.194l111.678 111.68L248.54 354.337V130.974zm167.23 61.155l85.506 48.952a7.5 7.5 0 0 1 .043 12.993l-78.83 45.83-57.246-57.247 50.526-50.527zm-159.73-90.3a7.5 7.5 0 0 1 3.726.991l152.806 87.48-49.843 49.843-114.2-114.194v-16.62a7.5 7.5 0 0 1 7.5-7.5z" fill="url(#E)" mask="url(#F)"/></g></svg>