<svg xmlns="http://www.w3.org/2000/svg" xmlns:xlink="http://www.w3.org/1999/xlink" width="309" height="198"><defs><path d="M147.2 0C158.692 0 168 9.308 168 20.8v61.56c0 11.482-9.308 20.8-20.8 20.8H48.032L20.037 127v-23.874C8.904 102.73 0 93.58 0 82.35V20.8C0 9.308 9.308 0 20.8 0H147.2z" id="A"/><filter x="-16.7%" y="-15.7%" width="133.3%" height="144.1%" id="B"><feOffset dy="8" in="SourceAlpha"/><feGaussianBlur stdDeviation="8"/><feColorMatrix values="0 0 0 0 0.250980392 0 0 0 0 0.509803922 0 0 0 0 1 0 0 0 0.25 0"/></filter></defs><g transform="translate(16 8)" fill="none" fill-rule="evenodd"><use fill="#000" filter="url(#B)" xlink:href="#A"/><use fill="#fff" xlink:href="#A"/><g fill="#4082ff"><rect x="26" y="29" width="116" height="6" rx="3"/><rect x="26" y="48" width="116" height="6" rx="3"/><rect x="26" y="67" width="116" height="6" rx="3"/></g><g transform="matrix(-1 0 0 1 277 41)"><use fill="#000" filter="url(#B)" xlink:href="#C" href="#A"/><use fill="#fff" xlink:href="#C" href="#A"/><g fill="#4082ff"><rect x="26" y="29" width="116" height="6" rx="3"/><rect x="26" y="48" width="116" height="6" rx="3"/><rect x="26" y="67" width="116" height="6" rx="3"/></g></g></g></svg>