<svg xmlns="http://www.w3.org/2000/svg" xmlns:xlink="http://www.w3.org/1999/xlink" width="317" height="259"><defs><path d="M237 45c7.18 0 13 5.82 13 13s-5.82 13-13 13c-6.147 0-11.297-4.266-12.652-10H76v65.5a3.5 3.5 0 0 1-3.308 3.495L72.5 130H25.652c-1.355 5.733-6.505 10-12.652 10-7.18 0-13-5.82-13-13s5.82-13 13-13c5.784 0 10.686 3.778 12.373 9H69V57.5a3.5 3.5 0 0 1 3.5-3.5h152.127c1.687-5.223 6.59-9 12.373-9z" id="A"/><filter x="-8.4%" y="-15.8%" width="116.8%" height="144.2%" id="B"><feOffset dy="6" in="SourceAlpha"/><feGaussianBlur stdDeviation="6"/><feColorMatrix values="0 0 0 0 0.392156863 0 0 0 0 0.584313725 0 0 0 0 1 0 0 0 0.35 0"/></filter><path d="M173.5 76a3.5 3.5 0 0 1 3.5 3.5v132a3.5 3.5 0 1 1-7 0V83H53.5a3.5 3.5 0 1 1 0-7h120z" id="C"/><filter x="-16.5%" y="-10.8%" width="133.1%" height="130.2%" id="D"><feOffset dy="6" in="SourceAlpha"/><feGaussianBlur stdDeviation="6"/><feColorMatrix values="0 0 0 0 0.392156863 0 0 0 0 0.584313725 0 0 0 0 1 0 0 0 0.25 0"/></filter><path d="M135.5 13a3.5 3.5 0 0 1 3.5 3.5V133h136.5a3.5 3.5 0 1 1 0 7h-140a3.5 3.5 0 0 1-3.5-3.5v-120a3.5 3.5 0 0 1 3.5-3.5z" id="E"/><filter x="-14.3%" y="-11.8%" width="128.6%" height="133.1%" id="F"><feOffset dy="6" in="SourceAlpha"/><feGaussianBlur stdDeviation="6"/><feColorMatrix values="0 0 0 0 0.392156863 0 0 0 0 0.584313725 0 0 0 0 1 0 0 0 0.25 0"/></filter><circle id="G" cx="50" cy="80" r="13"/><filter x="-67.3%" y="-48.1%" width="234.6%" height="234.6%" id="H"><feOffset dy="5" in="SourceAlpha"/><feGaussianBlur stdDeviation="5"/><feColorMatrix values="0 0 0 0 0.392156863 0 0 0 0 0.584313725 0 0 0 0 1 0 0 0 0.25 0"/></filter><circle id="I" cx="136" cy="13" r="13"/><circle id="J" cx="282" cy="137" r="13"/><circle id="K" cx="174" cy="226" r="13"/><path d="M73.5 175a3.5 3.5 0 1 1 0-7H208v-63.5a3.5 3.5 0 1 1 7 0v67a3.5 3.5 0 0 1-3.308 3.495l-.192.005h-138z" id="L"/><filter x="-14.5%" y="-20.3%" width="129.0%" height="156.8%" id="M"><feOffset dy="6" in="SourceAlpha"/><feGaussianBlur stdDeviation="6"/><feColorMatrix values="0 0 0 0 0.392156863 0 0 0 0 0.584313725 0 0 0 0 1 0 0 0 0.25 0"/></filter><circle id="N" cx="211" cy="101" r="13"/><filter x="-80.8%" y="-57.7%" width="261.5%" height="261.5%" id="O"><feOffset dy="6" in="SourceAlpha"/><feGaussianBlur stdDeviation="6"/><feColorMatrix values="0 0 0 0 0.392156863 0 0 0 0 0.584313725 0 0 0 0 1 0 0 0 0.25 0"/></filter><circle id="P" cx="70" cy="172" r="13"/><path d="M108 93c7.18 0 13 5.82 13 13 0 5.784-3.778 10.686-9 12.373V196h117.627c1.657-5.13 6.416-8.866 12.066-8.997L242 187c7.18 0 13 5.82 13 13s-5.82 13-13 13c-6.147 0-11.297-4.266-12.652-10H108.5a3.5 3.5 0 0 1-3.5-3.5v-80.848c-5.733-1.355-10-6.505-10-12.652 0-7.18 5.82-13 13-13z" id="Q"/><filter x="-13.1%" y="-12.5%" width="126.2%" height="135.0%" id="R"><feOffset dy="6" in="SourceAlpha"/><feGaussianBlur stdDeviation="6"/><feColorMatrix values="0 0 0 0 0.392156863 0 0 0 0 0.584313725 0 0 0 0 1 0 0 0 0.35 0"/></filter></defs><g transform="translate(12 5)" fill-rule="evenodd"><use fill="#000" filter="url(#B)" xlink:href="#A"/><use fill="#4082ff" xlink:href="#A"/><use fill="#000" filter="url(#D)" xlink:href="#C"/><use fill="#fff" xlink:href="#C"/><use fill="#000" filter="url(#F)" xlink:href="#E"/><use fill="#fff" xlink:href="#E"/><use fill="#000" filter="url(#H)" xlink:href="#G"/><use fill="#fff" xlink:href="#G"/><use fill="#000" filter="url(#H)" xlink:href="#I"/><use fill="#fff" xlink:href="#I"/><use fill="#000" filter="url(#H)" xlink:href="#J"/><use fill="#fff" xlink:href="#J"/><use fill="#000" filter="url(#H)" xlink:href="#K"/><use fill="#fff" xlink:href="#K"/><use fill="#000" filter="url(#M)" xlink:href="#L"/><use fill="#fff" xlink:href="#L"/><use fill="#000" filter="url(#O)" xlink:href="#N"/><use fill="#fff" xlink:href="#N"/><use fill="#000" filter="url(#O)" xlink:href="#P"/><use fill="#fff" xlink:href="#P"/><use fill="#000" filter="url(#R)" xlink:href="#Q"/><use fill="#4082ff" xlink:href="#Q"/></g></svg>