<svg xmlns="http://www.w3.org/2000/svg" xmlns:xlink="http://www.w3.org/1999/xlink" width="317" height="259"><defs><linearGradient x1="0%" y1="42.78%" x2="100%" y2="57.22%" id="A"><stop stop-color="#4082ff" offset="0%"/><stop stop-color="#5040ff" offset="100%"/></linearGradient><path d="M237 45c7.18 0 13 5.82 13 13s-5.82 13-13 13c-6.147 0-11.297-4.266-12.652-10H76v65.5a3.5 3.5 0 0 1-3.308 3.495L72.5 130H25.652c-1.355 5.733-6.505 10-12.652 10-7.18 0-13-5.82-13-13s5.82-13 13-13c5.784 0 10.686 3.778 12.373 9H69V57.5a3.5 3.5 0 0 1 3.5-3.5h152.127c1.687-5.223 6.6-9 12.373-9z" id="B"/><filter x="-8.4%" y="-15.8%" width="116.8%" height="144.2%" id="C"><feOffset dy="6" in="SourceAlpha"/><feGaussianBlur stdDeviation="6"/><feColorMatrix values="0 0 0 0 0.317647059 0 0 0 0 0.368627451 0 0 0 0 1 0 0 0 0.25 0"/></filter><path d="M173.5 76a3.5 3.5 0 0 1 3.5 3.5v132a3.5 3.5 0 1 1-7 0V83H53.5a3.5 3.5 0 1 1 0-7h120z" id="D"/><filter x="-16.5%" y="-10.8%" width="133.1%" height="130.2%" id="E"><feOffset dy="6" in="SourceAlpha"/><feGaussianBlur stdDeviation="6"/><feColorMatrix values="0 0 0 0 0.317647059 0 0 0 0 0.368627451 0 0 0 0 1 0 0 0 0.15 0"/></filter><path d="M135.5 13a3.5 3.5 0 0 1 3.5 3.5V133h136.5a3.5 3.5 0 1 1 0 7h-140a3.5 3.5 0 0 1-3.5-3.5v-120a3.5 3.5 0 0 1 3.5-3.5z" id="F"/><filter x="-14.3%" y="-11.8%" width="128.6%" height="133.1%" id="G"><feOffset dy="6" in="SourceAlpha"/><feGaussianBlur stdDeviation="6"/><feColorMatrix values="0 0 0 0 0.317647059 0 0 0 0 0.368627451 0 0 0 0 1 0 0 0 0.15 0"/></filter><circle id="H" cx="50" cy="80" r="13"/><filter x="-67.3%" y="-48.1%" width="234.6%" height="234.6%" id="I"><feOffset dy="5" in="SourceAlpha"/><feGaussianBlur stdDeviation="5"/><feColorMatrix values="0 0 0 0 0.317647059 0 0 0 0 0.368627451 0 0 0 0 1 0 0 0 0.15 0"/></filter><circle id="J" cx="136" cy="13" r="13"/><circle id="K" cx="282" cy="137" r="13"/><circle id="L" cx="174" cy="226" r="13"/><filter x="-67.3%" y="-48.1%" width="234.6%" height="234.6%" id="M"><feOffset dy="5" in="SourceAlpha"/><feGaussianBlur stdDeviation="5"/><feColorMatrix values="0 0 0 0 0.392156863 0 0 0 0 0.584313725 0 0 0 0 1 0 0 0 0.25 0"/></filter><path d="M73.5 175a3.5 3.5 0 1 1 0-7H208v-63.5a3.5 3.5 0 1 1 7 0v67a3.5 3.5 0 0 1-3.308 3.495l-.192.005h-138z" id="N"/><filter x="-14.5%" y="-20.3%" width="129.0%" height="156.8%" id="O"><feOffset dy="6" in="SourceAlpha"/><feGaussianBlur stdDeviation="6"/><feColorMatrix values="0 0 0 0 0.317647059 0 0 0 0 0.368627451 0 0 0 0 1 0 0 0 0.15 0"/></filter><circle id="P" cx="211" cy="101" r="13"/><filter x="-80.8%" y="-57.7%" width="261.5%" height="261.5%" id="Q"><feOffset dy="6" in="SourceAlpha"/><feGaussianBlur stdDeviation="6"/><feColorMatrix values="0 0 0 0 0.317647059 0 0 0 0 0.368627451 0 0 0 0 1 0 0 0 0.15 0"/></filter><circle id="R" cx="70" cy="172" r="13"/><linearGradient x1="0%" y1="21.875%" x2="100%" y2="78.125%" id="S"><stop stop-color="#4082ff" offset="0%"/><stop stop-color="#5040ff" offset="100%"/></linearGradient><path d="M108 93c7.18 0 13 5.82 13 13 0 5.784-3.778 10.686-9 12.373V196h117.627c1.657-5.13 6.416-8.866 12.066-8.997L242 187c7.18 0 13 5.82 13 13s-5.82 13-13 13c-6.147 0-11.297-4.266-12.652-10H108.5a3.5 3.5 0 0 1-3.5-3.5v-80.848c-5.733-1.355-10-6.505-10-12.652 0-7.18 5.82-13 13-13z" id="T"/><filter x="-13.1%" y="-12.5%" width="126.2%" height="135.0%" id="U"><feOffset dy="6" in="SourceAlpha"/><feGaussianBlur stdDeviation="6"/><feColorMatrix values="0 0 0 0 0.317647059 0 0 0 0 0.368627451 0 0 0 0 1 0 0 0 0.25 0"/></filter></defs><g transform="translate(12 5)" fill-rule="evenodd"><use filter="url(#C)" xlink:href="#B"/><use fill="url(#A)" xlink:href="#B"/><use filter="url(#E)" xlink:href="#D"/><use fill="#fff" xlink:href="#D"/><use filter="url(#G)" xlink:href="#F"/><use fill="#fff" xlink:href="#F"/><use filter="url(#I)" xlink:href="#H"/><use fill="#fff" xlink:href="#H"/><use filter="url(#I)" xlink:href="#J"/><use fill="#fff" xlink:href="#J"/><use filter="url(#I)" xlink:href="#K"/><use fill="#fff" xlink:href="#K"/><use filter="url(#M)" xlink:href="#L"/><use fill="#fff" xlink:href="#L"/><use filter="url(#O)" xlink:href="#N"/><use fill="#fff" xlink:href="#N"/><use filter="url(#Q)" xlink:href="#P"/><use fill="#fff" xlink:href="#P"/><use filter="url(#Q)" xlink:href="#R"/><use fill="#fff" xlink:href="#R"/><use filter="url(#U)" xlink:href="#T"/><use fill="url(#S)" xlink:href="#T"/></g></svg>