<svg xmlns="http://www.w3.org/2000/svg" xmlns:xlink="http://www.w3.org/1999/xlink" width="282" height="213"><defs><path d="M253.69 122.56c0 7.943-1.693 15-5.078 21.143s-7.992 11.165-13.818 15.04-12.45 6.56-19.873 8.057v11.137a4 4 0 0 1-4 4h-20.32a4 4 0 0 1-4-4V166.31c-8.854-1.953-15.343-4.373-24.17-9.863-4.95-3.08-9.85-7.047-14.696-11.904a4 4 0 0 1-.034-5.616l16.134-16.566a4 4 0 0 1 5.853.131c5.495 6.173 10.09 10.25 13.787 12.227 6.467 3.46 11.914 5.127 18.75 5.127 6 0 10.628-1.35 13.916-4.053s4.932-6.43 4.932-11.182c0-3.646-1.107-6.755-3.32-9.326s-5.03-4.736-8.447-6.494-8.317-3.906-14.697-6.445l-3.027-1.172c-7.878-3.125-14.567-6.348-20.068-9.668s-10.19-7.83-14.062-13.525-5.81-12.777-5.81-21.24c0-7.227 1.514-13.672 4.54-19.336a39.63 39.63 0 0 1 12.451-14.014c5.273-3.678 11.263-6.3 17.97-7.86V4a4 4 0 0 1 4-4h20.32a4 4 0 0 1 4 4v11.82c9.023 1.982 19.22 7.796 30.594 17.442a4 4 0 0 1 .221 5.899l-14.55 14.342a4 4 0 0 1-5.529.083c-8.892-8.25-17.418-12.376-25.578-12.376-4.492 0-8.203 1.14-11.133 3.418s-4.395 5.34-4.395 9.18c0 3.2 1.042 5.924 3.125 8.203s4.67 4.215 7.764 5.81 7.47 3.564 13.135 5.908c.78.26 1.953.716 3.516 1.367 8.268 3.385 15.3 6.885 21.094 10.498s10.66 8.464 14.6 14.55 5.908 13.558 5.908 22.412z" id="A"/><filter x="-25.2%" y="-10.4%" width="151.9%" height="131.9%" id="B"><feOffset dy="10" in="SourceAlpha"/><feGaussianBlur stdDeviation="8"/><feColorMatrix values="0 0 0 0 0.392156863 0 0 0 0 0.584313725 0 0 0 0 1 0 0 0 0.25 0"/></filter><path d="M40.09 12h57.857a4.2 4.2 0 0 1 3.444 6.604l-40.43 57.94h33.3a4.2 4.2 0 0 1 3.193 6.928l-75.82 88.757a4.2 4.2 0 0 1-7.083-4.312l22.616-55.542H6.034a4.2 4.2 0 0 1-3.939-5.658l34.057-91.974A4.2 4.2 0 0 1 40.091 12z" id="C"/><filter x="-25.6%" y="-10.6%" width="149.4%" height="122.1%" id="D"><feOffset dy="10" in="SourceAlpha"/><feGaussianBlur stdDeviation="8"/><feColorMatrix values="0 0 0 0 0.392156863 0 0 0 0 0.584313725 0 0 0 0 1 0 0 0 0.35 0"/></filter></defs><g transform="translate(13 6)" fill-rule="evenodd"><use fill="#000" filter="url(#B)" xlink:href="#A"/><use fill="#fff" xlink:href="#A"/><use fill="#000" filter="url(#D)" xlink:href="#C"/><use fill="#4082ff" xlink:href="#C"/></g></svg>