<svg xmlns="http://www.w3.org/2000/svg" xmlns:xlink="http://www.w3.org/1999/xlink" width="468" height="517"><defs><linearGradient x1="3.061617e-15%" y1="50%" x2="100%" y2="50%" id="A"><stop stop-color="#cfd3d8" offset="0%"/><stop stop-color="#ecedf0" offset="12.5763869%"/><stop stop-color="#f0f1f2" offset="93.3415362%"/><stop stop-color="#fbfeff" offset="100%"/></linearGradient><linearGradient x1="50%" y1="80.1939999%" x2="50%" y2="100%" id="B"><stop stop-color="#fff" stop-opacity=".5" offset="0%"/><stop stop-color="#e2e7ed" offset="100%"/></linearGradient><path d="M159.696 0c22.01 0 33.757 11.737 33.757 33.738v320.707c0 21.996-11.747 33.738-33.757 33.738H35.107c-22 0-33.757-11.74-33.757-33.736v-320.7C1.35 11.737 13.098 0 35.107 0h124.59z" id="C"/><filter x="-19.5%" y="-7.1%" width="133.8%" height="116.7%" id="D"><feOffset dx="-5" dy="5" in="SourceAlpha"/><feGaussianBlur stdDeviation="10"/><feColorMatrix values="0 0 0 0 0.317647059 0 0 0 0 0.368627451 0 0 0 0 1 0 0 0 0.1 0"/></filter><linearGradient x1="3.061617e-15%" y1="50%" x2="100%" y2="50%" id="E"><stop stop-color="#d9d9d9" offset="0%"/><stop stop-color="#edf1f4" stop-opacity="0" offset="20.4224223%"/><stop stop-color="#eef1f4" stop-opacity="0" offset="90.3480714%"/><stop stop-color="#fff" offset="100%"/></linearGradient><linearGradient x1="3.061617e-15%" y1="50%" x2="100%" y2="50%" id="F"><stop stop-color="#fff" stop-opacity=".5" offset="0%"/><stop stop-opacity=".05" offset="6.57693614%"/><stop stop-opacity=".05" offset="94.9195162%"/><stop stop-opacity=".1" offset="100%"/></linearGradient><linearGradient x1="1.41638472e-14%" y1="50%" x2="100%" y2="50%" id="G"><stop stop-color="#ecedf0" offset="0%"/><stop stop-color="#f8f8f8" offset="100%"/></linearGradient><linearGradient x1="50%" y1="85.557996%" x2="50%" y2="100%" id="H"><stop stop-color="#e3e6eb" stop-opacity="0" offset="0%"/><stop stop-color="#e3e6eb" offset="100%"/></linearGradient><path d="M157.678 4.498c22.293 0 30.826 8.99 30.826 31.315V352.82c0 22.32-8.532 30.865-31.726 30.865H37.125c-21.844 0-31.276-8.546-31.276-30.415V35.813c0-22.324 8.983-31.315 31.276-31.315h120.553z" id="I"/><linearGradient x1="50%" y1="1.69931452%" x2="50%" y2="98.5625914%" id="J"><stop stop-color="#b1b8c2" offset="0%"/><stop stop-color="#eceef1" offset="5.16372347%"/><stop stop-color="#edeef1" offset="92.0730893%"/><stop stop-color="#b1b8c2" offset="100%"/></linearGradient><path d="M.225 2.938C.257 1.622.464.624.596.24 1.645.495 1.8.42 1.8.42v43.778s-.328.494-1.203.612c-.12-.14-.292-.53-.37-2.47v-39.4z" id="K"/><filter x="-0.0%" y="0.0%" width="100.0%" height="100.0%" id="L"><feOffset in="SourceAlpha"/><feColorMatrix values="0 0 0 0 0 0 0 0 0 0 0 0 0 0 0 0 0 0 0.3 0"/></filter><path d="M1.575 2.938c-.032-1.316 0-2.247-.383-2.76A10.85 10.85 0 0 0 0 .419v27.135c.184.118.58.28 1.192.487.233-.352.304-.404.383-2.346V2.938z" id="M"/><filter x="0.0%" y="0.0%" width="100.0%" height="100.0%" id="N"><feOffset in="SourceAlpha"/><feColorMatrix values="0 0 0 0 0 0 0 0 0 0 0 0 0 0 0 0 0 0 0.3 0"/></filter><path d="M1.575 2.938c-.032-1.316-.15-2.64-.37-2.815C.835.184.433.282 0 .42v27.135c.06.183.443.34 1.148.468.248-.294.426-.7.426-2.327V2.938z" id="O"/><linearGradient x1="3.061617e-15%" y1="50%" x2="100%" y2="50%" id="P"><stop stop-color="#d0d5da" stop-opacity="0" offset="0%"/><stop stop-color="#d0d4d9" stop-opacity="0" offset="68.4204102%"/><stop stop-color="#d0d4d9" offset="100%"/></linearGradient><path d="M1.8 1.8C1.8.724 1.527 0 1.527 0H.42L0 .42v13.64l.45.5 1.078.003s.272-1.146.272-2.408V1.8z" id="Q"/><linearGradient x1="50%" y1="8.51521522%" x2="50%" y2="91.9227534%" id="R"><stop stop-color="#111" offset="0%"/><stop stop-color="#fefefe" offset="15.3527582%"/><stop stop-color="#fefefe" offset="83.1036176%"/><stop stop-color="#1d1d1d" offset="100%"/></linearGradient><linearGradient x1="50%" y1="100%" x2="50%" y2="0%" id="S"><stop stop-color="#fff" stop-opacity=".2" offset="0%"/><stop stop-opacity=".3" offset="100%"/></linearGradient><path d="M0 1.574c0 .87.705 1.574 1.574 1.574H21.82c.87 0 1.574-.705 1.574-1.574S22.69 0 21.82 0H1.574C.705 0 0 .705 0 1.574z" id="T"/><filter x="0.0%" y="0.0%" width="100.0%" height="100.0%" id="U"><feOffset in="SourceAlpha"/><feComposite in2="SourceAlpha" operator="out"/><feColorMatrix values="0 0 0 0 1 0 0 0 0 1 0 0 0 0 1 0 0 0 0.5 0" result="B"/><feOffset in="SourceAlpha"/><feComposite in2="SourceAlpha" operator="out"/><feColorMatrix values="0 0 0 0 0 0 0 0 0 0 0 0 0 0 0 0 0 0 1 0" result="D"/><feMerge><feMergeNode in="B"/><feMergeNode in="D"/></feMerge></filter><linearGradient x1="29.811374%" y1="100%" x2="66.0339753%" y2="11.5454252%" id="V"><stop stop-color="#f5f9fc" offset="0%"/><stop stop-color="#eaeaea" offset="100%"/></linearGradient><radialGradient cx="75%" cy="37.5%" fx="75%" fy="37.5%" r="67.4973034%" gradientTransform="translate(0.750000,0.375000),scale(1.000000,0.999841),rotate(90.000000),translate(-0.750000,-0.375000)" id="W"><stop stop-color="#fff" offset="0%"/><stop stop-color="#dbdbdc" offset="100%"/></radialGradient><circle id="X" cx="3.599" cy="3.374" r="1.799"/><linearGradient x1="39.3320026%" y1="0%" x2="60.6679974%" y2="100%" id="Y"><stop stop-color="#4082ff" offset="0%"/><stop stop-color="#6040ff" offset="100%"/></linearGradient><path id="Z" d="M-.798-.45S.3-.592.45 2.7v21.516c0 3.718-1.08 3.917-1.248 4.123l-.102-.65c.624-.928.726-2.06.726-3.825V4.482c0-2.105-.45-4.148-.624-4.14V-.45z"/></defs><g transform="matrix(.984808 -.173648 .173648 .984808 32.706674 94.952574)" fill="none" fill-rule="evenodd"><use fill="#000" filter="url(#D)" xlink:href="#C"/><use fill="url(#A)" xlink:href="#C"/><use fill="url(#B)" xlink:href="#C"/><path d="M157.496 3.15c22.3 0 32.808 9.185 32.808 31.486v319.813c0 22.297-10.517 31.037-32.808 31.037H37.307c-22.292 0-33.258-8.74-33.258-31.037V34.635C4.05 12.334 15.017 3.15 37.307 3.15h120.188z" stroke="url(#F)" stroke-width=".5" fill="url(#E)"/><use fill="url(#G)" xlink:href="#I"/><use fill="url(#H)" xlink:href="#I"/><g transform="translate(192.553 89.512)"><mask id="a" fill="#fff"><use xlink:href="#K"/></mask><use fill="#000" filter="url(#L)" xlink:href="#K"/><use fill="url(#J)" xlink:href="#K"/><path d="M2.598-.45S1.49-.592 1.35 2.7v38.16c0 3.718 1.08 3.917 1.248 4.123l.102-.65c-.624-.928-.726-2.06-.726-3.825V4.482c0-2.105.45-4.148.624-4.14V-.45z" fill="#f7faff" mask="url(#a)"/></g><g transform="translate(.45 80.515)"><g transform="translate(0 35.535)"><mask id="b" fill="#fff"><use xlink:href="#M"/></mask><use fill="#000" filter="url(#N)" xlink:href="#M"/><use fill="url(#J)" xlink:href="#M"/><use xlink:href="#Z" fill="#d0d5da" mask="url(#b)"/></g><mask id="c" fill="#fff"><use xlink:href="#O"/></mask><use fill="#000" filter="url(#N)" xlink:href="#O"/><use fill="url(#J)" xlink:href="#O"/><use xlink:href="#Z" fill="#d0d5da" mask="url(#c)"/></g><g transform="translate(0 52.627)"><mask id="d" fill="#fff"><use xlink:href="#Q"/></mask><use fill="#000" filter="url(#N)" xlink:href="#Q"/><use fill="url(#J)" xlink:href="#Q"/><use fill="url(#P)" xlink:href="#Q"/><path d="M0-.9c-.073 0 .675.812.675 2.83v9.984c0 3.183-.705 3.064-.826 3.273l-.073-.658c.45-.94.45-1.947.45-2.834V2.7c0-1.276-.252-2.806-.376-2.797L0-.9z" fill="url(#R)" style="mix-blend-mode:soft-light" mask="url(#d)"/></g><g transform="translate(85.479 13.944)"><use fill="#000" filter="url(#U)" xlink:href="#T"/><path stroke="url(#S)" stroke-width=".5" d="M.25 1.574c0 .73.593 1.324 1.324 1.324H21.82c.73 0 1.324-.593 1.324-1.324S22.55.25 21.82.25H1.574C.843.25.25.843.25 1.574z" stroke-linejoin="square" fill="#eef0f1"/></g><g transform="matrix(.275637 -.961262 .961262 .275637 113.636208 18.04838)"><circle fill="url(#V)" cx="3.599" cy="3.374" r="2.699"/><use fill="url(#W)" xlink:href="#X"/></g><path d="M48.14 11.695a2.25 2.25 0 0 1 2.249 2.249v1.35a9.9 9.9 0 0 0 9.898 9.896h74.232a9.9 9.9 0 0 0 9.898-9.896v-1.35a2.25 2.25 0 0 1 2.249-2.249H164.2c9.7 0 17.546 7.854 17.546 17.542v330.158c0 9.688-7.856 17.542-17.546 17.542H30.593c-9.7 0-17.546-7.854-17.546-17.542V29.237c0-9.688 7.856-17.542 17.546-17.542H48.14z" fill="url(#Y)"/><path d="M108.63 180.965c-.047-5.07 4.188-7.5 4.377-7.62-1.7-2.416-4.454-3.9-7.43-4.003-3.155-.314-6.16 1.835-7.762 1.835s-4.053-1.788-6.688-1.74c-3.494.097-6.68 2.003-8.383 5.017-3.574 6.13-.912 15.205 2.567 20.17 1.702 2.435 3.736 5.164 6.397 5.07s3.54-1.64 6.64-1.64 3.98 1.64 6.695 1.588 4.513-2.475 6.2-4.917c1.206-1.754 2.15-3.67 2.803-5.69-3.268-1.387-5.395-4.553-5.418-8.066zm-5.1-14.878c1.53-1.772 2.288-4.07 2.108-6.392-2.31.22-4.445 1.305-5.972 3.03-1.31 1.5-2.46 3.896-2.148 6.198 2.27.173 4.594-1.14 6.012-2.836z" fill="#e2e2e2" fill-rule="nonzero"/></g></svg>