<svg xmlns="http://www.w3.org/2000/svg" xmlns:xlink="http://www.w3.org/1999/xlink" width="468" height="517"><style><![CDATA[.K{fill:#000}.L{fill:#fff}.M{filter:url(#Q)}.N{fill:#f5f5f5}.O{fill-rule:nonzero}.P{fill:url(#r)}.Q{fill:url(#C)}.R{fill-opacity:.5}.S{fill:#f0f0f0}.T{stroke-width:.5}.U{fill:url(#O)}.V{fill:url(#Z)}.W{filter:url(#d)}.X{fill:url(#b)}.Y{filter:url(#v)}.Z{stroke-linejoin:square}]]></style><defs><path d="M8.894 37.72c0-22.66 10.6-30.287 26.517-30.966 23.36-.998 113.776-.806 136.394 0 19.696.702 28.032 11.702 28.032 30.2V391.12c0 18.883-9.095 30.015-25.76 30.8-23.854 1.1-116.47 1.52-139.803.176-16.284-.938-25.38-11.324-25.38-28.322V37.72z" id="A"/><filter x="-31.4%" y="-7.2%" width="147.1%" height="121.6%" id="B"><feOffset dx="-15" dy="15" in="SourceAlpha"/><feGaussianBlur stdDeviation="12.5"/><feColorMatrix values="0 0 0 0 0.317647059 0 0 0 0 0.368627451 0 0 0 0 1 0 0 0 0.15 0"/></filter><linearGradient x1="50%" y1="100%" x2="50%" y2="0%" id="C"><stop stop-opacity=".3" offset="0%"/><stop stop-opacity=".2" offset="1.95243728%"/><stop stop-opacity="0" offset="4.40897337%"/><stop stop-color="#939393" stop-opacity="0" offset="96.3069432%"/><stop stop-opacity=".2" offset="99.0145597%"/><stop stop-opacity=".3" offset="100%"/></linearGradient><path d="M1.004 0h.815a.19.19 0 0 1 .19.19v26.443a.19.19 0 0 1-.19.19h-.815A1.01 1.01 0 0 1 0 25.817V1.004C0 .45.45 0 1.004 0z" id="D"/><path d="M1.004 0h.815a.19.19 0 0 1 .19.19v57.796a.19.19 0 0 1-.19.19h-.815C.45 58.174 0 57.725 0 57.17V1.004C0 .45.45 0 1.004 0z" id="E"/><path d="M0 1c0-.558.446-1 1.004-1h1.004v58.174H1.004c-.554 0-1.004-.45-1.004-1V1z" id="F"/><filter x="-49.8%" y="-1.7%" width="199.6%" height="103.4%" id="G"><feGaussianBlur stdDeviation=".5" in="SourceAlpha"/><feOffset dy="1"/><feComposite in2="SourceAlpha" operator="arithmetic" k2="-1" k3="1"/><feColorMatrix values="0 0 0 0 0 0 0 0 0 0 0 0 0 0 0 0 0 0 0.201086957 0"/></filter><path d="M1.042 0a.85.85 0 0 1 .852.85v25.12a.85.85 0 0 1-.852.85H.38a.19.19 0 0 1-.189-.189V.2A.19.19 0 0 1 .379 0h.663z" id="H"/><path d="M1.894.885v25.05a.89.89 0 0 1-.89.885h-.9V0h.9c.495 0 .9.396.9.885z" id="I"/><filter x="-56.2%" y="-3.7%" width="212.3%" height="107.5%" id="J"><feGaussianBlur stdDeviation=".5" in="SourceAlpha"/><feOffset dy="1"/><feComposite in2="SourceAlpha" operator="arithmetic" k2="-1" k3="1"/><feColorMatrix values="0 0 0 0 0 0 0 0 0 0 0 0 0 0 0 0 0 0 0.201086957 0"/></filter><linearGradient x1="3.061617e-15%" y1="50%" x2="100%" y2="50%" id="K"><stop stop-color="#e2e2e2" offset="0%"/><stop stop-color="#f7f7f7" offset="6.76769578%"/><stop stop-color="#f7f7f7" offset="94.290443%"/><stop stop-color="#e1e1e1" offset="100%"/></linearGradient><linearGradient x1="50%" y1="0%" x2="50%" y2="100%" id="L"><stop stop-color="#fff" offset="0%"/><stop stop-color="#dadada" offset="2.3021423%"/><stop stop-color="#d8d8d8" offset="95.5220728%"/><stop stop-color="#dbdbdb" offset="100%"/></linearGradient><path d="M10.03 36.965c0-8.028 3.094-17.064 9.12-21.46s17.272-4.986 25.354-5.35h123.134c8.887.257 14.262.314 21.223 4.825s9.84 11.195 9.84 22.74v354.526c0 7.193-2.697 15.32-7.62 19.48s-10.96 5.98-17.762 6.196c-23.678.755-45.802.755-69.27.755-23.258 0-45.308.807-68.638-.755-6.695-.448-13.574-1.746-18.215-6.196s-7.165-11.05-7.165-18.348V36.965z" id="M"/><filter x="-2.7%" y="-1.7%" width="105.3%" height="103.2%" id="N"><feOffset dy="2" in="SourceAlpha"/><feGaussianBlur stdDeviation=".5"/><feComposite in2="SourceAlpha" operator="out"/><feColorMatrix values="0 0 0 0 1 0 0 0 0 1 0 0 0 0 1 0 0 0 1 0" result="A"/><feOffset dy="-2" in="SourceAlpha"/><feGaussianBlur stdDeviation="1"/><feComposite in2="SourceAlpha" operator="out"/><feColorMatrix values="0 0 0 0 1 0 0 0 0 1 0 0 0 0 1 0 0 0 1 0" result="B"/><feMorphology radius="0.5" operator="dilate" in="SourceAlpha"/><feOffset/><feComposite in2="SourceAlpha" operator="out"/><feColorMatrix values="0 0 0 0 1 0 0 0 0 1 0 0 0 0 1 0 0 0 0.5 0" result="C"/><feOffset dy="1" in="SourceAlpha"/><feGaussianBlur stdDeviation=".5"/><feComposite in2="SourceAlpha" operator="out"/><feColorMatrix values="0 0 0 0 0 0 0 0 0 0 0 0 0 0 0 0 0 0 0.0972033514 0" result="D"/><feOffset dy="-1" in="SourceAlpha"/><feGaussianBlur stdDeviation=".5"/><feComposite in2="SourceAlpha" operator="out"/><feColorMatrix values="0 0 0 0 0 0 0 0 0 0 0 0 0 0 0 0 0 0 0.103062726 0" result="E"/><feMerge><feMergeNode in="A"/><feMergeNode in="B"/><feMergeNode in="C"/><feMergeNode in="D"/><feMergeNode in="E"/></feMerge></filter><linearGradient x1="50%" y1="100%" x2="50%" y2="0%" id="O"><stop stop-color="#fff" offset="0%"/><stop stop-color="#ececec" offset="37.190194%"/><stop stop-color="#e3e3e3" offset="100%"/></linearGradient><ellipse id="P" cx="3.372" cy="3.361" rx="3.372" ry="3.361"/><filter x="0.0%" y="0.0%" width="100.0%" height="100.0%" id="Q"><feOffset in="SourceAlpha"/><feColorMatrix values="0 0 0 0 1 0 0 0 0 1 0 0 0 0 1 0 0 0 1 0"/></filter><radialGradient cx="50%" cy="13.4558105%" fx="50%" fy="13.4558105%" r="82.6131517%" gradientTransform="translate(0.500000,0.134558),scale(0.996839,1.000000),rotate(90.000000),translate(-0.500000,-0.134558)" id="R"><stop stop-color="#f7f7f7" offset="0%"/><stop stop-color="#dbdbdb" offset="100%"/></radialGradient><path d="M3.372 5.607a2.25 2.25 0 0 1-2.253-2.245 2.25 2.25 0 0 1 2.253-2.245 2.25 2.25 0 0 1 2.253 2.245 2.25 2.25 0 0 1-2.253 2.245z" id="S"/><filter x="-33.3%" y="-33.4%" width="166.6%" height="166.8%" id="T"><feOffset in="SourceAlpha"/><feGaussianBlur stdDeviation=".5"/><feColorMatrix values="0 0 0 0 0 0 0 0 0 0 0 0 0 0 0 0 0 0 0.152994792 0"/></filter><path d="M5.493 10.955C2.46 10.955 0 8.503 0 5.477S2.46 0 5.493 0s5.493 2.452 5.493 5.477-2.46 5.477-5.493 5.477z" id="U"/><radialGradient cx="50%" cy="13.4558105%" fx="50%" fy="13.4558105%" r="82.6131517%" gradientTransform="translate(0.500000,0.134558),scale(0.997097,1.000000),rotate(90.000000),translate(-0.500000,-0.134558)" id="V"><stop stop-color="#f7f7f7" offset="0%"/><stop stop-color="#dbdbdb" offset="100%"/></radialGradient><path d="M5.493 9.066c-1.988 0-3.6-1.607-3.6-3.6s1.6-3.6 3.6-3.6 3.6 1.607 3.6 3.6-1.6 3.6-3.6 3.6z" id="W"/><filter x="-20.8%" y="-20.9%" width="141.7%" height="141.8%" id="X"><feOffset in="SourceAlpha"/><feGaussianBlur stdDeviation=".5"/><feColorMatrix values="0 0 0 0 0 0 0 0 0 0 0 0 0 0 0 0 0 0 0.152994792 0"/></filter><linearGradient x1="50%" y1="0%" x2="50%" y2="100%" id="Y"><stop stop-color="#dcdbdb" offset="0%"/><stop stop-color="#fff" offset="100%"/></linearGradient><linearGradient x1="50%" y1="100%" x2="50%" y2="0%" id="Z"><stop stop-color="#fff" offset="0%"/><stop stop-color="#ececec" offset="37.190194%"/><stop stop-color="#e3e3e3" offset="100%"/></linearGradient><path d="M2.273 4.533a2.27 2.27 0 0 0 2.273-2.267A2.27 2.27 0 0 0 2.273 0 2.27 2.27 0 0 0 0 2.267a2.27 2.27 0 0 0 2.273 2.267z" id="a"/><radialGradient cx="50%" cy="13.4558105%" fx="50%" fy="13.4558105%" r="82.6131517%" gradientTransform="translate(0.500000,0.134558),scale(0.997097,1.000000),rotate(90.000000),translate(-0.500000,-0.134558)" id="b"><stop stop-color="#f7f7f7" offset="0%"/><stop stop-color="#dbdbdb" offset="100%"/></radialGradient><path d="M2.273 3.6c.732 0 1.326-.592 1.326-1.322S3.005.944 2.273.944.947 1.536.947 2.267 1.54 3.6 2.273 3.6z" id="c"/><filter x="-56.6%" y="-56.7%" width="213.1%" height="213.5%" id="d"><feOffset in="SourceAlpha"/><feGaussianBlur stdDeviation=".5"/><feColorMatrix values="0 0 0 0 0 0 0 0 0 0 0 0 0 0 0 0 0 0 0.152994792 0"/></filter><ellipse id="e" cx="4.87" cy="4.855" rx="4.87" ry="4.855"/><path d="M4.87 8.9C2.63 8.9.812 7.1.812 4.855S2.63.8 4.87.8s4.06 1.8 4.06 4.046S7.112 8.9 4.87 8.9z" id="f"/><filter x="-18.5%" y="-18.5%" width="137.0%" height="137.1%" id="g"><feOffset in="SourceAlpha"/><feGaussianBlur stdDeviation=".5"/><feColorMatrix values="0 0 0 0 0 0 0 0 0 0 0 0 0 0 0 0 0 0 0.152994792 0"/></filter><linearGradient x1="38.105577%" y1="0%" x2="61.894423%" y2="100%" id="h"><stop stop-color="#4082ff" offset="0%"/><stop stop-color="#6040ff" offset="100%"/></linearGradient><linearGradient x1="3.061617e-15%" y1="50%" x2="100%" y2="50%" id="i"><stop stop-color="#cfd3d8" offset="0%"/><stop stop-color="#ecedf0" offset="12.5763869%"/><stop stop-color="#f0f1f2" offset="93.3415362%"/><stop stop-color="#fbfeff" offset="100%"/></linearGradient><linearGradient x1="50%" y1="80.1939999%" x2="50%" y2="100%" id="j"><stop stop-color="#fff" stop-opacity=".5" offset="0%"/><stop stop-color="#e2e7ed" offset="100%"/></linearGradient><path d="M159.696 0c22 0 33.757 11.737 33.757 33.738v320.707c0 21.996-11.747 33.738-33.757 33.738H35.107c-22 0-33.757-11.74-33.757-33.736v-320.7C1.35 11.737 13.098 0 35.107 0h124.6z" id="k"/><filter x="-31.2%" y="-7.7%" width="146.8%" height="123.2%" id="l"><feOffset dx="-15" dy="15" in="SourceAlpha"/><feGaussianBlur stdDeviation="12.5"/><feColorMatrix values="0 0 0 0 0.317647059 0 0 0 0 0.368627451 0 0 0 0 1 0 0 0 0.15 0"/></filter><linearGradient x1="3.061617e-15%" y1="50%" x2="100%" y2="50%" id="m"><stop stop-color="#d9d9d9" offset="0%"/><stop stop-color="#edf1f4" stop-opacity="0" offset="20.4224223%"/><stop stop-color="#eef1f4" stop-opacity="0" offset="90.3480714%"/><stop stop-color="#fff" offset="100%"/></linearGradient><linearGradient x1="3.061617e-15%" y1="50%" x2="100%" y2="50%" id="n"><stop stop-color="#fff" stop-opacity=".5" offset="0%"/><stop stop-opacity=".05" offset="6.57693614%"/><stop stop-opacity=".05" offset="94.9195162%"/><stop stop-opacity=".1" offset="100%"/></linearGradient><linearGradient x1="1.41638472e-14%" y1="50%" x2="100%" y2="50%" id="o"><stop stop-color="#ecedf0" offset="0%"/><stop stop-color="#f8f8f8" offset="100%"/></linearGradient><linearGradient x1="50%" y1="85.557996%" x2="50%" y2="100%" id="p"><stop stop-color="#e3e6eb" stop-opacity="0" offset="0%"/><stop stop-color="#e3e6eb" offset="100%"/></linearGradient><path d="M157.678 4.498c22.293 0 30.826 9 30.826 31.315V352.82c0 22.32-8.532 30.865-31.726 30.865H37.125c-21.844 0-31.276-8.546-31.276-30.415V35.813c0-22.324 8.983-31.315 31.276-31.315h120.553z" id="q"/><linearGradient x1="50%" y1="1.69931452%" x2="50%" y2="98.5625914%" id="r"><stop stop-color="#b1b8c2" offset="0%"/><stop stop-color="#eceef1" offset="5.16372347%"/><stop stop-color="#edeef1" offset="92.0730893%"/><stop stop-color="#b1b8c2" offset="100%"/></linearGradient><path d="M.225 2.938C.257 1.622.464.624.596.24 1.645.495 1.8.42 1.8.42v43.778s-.328.494-1.203.612c-.12-.14-.292-.53-.37-2.47V2.94z" id="s"/><filter x="-0.0%" y="0.0%" width="100.0%" height="100.0%" id="t"><feOffset in="SourceAlpha"/><feColorMatrix values="0 0 0 0 0 0 0 0 0 0 0 0 0 0 0 0 0 0 0.3 0"/></filter><path d="M1.575 2.938c-.032-1.316 0-2.247-.383-2.76A10.85 10.85 0 0 0 0 .419v27.135c.184.118.58.28 1.192.487.233-.352.304-.404.383-2.346V2.938z" id="u"/><filter x="0.0%" y="0.0%" width="100.0%" height="100.0%" id="v"><feOffset in="SourceAlpha"/><feColorMatrix values="0 0 0 0 0 0 0 0 0 0 0 0 0 0 0 0 0 0 0.3 0"/></filter><path d="M1.575 2.938c-.032-1.316-.15-2.64-.37-2.815C.835.184.433.282 0 .42v27.135c.06.183.443.34 1.148.468.248-.294.426-.7.426-2.327V2.938z" id="w"/><linearGradient x1="3.061617e-15%" y1="50%" x2="100%" y2="50%" id="x"><stop stop-color="#d0d5da" stop-opacity="0" offset="0%"/><stop stop-color="#d0d4d9" stop-opacity="0" offset="68.4204102%"/><stop stop-color="#d0d4d9" offset="100%"/></linearGradient><path d="M1.8 1.8C1.8.724 1.527 0 1.527 0H.42L0 .42v13.64l.45.5 1.078.003s.272-1.146.272-2.408V1.8z" id="y"/><linearGradient x1="50%" y1="8.51521522%" x2="50%" y2="91.9227534%" id="z"><stop stop-color="#111" offset="0%"/><stop stop-color="#fefefe" offset="15.3527582%"/><stop stop-color="#fefefe" offset="83.1036176%"/><stop stop-color="#1d1d1d" offset="100%"/></linearGradient><linearGradient x1="50%" y1="100%" x2="50%" y2="0%" id="AA"><stop stop-color="#fff" stop-opacity=".2" offset="0%"/><stop stop-opacity=".3" offset="100%"/></linearGradient><path d="M0 1.574c0 .87.705 1.574 1.574 1.574H21.82c.87 0 1.574-.705 1.574-1.574S22.7 0 21.82 0H1.574C.705 0 0 .705 0 1.574z" id="AB"/><filter x="0.0%" y="0.0%" width="100.0%" height="100.0%" id="AC"><feOffset in="SourceAlpha"/><feComposite in2="SourceAlpha" operator="out"/><feColorMatrix values="0 0 0 0 1 0 0 0 0 1 0 0 0 0 1 0 0 0 0.5 0" result="A"/><feOffset in="SourceAlpha"/><feComposite in2="SourceAlpha" operator="out"/><feColorMatrix values="0 0 0 0 0 0 0 0 0 0 0 0 0 0 0 0 0 0 1 0" result="B"/><feMerge><feMergeNode in="A"/><feMergeNode in="B"/></feMerge></filter><linearGradient x1="29.811374%" y1="100%" x2="66.0339753%" y2="11.5454252%" id="AD"><stop stop-color="#f5f9fc" offset="0%"/><stop stop-color="#eaeaea" offset="100%"/></linearGradient><radialGradient cx="75%" cy="37.5%" fx="75%" fy="37.5%" r="67.4973034%" gradientTransform="translate(0.750000,0.375000),scale(1.000000,0.999841),rotate(90.000000),translate(-0.750000,-0.375000)" id="AE"><stop stop-color="#fff" offset="0%"/><stop stop-color="#dbdbdc" offset="100%"/></radialGradient><circle id="AF" cx="3.599" cy="3.374" r="1.799"/><linearGradient x1="39.3320026%" y1="0%" x2="60.6679974%" y2="100%" id="AG"><stop stop-color="#4082ff" offset="0%"/><stop stop-color="#6040ff" offset="100%"/></linearGradient><path id="AH" d="M-.798-.45S.3-.592.45 2.7v21.516c0 3.718-1.08 3.917-1.248 4.123l-.102-.65c.624-.928.726-2.06.726-3.825V4.482c0-2.105-.45-4.148-.624-4.14V-.45z"/></defs><g transform="translate(32 20)" fill="none" fill-rule="evenodd"><g transform="matrix(.984808 .173648 -.173648 .984808 206.105613 .112503)"><use filter="url(#B)" xlink:href="#A" class="K"/><use xlink:href="#A" class="N"/><g transform="translate(7 77.396)"><g transform="translate(0 82.729)"><mask id="AI" class="L"><use xlink:href="#D"/></mask><use xlink:href="#D" class="N"/><use xlink:href="#D" class="Q R"/><rect mask="url(#AI)" x="-.758" width="1.515" height="26.821" rx=".758" class="S"/></g><mask id="AJ" class="L"><use xlink:href="#E"/></mask><use xlink:href="#E" class="N"/><use xlink:href="#E" class="Q R"/><rect mask="url(#AJ)" x="-.758" width="1.515" height="58.174" rx=".758" class="S"/><g mask="url(#AJ)" class="K"><use filter="url(#G)" xlink:href="#F"/></g><g transform="translate(192.459 59.308)"><mask id="AK" class="L"><use xlink:href="#H"/></mask><use xlink:href="#H" class="N"/><use xlink:href="#H" class="Q R"/><path d="M2.652.752v25.316c0 .413-.34.752-.758.752s-.758-.337-.758-.752V.752c0-.413.34-.752.758-.752s.758.337.758.752z" mask="url(#AK)" class="S"/><g mask="url(#AK)" class="K"><use filter="url(#J)" xlink:href="#I"/></g></g></g><use filter="url(#N)" xlink:href="#M" class="K"/><path stroke="url(#L)" d="M10.28 36.965V393.38c0 7.283 2.53 13.797 7.088 18.168 4.016 3.85 9.784 5.573 18.06 6.127 10.753.72 21.595.983 35.3.962l15.772-.103 17.54-.104 69.263-.755c7.1-.226 12.943-2.194 17.608-6.137 4.6-3.897 7.53-11.7 7.53-19.3V37.72c0-11.48-2.85-18.076-9.726-22.53-2.097-1.358-4.088-2.337-6.133-3.03-3.553-1.203-6.48-1.5-13.833-1.723l-1.12-.032H44.515c-13.287.596-20.338 1.74-25.218 5.3-5.582 4.073-9.016 12.65-9.016 21.26z" fill="url(#K)" class="T Z"/><g transform="translate(154.375 17.333)"><use xlink:href="#P" class="K M"/><use xlink:href="#P" class="U"/><g class="O"><use filter="url(#T)" xlink:href="#S" class="K"/><use fill="url(#R)" xlink:href="#S"/></g></g><g transform="translate(135.811 15.444)" class="O"><use xlink:href="#U" class="K M"/><use xlink:href="#U" class="U"/><use filter="url(#X)" xlink:href="#W" class="K"/><use fill="url(#V)" xlink:href="#W"/></g><rect x="91.96" y="18.938" width="25.571" height="3.589" rx="1.795" fill="#ececec" stroke="url(#Y)" stroke-width=".567"/><g transform="translate(71.784 18.844)"><use xlink:href="#a" class="K M"/><use xlink:href="#a" class="V"/><use xlink:href="#c" class="K W"/><use xlink:href="#c" class="X"/></g><g transform="translate(63.071 18.844)"><use xlink:href="#j" href="#a" class="K M"/><use xlink:href="#j" href="#a" class="V"/><use xlink:href="#l" href="#c" class="K W"/><use xlink:href="#l" href="#c" class="X"/></g><g transform="translate(46.022 15.444)"><use xlink:href="#e" class="K M"/><use xlink:href="#e" class="U"/><g class="O"><use filter="url(#g)" xlink:href="#f" class="K"/><use fill="url(#R)" xlink:href="#f"/></g></g><g transform="translate(35.414 18.088)"><use xlink:href="#t" href="#a" class="K M"/><use xlink:href="#t" href="#a" class="V"/><use xlink:href="#v" href="#c" class="K W"/><use xlink:href="#v" href="#c" class="X"/></g><path d="M13.44 46.44c0-9.4 7.6-17.02 17.006-17.02h147.84c9.392 0 17.006 7.617 17.006 17.02v339.565c0 8.98-7.27 16.26-16.258 16.26H29.7c-8.98 0-16.258-7.28-16.258-16.26V46.44z" fill="url(#h)"/><path d="M114.713 194.497v15.597c0 1.436-1.166 2.6-2.604 2.6h-1.73V218c0 1.332-1.08 2.41-2.415 2.41s-2.415-1.08-2.415-2.41v-5.316h-3.215V218c0 1.332-1.08 2.41-2.415 2.41s-2.415-1.08-2.415-2.41v-5.316h-1.73c-1.438 0-2.604-1.164-2.604-2.6v-15.597h21.544zm2.106-.093a2.42 2.42 0 0 1 2.415 0 2.41 2.41 0 0 1 1.207 2.088v10.047c0 1.332-1.08 2.41-2.415 2.41s-2.415-1.08-2.415-2.41v-10.047a2.41 2.41 0 0 1 1.207-2.088zm-26.963-.323c1.334 0 2.415 1.08 2.415 2.41v10.047c0 1.332-1.08 2.41-2.415 2.41s-2.415-1.08-2.415-2.41v-10.047c0-1.332 1.08-2.41 2.415-2.41zm20.776-12.66a.43.43 0 0 1 .163.045c.082.04.142.114.167.202s.01.182-.037.26l-1.705 3.074c3.31 1.623 5.433 4.96 5.493 8.644H93.17c.06-3.686 2.188-7.027 5.507-8.644l-1.705-3.074a.33.33 0 0 1 .13-.461c.164-.088.37-.03.462.13l1.712 3.113a11.59 11.59 0 0 1 9.334 0l1.725-3.113c.058-.11.174-.18.3-.175zm-11.32 6.55c-.34-.14-.73-.065-.99.195a.9.9 0 0 0-.195.987c.142.338.474.557.84.555a.9.9 0 0 0 .898-.897c.003-.367-.217-.698-.555-.84zm9.946 0c-.34-.14-.73-.065-.99.195a.9.9 0 0 0-.195.987c.142.338.474.557.84.555a.9.9 0 0 0 .635-.263c.168-.168.263-.396.263-.634.003-.367-.217-.698-.555-.84z" fill="#e2e2e2"/></g><g transform="matrix(.984808 -.173648 .173648 .984808 .706674 74.952574)"><use filter="url(#l)" xlink:href="#k" class="K"/><use fill="url(#i)" xlink:href="#k"/><use fill="url(#j)" xlink:href="#k"/><path d="M157.496 3.15c22.3 0 32.808 9.185 32.808 31.486V354.45c0 22.297-10.517 31.037-32.808 31.037H37.307c-22.292 0-33.258-8.74-33.258-31.037V34.635C4.05 12.334 15.017 3.15 37.307 3.15h120.188z" stroke="url(#n)" fill="url(#m)" class="T"/><use fill="url(#o)" xlink:href="#q"/><use fill="url(#p)" xlink:href="#q"/><g transform="translate(192.553 89.512)"><mask id="AL" class="L"><use xlink:href="#s"/></mask><use filter="url(#t)" xlink:href="#s" class="K"/><use xlink:href="#s" class="P"/><path d="M2.598-.45S1.5-.592 1.35 2.7v38.16c0 3.718 1.08 3.917 1.248 4.123l.102-.65c-.624-.928-.726-2.06-.726-3.825V4.482c0-2.105.45-4.148.624-4.14V-.45z" fill="#f7faff" mask="url(#AL)"/></g><g transform="translate(.45 80.515)"><g transform="translate(0 35.535)"><mask id="AM" class="L"><use xlink:href="#u"/></mask><use xlink:href="#u" class="K Y"/><use xlink:href="#u" class="P"/><use xlink:href="#AH" fill="#d0d5da" mask="url(#AM)"/></g><mask id="AN" class="L"><use xlink:href="#w"/></mask><use xlink:href="#w" class="K Y"/><use xlink:href="#w" class="P"/><use xlink:href="#AH" fill="#d0d5da" mask="url(#AN)"/></g><g transform="translate(0 52.627)"><mask id="AO" class="L"><use xlink:href="#y"/></mask><use xlink:href="#y" class="K Y"/><use xlink:href="#y" class="P"/><use fill="url(#x)" xlink:href="#y"/><path d="M0-.9c-.073 0 .675.812.675 2.83v9.984c0 3.183-.705 3.064-.826 3.273l-.073-.658c.45-.94.45-1.947.45-2.834V2.7c0-1.276-.252-2.806-.376-2.797L0-.9z" fill="url(#z)" style="mix-blend-mode:soft-light" mask="url(#AO)"/></g><g transform="translate(85.479 13.944)"><use filter="url(#AC)" xlink:href="#AB" class="K"/><path stroke="url(#AA)" d="M.25 1.574c0 .73.593 1.324 1.324 1.324H21.82c.73 0 1.324-.593 1.324-1.324S22.55.25 21.82.25H1.574C.843.25.25.843.25 1.574z" fill="#eef0f1" class="T Z"/></g><g transform="matrix(.275637 -.961262 .961262 .275637 113.636208 18.04838)"><circle fill="url(#AD)" cx="3.599" cy="3.374" r="2.699"/><use fill="url(#AE)" xlink:href="#AF"/></g><path d="M48.14 11.695a2.25 2.25 0 0 1 2.249 2.249v1.35a9.9 9.9 0 0 0 9.898 9.896h74.232a9.9 9.9 0 0 0 9.898-9.896v-1.35a2.25 2.25 0 0 1 2.249-2.249H164.2a17.54 17.54 0 0 1 17.546 17.542v330.158c0 9.688-7.856 17.542-17.546 17.542H30.593a17.54 17.54 0 0 1-17.546-17.542V29.237c0-9.688 7.856-17.542 17.546-17.542H48.14z" fill="url(#AG)"/><path d="M108.63 180.965c-.047-5.07 4.188-7.5 4.377-7.62-1.7-2.416-4.454-3.9-7.43-4.003-3.155-.314-6.16 1.835-7.762 1.835s-4.053-1.788-6.688-1.74c-3.494.097-6.68 2.003-8.383 5.017-3.574 6.13-.912 15.205 2.567 20.17 1.702 2.435 3.736 5.164 6.397 5.07s3.54-1.64 6.64-1.64 3.98 1.64 6.695 1.588 4.513-2.475 6.2-4.917a21.97 21.97 0 0 0 2.803-5.69c-3.268-1.387-5.395-4.553-5.418-8.066zm-5.1-14.878c1.53-1.772 2.288-4.07 2.108-6.392a9.13 9.13 0 0 0-5.972 3.03c-1.3 1.5-2.46 3.896-2.148 6.198 2.27.173 4.594-1.14 6.012-2.836z" fill="#e2e2e2" class="O"/></g></g></svg>