<svg xmlns="http://www.w3.org/2000/svg" xmlns:xlink="http://www.w3.org/1999/xlink" width="468" height="517"><defs><path d="M8.894 37.72c0-22.66 10.61-30.287 26.517-30.966 23.36-.998 113.776-.806 136.394 0 19.696.702 28.032 11.702 28.032 30.21V391.12c0 18.883-9.095 30.015-25.76 30.8-23.854 1.11-116.47 1.52-139.803.176-16.284-.938-25.38-11.324-25.38-28.322V37.72z" id="A"/><filter x="-19.6%" y="-6.6%" width="134.0%" height="115.6%" id="B"><feOffset dx="-5" dy="5" in="SourceAlpha"/><feGaussianBlur stdDeviation="10"/><feColorMatrix values="0 0 0 0 0.317647059 0 0 0 0 0.368627451 0 0 0 0 1 0 0 0 0.1 0"/></filter><linearGradient x1="50%" y1="100%" x2="50%" y2="0%" id="C"><stop stop-opacity=".3" offset="0%"/><stop stop-opacity=".2" offset="1.95243728%"/><stop stop-opacity="0" offset="4.40897337%"/><stop stop-color="#939393" stop-opacity="0" offset="96.3069432%"/><stop stop-opacity=".2" offset="99.0145597%"/><stop stop-opacity=".3" offset="100%"/></linearGradient><path d="M1.004 0h.815c.104 0 .19.085.19.19v26.443c0 .104-.085.19-.19.19h-.815C.45 26.82 0 26.37 0 25.817V1.004C0 .45.45 0 1.004 0z" id="D"/><path d="M1.004 0h.815c.104 0 .19.085.19.19v57.796c0 .104-.085.19-.19.19h-.815C.45 58.174 0 57.725 0 57.17V1.004C0 .45.45 0 1.004 0z" id="E"/><path d="M0 1c0-.558.446-1 1.004-1h1.004v58.174H1.004c-.554 0-1.004-.45-1.004-1V1z" id="F"/><filter x="-49.8%" y="-1.7%" width="199.6%" height="103.4%" id="G"><feGaussianBlur stdDeviation=".5" in="SourceAlpha"/><feOffset dy="1"/><feComposite in2="SourceAlpha" operator="arithmetic" k2="-1" k3="1"/><feColorMatrix values="0 0 0 0 0 0 0 0 0 0 0 0 0 0 0 0 0 0 0.201086957 0"/></filter><path d="M1.042 0a.85.85 0 0 1 .852.85v25.12a.85.85 0 0 1-.852.85H.38a.19.19 0 0 1-.189-.189V.19A.19.19 0 0 1 .379 0h.663z" id="H"/><path d="M1.894.885v25.05a.89.89 0 0 1-.89.885h-.9V0h.9c.495 0 .9.396.9.885z" id="I"/><filter x="-56.2%" y="-3.7%" width="212.3%" height="107.5%" id="J"><feGaussianBlur stdDeviation=".5" in="SourceAlpha"/><feOffset dy="1"/><feComposite in2="SourceAlpha" operator="arithmetic" k2="-1" k3="1"/><feColorMatrix values="0 0 0 0 0 0 0 0 0 0 0 0 0 0 0 0 0 0 0.201086957 0"/></filter><linearGradient x1="3.061617e-15%" y1="50%" x2="100%" y2="50%" id="K"><stop stop-color="#e2e2e2" offset="0%"/><stop stop-color="#f7f7f7" offset="6.76769578%"/><stop stop-color="#f7f7f7" offset="94.290443%"/><stop stop-color="#e1e1e1" offset="100%"/></linearGradient><linearGradient x1="50%" y1="0%" x2="50%" y2="100%" id="L"><stop stop-color="#fff" offset="0%"/><stop stop-color="#dadada" offset="2.3021423%"/><stop stop-color="#d8d8d8" offset="95.5220728%"/><stop stop-color="#dbdbdb" offset="100%"/></linearGradient><path d="M10.03 36.965c0-8.028 3.094-17.064 9.12-21.46s17.272-4.986 25.354-5.35h123.134c8.887.257 14.262.314 21.223 4.825s9.84 11.195 9.84 22.74v354.526c0 7.193-2.697 15.32-7.62 19.48s-10.96 5.98-17.762 6.196c-23.678.755-45.802.755-69.27.755-23.258 0-45.308.807-68.638-.755-6.695-.448-13.574-1.746-18.215-6.196s-7.165-11.05-7.165-18.348V36.965z" id="M"/><filter x="-2.7%" y="-1.7%" width="105.3%" height="103.2%" id="N"><feOffset dy="2" in="SourceAlpha"/><feGaussianBlur stdDeviation=".5"/><feComposite in2="SourceAlpha" operator="out"/><feColorMatrix values="0 0 0 0 1 0 0 0 0 1 0 0 0 0 1 0 0 0 1 0" result="C"/><feOffset dy="-2" in="SourceAlpha"/><feGaussianBlur stdDeviation="1"/><feComposite in2="SourceAlpha" operator="out"/><feColorMatrix values="0 0 0 0 1 0 0 0 0 1 0 0 0 0 1 0 0 0 1 0" result="F"/><feMorphology radius="0.5" operator="dilate" in="SourceAlpha"/><feOffset/><feComposite in2="SourceAlpha" operator="out"/><feColorMatrix values="0 0 0 0 1 0 0 0 0 1 0 0 0 0 1 0 0 0 0.5 0" result="I"/><feOffset dy="1" in="SourceAlpha"/><feGaussianBlur stdDeviation=".5"/><feComposite in2="SourceAlpha" operator="out"/><feColorMatrix values="0 0 0 0 0 0 0 0 0 0 0 0 0 0 0 0 0 0 0.0972033514 0" result="L"/><feOffset dy="-1" in="SourceAlpha"/><feGaussianBlur stdDeviation=".5"/><feComposite in2="SourceAlpha" operator="out"/><feColorMatrix values="0 0 0 0 0 0 0 0 0 0 0 0 0 0 0 0 0 0 0.103062726 0" result="O"/><feMerge><feMergeNode in="C"/><feMergeNode in="F"/><feMergeNode in="I"/><feMergeNode in="L"/><feMergeNode in="O"/></feMerge></filter><linearGradient x1="50%" y1="100%" x2="50%" y2="0%" id="O"><stop stop-color="#fff" offset="0%"/><stop stop-color="#ececec" offset="37.190194%"/><stop stop-color="#e3e3e3" offset="100%"/></linearGradient><ellipse id="P" cx="3.372" cy="3.361" rx="3.372" ry="3.361"/><filter x="0.0%" y="0.0%" width="100.0%" height="100.0%" id="Q"><feOffset in="SourceAlpha"/><feColorMatrix values="0 0 0 0 1 0 0 0 0 1 0 0 0 0 1 0 0 0 1 0"/></filter><radialGradient cx="50%" cy="13.4558105%" fx="50%" fy="13.4558105%" r="82.6131517%" gradientTransform="translate(0.500000,0.134558),scale(0.996839,1.000000),rotate(90.000000),translate(-0.500000,-0.134558)" id="R"><stop stop-color="#f7f7f7" offset="0%"/><stop stop-color="#dbdbdb" offset="100%"/></radialGradient><path d="M3.372 5.607a2.25 2.25 0 0 1-2.253-2.245 2.25 2.25 0 0 1 2.253-2.245 2.25 2.25 0 0 1 2.253 2.245 2.25 2.25 0 0 1-2.253 2.245z" id="S"/><filter x="-33.3%" y="-33.4%" width="166.6%" height="166.8%" id="T"><feOffset in="SourceAlpha"/><feGaussianBlur stdDeviation=".5"/><feColorMatrix values="0 0 0 0 0 0 0 0 0 0 0 0 0 0 0 0 0 0 0.152994792 0"/></filter><path d="M5.493 10.955C2.46 10.955 0 8.503 0 5.477S2.46 0 5.493 0s5.493 2.452 5.493 5.477-2.46 5.477-5.493 5.477z" id="U"/><radialGradient cx="50%" cy="13.4558105%" fx="50%" fy="13.4558105%" r="82.6131517%" gradientTransform="translate(0.500000,0.134558),scale(0.997097,1.000000),rotate(90.000000),translate(-0.500000,-0.134558)" id="V"><stop stop-color="#f7f7f7" offset="0%"/><stop stop-color="#dbdbdb" offset="100%"/></radialGradient><path d="M5.493 9.066c-1.988 0-3.6-1.607-3.6-3.59s1.61-3.59 3.6-3.59 3.6 1.607 3.6 3.59-1.61 3.59-3.6 3.59z" id="W"/><filter x="-20.8%" y="-20.9%" width="141.7%" height="141.8%" id="X"><feOffset in="SourceAlpha"/><feGaussianBlur stdDeviation=".5"/><feColorMatrix values="0 0 0 0 0 0 0 0 0 0 0 0 0 0 0 0 0 0 0.152994792 0"/></filter><linearGradient x1="50%" y1="0%" x2="50%" y2="100%" id="Y"><stop stop-color="#dcdbdb" offset="0%"/><stop stop-color="#fff" offset="100%"/></linearGradient><path d="M2.273 4.533a2.27 2.27 0 0 0 2.273-2.267A2.27 2.27 0 0 0 2.273 0 2.27 2.27 0 0 0 0 2.267a2.27 2.27 0 0 0 2.273 2.267z" id="Z"/><path d="M2.273 3.59c.732 0 1.326-.592 1.326-1.322S3.005.944 2.273.944.947 1.536.947 2.267 1.54 3.59 2.273 3.59z" id="a"/><filter x="-56.6%" y="-56.7%" width="213.1%" height="213.5%" id="b"><feOffset in="SourceAlpha"/><feGaussianBlur stdDeviation=".5"/><feColorMatrix values="0 0 0 0 0 0 0 0 0 0 0 0 0 0 0 0 0 0 0.152994792 0"/></filter><ellipse id="c" cx="4.87" cy="4.855" rx="4.87" ry="4.855"/><path d="M4.87 8.9C2.63 8.9.812 7.1.812 4.855S2.63.81 4.87.81s4.06 1.81 4.06 4.046S7.112 8.9 4.87 8.9z" id="d"/><filter x="-18.5%" y="-18.5%" width="137.0%" height="137.1%" id="e"><feOffset in="SourceAlpha"/><feGaussianBlur stdDeviation=".5"/><feColorMatrix values="0 0 0 0 0 0 0 0 0 0 0 0 0 0 0 0 0 0 0.152994792 0"/></filter><linearGradient x1="38.105577%" y1="0%" x2="61.894423%" y2="100%" id="f"><stop stop-color="#4082ff" offset="0%"/><stop stop-color="#6040ff" offset="100%"/></linearGradient></defs><g transform="matrix(.984808 .173648 -.173648 .984808 238.105613 26.112503)" fill="none" fill-rule="evenodd"><use fill="#000" filter="url(#B)" xlink:href="#A"/><use fill="#f5f5f5" xlink:href="#A"/><g transform="translate(7 77.396)"><g transform="translate(0 82.729)"><mask id="g" fill="#fff"><use xlink:href="#D"/></mask><use fill="#f5f5f5" xlink:href="#D"/><use fill-opacity=".5" fill="url(#C)" xlink:href="#D"/><rect fill="#f0f0f0" mask="url(#g)" x="-.758" width="1.515" height="26.821" rx=".758"/></g><mask id="h" fill="#fff"><use xlink:href="#E"/></mask><use fill="#f5f5f5" xlink:href="#E"/><use fill-opacity=".5" fill="url(#C)" xlink:href="#E"/><rect fill="#f0f0f0" mask="url(#h)" x="-.758" width="1.515" height="58.174" rx=".758"/><g mask="url(#h)" fill="#000"><use filter="url(#G)" xlink:href="#F"/></g><g transform="translate(192.459 59.308)"><mask id="i" fill="#fff"><use xlink:href="#H"/></mask><use fill="#f5f5f5" xlink:href="#H"/><use fill-opacity=".5" fill="url(#C)" xlink:href="#H"/><path d="M2.652.752v25.316c0 .413-.34.752-.758.752s-.758-.337-.758-.752V.752c0-.413.34-.752.758-.752s.758.337.758.752z" fill="#f0f0f0" mask="url(#i)"/><g mask="url(#i)" fill="#000"><use filter="url(#J)" xlink:href="#I"/></g></g></g><use fill="#000" filter="url(#N)" xlink:href="#M"/><path stroke="url(#L)" stroke-width=".5" d="M10.28 36.965V393.38c0 7.283 2.53 13.797 7.088 18.168 4.016 3.85 9.784 5.573 18.06 6.127 10.753.72 21.595.983 35.31.962l15.772-.103 17.54-.104 69.263-.755c7.1-.226 12.943-2.194 17.608-6.137 4.61-3.897 7.53-11.7 7.53-19.3V37.72c0-11.48-2.85-18.076-9.726-22.53-2.097-1.358-4.088-2.337-6.133-3.03-3.553-1.203-6.48-1.5-13.833-1.723l-1.12-.032H44.515c-13.287.596-20.338 1.74-25.218 5.3-5.582 4.073-9.016 12.65-9.016 21.26z" stroke-linejoin="square" fill="url(#K)"/><g transform="translate(154.375 17.333)"><use fill="#000" filter="url(#Q)" xlink:href="#P"/><use fill="url(#O)" xlink:href="#P"/><g fill-rule="nonzero"><use fill="#000" filter="url(#T)" xlink:href="#S"/><use fill="url(#R)" xlink:href="#S"/></g></g><g transform="translate(135.811 15.444)" fill-rule="nonzero"><use fill="#000" filter="url(#Q)" xlink:href="#U"/><use fill="url(#O)" xlink:href="#U"/><use fill="#000" filter="url(#X)" xlink:href="#W"/><use fill="url(#V)" xlink:href="#W"/></g><rect x="91.96" y="18.938" width="25.571" height="3.589" rx="1.795" fill="#ececec" stroke="url(#Y)" stroke-width=".567"/><g transform="translate(71.784 18.844)"><use fill="#000" filter="url(#Q)" xlink:href="#Z"/><use fill="url(#O)" xlink:href="#Z"/><use fill="#000" filter="url(#b)" xlink:href="#a"/><use fill="url(#V)" xlink:href="#a"/></g><g transform="translate(63.071 18.844)"><use fill="#000" filter="url(#Q)" xlink:href="#j" href="#Z"/><use fill="url(#O)" xlink:href="#j" href="#Z"/><use fill="#000" filter="url(#b)" xlink:href="#l" href="#a"/><use fill="url(#V)" xlink:href="#l" href="#a"/></g><g transform="translate(46.022 15.444)"><use fill="#000" filter="url(#Q)" xlink:href="#c"/><use fill="url(#O)" xlink:href="#c"/><g fill-rule="nonzero"><use fill="#000" filter="url(#e)" xlink:href="#d"/><use fill="url(#R)" xlink:href="#d"/></g></g><g transform="translate(35.414 18.088)"><use fill="#000" filter="url(#Q)" xlink:href="#t" href="#Z"/><use fill="url(#O)" xlink:href="#t" href="#Z"/><use fill="#000" filter="url(#b)" xlink:href="#v" href="#a"/><use fill="url(#V)" xlink:href="#v" href="#a"/></g><path d="M13.44 46.44c0-9.4 7.61-17.02 17.006-17.02h147.84c9.392 0 17.006 7.617 17.006 17.02v339.565c0 8.98-7.27 16.26-16.258 16.26H29.7c-8.98 0-16.258-7.28-16.258-16.26V46.44z" fill="url(#f)"/><path d="M114.713 194.497v15.597c0 1.436-1.166 2.6-2.604 2.6h-1.73V218c0 1.332-1.08 2.41-2.415 2.41s-2.415-1.08-2.415-2.41v-5.316h-3.215V218c0 1.332-1.08 2.41-2.415 2.41s-2.415-1.08-2.415-2.41v-5.316h-1.73c-1.438 0-2.604-1.164-2.604-2.6v-15.597h21.544zm2.106-.093a2.42 2.42 0 0 1 2.415 0 2.41 2.41 0 0 1 1.207 2.088v10.047c0 1.332-1.08 2.41-2.415 2.41s-2.415-1.08-2.415-2.41v-10.047a2.41 2.41 0 0 1 1.207-2.088zm-26.963-.323c1.334 0 2.415 1.08 2.415 2.41v10.047c0 1.332-1.08 2.41-2.415 2.41s-2.415-1.08-2.415-2.41v-10.047c0-1.332 1.08-2.41 2.415-2.41zm20.776-12.66a.43.43 0 0 1 .163.045c.082.04.142.114.167.202s.01.182-.037.26l-1.705 3.074c3.31 1.623 5.433 4.96 5.493 8.644H93.17c.06-3.686 2.188-7.027 5.507-8.644l-1.705-3.074a.33.33 0 0 1 .13-.461c.164-.088.37-.03.462.13l1.712 3.113a11.59 11.59 0 0 1 9.334 0l1.725-3.113c.058-.11.174-.18.3-.175zm-11.32 6.55c-.34-.14-.73-.065-.99.195a.9.9 0 0 0-.195.987c.142.338.474.557.84.555a.9.9 0 0 0 .898-.897c.003-.367-.217-.698-.555-.84zm9.946 0c-.34-.14-.73-.065-.99.195a.9.9 0 0 0-.195.987c.142.338.474.557.84.555a.9.9 0 0 0 .635-.263c.168-.168.263-.396.263-.634.003-.367-.217-.698-.555-.84z" fill="#e2e2e2"/></g></svg>