<svg xmlns="http://www.w3.org/2000/svg" width="800" height="450"><defs><linearGradient x1="5.31827031%" y1="35.6515657%" x2="95.1835728%" y2="64.3523732%" id="A"><stop stop-color="#4082ff" offset="0%"/><stop stop-color="#6040ff" offset="100%"/></linearGradient><linearGradient x1="-53.1399366%" y1="11.6505306%" x2="171.072754%" y2="90.6990208%" id="B"><stop stop-color="#4082ff" offset="0%"/><stop stop-color="#6040ff" offset="100%"/></linearGradient></defs><g fill="none" fill-rule="evenodd"><path fill="url(#A)" d="M0 0h800v450H0z"/><path d="M800.5 222.5l-223 226m0-448l223 222M448 .54v450m199-450v450M0 70.85l800.5 1M.5 223.5l215 227M211.748 0L.5 222.5M145 .54v450m199-450v450M0 223.04h801m-801 153h801m-538.2 71.546c50.71-61.01 81.2-139.46 81.2-225.046 0-83.184-28.814-159.63-76.99-219.87m262.2 444.917C478.5 386.575 448 308.125 448 222.54c0-83.184 28.814-159.63 76.99-219.87M1.93 440.38C117.593 435.95 210 340.787 210 224.04 210 107.1 117.302 11.83 1.384 7.68M800 440.402c-119.314 0-215-99.615-215-216.362C585 107.1 683.116 7.642 800 7.642M2.424 375.227C82.575 370.145 146 303.95 146 223.04 146 141.973 82.33 75.68 1.962 70.825M800 375.956c-79.53 0-153-72.005-153-152.916 0-81.067 73.03-151.106 153-151.106" stroke="url(#B)" stroke-width="2.5" stroke-linecap="square"/></g></svg>