<svg xmlns="http://www.w3.org/2000/svg" xmlns:xlink="http://www.w3.org/1999/xlink" width="321" height="260"><defs><rect id="A" x="125" width="172" height="20" rx="4"/><filter x="-12.2%" y="-75.0%" width="124.4%" height="310.0%" id="B"><feOffset dy="6" in="SourceAlpha"/><feGaussianBlur stdDeviation="6"/><feColorMatrix values="0 0 0 0 0.317647059 0 0 0 0 0.368627451 0 0 0 0 1 0 0 0 0.15 0"/></filter><linearGradient x1="0%" y1="48.185941%" x2="100%" y2="51.814059%" id="C"><stop stop-color="#4082ff" offset="0%"/><stop stop-color="#5040ff" offset="100%"/></linearGradient><rect id="D" width="105" height="20" rx="4"/><filter x="-20.0%" y="-75.0%" width="140.0%" height="310.0%" id="E"><feOffset dy="6" in="SourceAlpha"/><feGaussianBlur stdDeviation="6"/><feColorMatrix values="0 0 0 0 0.317647059 0 0 0 0 0.368627451 0 0 0 0 1 0 0 0 0.25 0"/></filter><linearGradient x1="0%" y1="47.096821%" x2="100%" y2="52.903179%" id="F"><stop stop-color="#4082ff" offset="0%"/><stop stop-color="#5040ff" offset="100%"/></linearGradient><rect id="G" x="214" y="72" width="83" height="20" rx="4"/><filter x="-25.3%" y="-75.0%" width="150.6%" height="310.0%" id="H"><feOffset dy="6" in="SourceAlpha"/><feGaussianBlur stdDeviation="6"/><feColorMatrix values="0 0 0 0 0.317647059 0 0 0 0 0.368627451 0 0 0 0 1 0 0 0 0.25 0"/></filter><rect id="I" y="36" width="297" height="20" rx="4"/><filter x="-7.1%" y="-75.0%" width="114.1%" height="310.0%" id="J"><feOffset dy="6" in="SourceAlpha"/><feGaussianBlur stdDeviation="6"/><feColorMatrix values="0 0 0 0 0.317647059 0 0 0 0 0.368627451 0 0 0 0 1 0 0 0 0.15 0"/></filter><rect id="K" y="72" width="194" height="20" rx="4"/><filter x="-10.8%" y="-75.0%" width="121.6%" height="310.0%" id="L"><feOffset dy="6" in="SourceAlpha"/><feGaussianBlur stdDeviation="6"/><feColorMatrix values="0 0 0 0 0.317647059 0 0 0 0 0.368627451 0 0 0 0 1 0 0 0 0.15 0"/></filter><linearGradient x1="0%" y1="42.9124722%" x2="100%" y2="57.0875278%" id="M"><stop stop-color="#4082ff" offset="0%"/><stop stop-color="#5040ff" offset="100%"/></linearGradient><path d="M148.447 107.003l.063-.001a2.97 2.97 0 0 1 1.7.547l49.7 35.138 3.426-4.897.1-.13a2.1 2.1 0 0 1 3.469.337l9.403 17.438a2.1 2.1 0 0 1-2.233 2.933L194.7 155.42l-.147-.028a2.1 2.1 0 0 1-1.613-2.364l.038-.2a2.1 2.1 0 0 1 .318-.698l3.18-4.544-48.086-34-48.294 34 3.2 4.54a2.1 2.1 0 0 1 .32.702l.038.2a2.1 2.1 0 0 1-1.614 2.363l-.147.028-19.475 2.95a2.1 2.1 0 0 1-2.23-2.936l.07-.14 9.383-17.3a2.1 2.1 0 0 1 3.465-.337l.1.13 3.453 4.913 49.93-35.14a2.99 2.99 0 0 1 1.862-.544z" id="N"/><filter x="-15.4%" y="-29.2%" width="130.8%" height="181.7%" id="O"><feOffset dy="6" in="SourceAlpha"/><feGaussianBlur stdDeviation="6"/><feColorMatrix values="0 0 0 0 0.317647059 0 0 0 0 0.368627451 0 0 0 0 1 0 0 0 0.25 0"/></filter><linearGradient x1="13.875%" y1="0%" x2="86.125%" y2="100%" id="P"><stop stop-color="#4082ff" offset="0%"/><stop stop-color="#5040ff" offset="100%"/></linearGradient><path d="M285.197 26.822v31.995c0 2.945-2.402 5.332-5.365 5.332h-3.568v10.905c0 2.732-2.228 4.946-4.976 4.946s-4.976-2.214-4.976-4.946V64.15h-6.626v10.905c0 2.732-2.228 4.946-4.976 4.946s-4.976-2.214-4.976-4.946V64.15h-3.568c-2.963 0-5.365-2.387-5.365-5.332V26.822h44.394zm4.34-.2a5 5 0 0 1 4.976 0A4.94 4.94 0 0 1 297 30.915v20.6c0 2.732-2.228 4.946-4.976 4.946s-4.976-2.214-4.976-4.946v-20.6a4.94 4.94 0 0 1 2.488-4.283zm-55.56-.663c2.748 0 4.976 2.214 4.976 4.946v20.6c0 2.732-2.228 4.946-4.976 4.946S229 54.256 229 51.525v-20.6c0-2.732 2.228-4.946 4.976-4.946zM276.788 0a.89.89 0 0 1 .335.093.67.67 0 0 1 .344.415.66.66 0 0 1-.076.532l-3.514 6.306c6.824 3.328 11.196 10.176 11.32 17.73h-44.394c.123-7.562 4.508-14.414 11.347-17.73l-3.514-6.306a.68.68 0 0 1-.07-.53.68.68 0 0 1 .338-.416c.338-.18.76-.063.952.267l3.527 6.386a23.98 23.98 0 0 1 19.233 0L276.17.36a.67.67 0 0 1 .617-.36zM253.46 13.435c-.698-.3-1.503-.133-2.038.4s-.694 1.332-.402 2.026.977 1.143 1.733 1.138c1.022 0 1.85-.824 1.85-1.84.005-.752-.447-1.432-1.145-1.723zm20.494 0c-.698-.3-1.503-.133-2.038.4s-.694 1.332-.402 2.026.977 1.143 1.733 1.138a1.86 1.86 0 0 0 1.31-.54 1.83 1.83 0 0 0 .542-1.3c.005-.752-.447-1.432-1.145-1.723z" id="Q"/><filter x="-30.9%" y="-18.7%" width="161.8%" height="152.5%" id="R"><feOffset dy="6" in="SourceAlpha"/><feGaussianBlur stdDeviation="6"/><feColorMatrix values="0 0 0 0 0.317647059 0 0 0 0 0.368627451 0 0 0 0 1 0 0 0 0.25 0"/></filter><linearGradient x1="16.9921875%" y1="0%" x2="83.0078125%" y2="100%" id="S"><stop stop-color="#4082ff" offset="0%"/><stop stop-color="#5040ff" offset="100%"/></linearGradient><path d="M54.33 42.54c-.093-10.14 8.25-14.998 8.622-15.238a18.62 18.62 0 0 0-14.637-8.006c-6.214-.627-12.135 3.67-15.288 3.67s-7.984-3.576-13.173-3.483A19.54 19.54 0 0 0 3.34 29.516c-7.04 12.263-1.796 30.4 5.056 40.338 3.353 4.87 7.358 10.328 12.6 10.14s6.972-3.283 13.08-3.283 7.837 3.283 13.186 3.176 8.888-4.95 12.215-9.834c2.376-3.5 4.235-7.342 5.522-11.382-6.438-2.773-10.627-9.106-10.67-16.133zM44.283 12.783A17.66 17.66 0 0 0 48.434 0a17.91 17.91 0 0 0-11.762 6.058c-2.58 3.002-4.843 7.793-4.23 12.396 4.47.347 9.048-2.282 11.842-5.67z" id="T"/><filter x="-32.3%" y="-18.8%" width="164.6%" height="152.5%" id="U"><feOffset dy="6" in="SourceAlpha"/><feGaussianBlur stdDeviation="6"/><feColorMatrix values="0 0 0 0 0.317647059 0 0 0 0 0.368627451 0 0 0 0 1 0 0 0 0.25 0"/></filter></defs><g transform="translate(12 6)" fill="none" fill-rule="evenodd"><use fill="#000" filter="url(#B)" xlink:href="#A"/><use fill="#fff" xlink:href="#A"/><use fill="#000" filter="url(#E)" xlink:href="#D"/><use fill="url(#C)" xlink:href="#D"/><use fill="#000" filter="url(#H)" xlink:href="#G"/><use fill="url(#F)" xlink:href="#G"/><use fill="#000" filter="url(#J)" xlink:href="#I"/><use fill="#fff" xlink:href="#I"/><use fill="#000" filter="url(#L)" xlink:href="#K"/><use fill="#fff" xlink:href="#K"/><use fill="#000" filter="url(#O)" xlink:href="#N"/><use fill="url(#M)" xlink:href="#N"/><g transform="translate(0 156)"><use fill="#000" filter="url(#R)" xlink:href="#Q"/><use fill="url(#P)" xlink:href="#Q"/><use fill="#000" filter="url(#U)" xlink:href="#T"/><use fill="url(#S)" xlink:href="#T"/></g></g></svg>