<svg xmlns="http://www.w3.org/2000/svg" xmlns:xlink="http://www.w3.org/1999/xlink" width="768" height="390"><style><![CDATA[.B{fill:#383c44}.C{fill:#000}.D{fill:#fff}.E{opacity:.6}.F{font-family:Metropolis-Bold, Metropolis}.G{font-size:14px}.H{font-weight:bold}.I{opacity:.75}.J{font-family:Metropolis-Regular, Metropolis}.K{font-size:12px}]]></style><defs><path d="M0 10.5C0 4.7 4.7 0 10.5 0h294c5.8 0 10.5 4.7 10.5 10.5v69c0 5.8-4.7 10.5-10.5 10.5H26.66L4.8 106.4a3 3 0 0 1-4.8-2.4V10.5z" id="A"/><filter x="-8.9%" y="-18.7%" width="117.8%" height="152.3%" id="B"><feOffset dy="8" in="SourceAlpha"/><feGaussianBlur stdDeviation="8"/><feColorMatrix values="0 0 0 0 0 0 0 0 0 0 0 0 0 0 0 0 0 0 0.05 0"/></filter><path d="M0 10.5C0 4.7 4.7 0 10.5 0h184c5.8 0 10.5 4.7 10.5 10.5v69c0 5.8-4.7 10.5-10.5 10.5H26.66L4.8 106.4a3 3 0 0 1-4.8-2.4V10.5z" id="C"/><filter x="-13.7%" y="-18.7%" width="127.3%" height="152.3%" id="D"><feOffset dy="8" in="SourceAlpha"/><feGaussianBlur stdDeviation="8"/><feColorMatrix values="0 0 0 0 0 0 0 0 0 0 0 0 0 0 0 0 0 0 0.05 0"/></filter><path d="M0 10.5C0 4.7 4.7 0 10.5 0h204c5.8 0 10.5 4.7 10.5 10.5v69c0 5.8-4.7 10.5-10.5 10.5H26.66L4.8 106.4a3 3 0 0 1-4.8-2.4V10.5z" id="E"/><filter x="-12.4%" y="-18.7%" width="124.9%" height="152.3%" id="F"><feOffset dy="8" in="SourceAlpha"/><feGaussianBlur stdDeviation="8"/><feColorMatrix values="0 0 0 0 0 0 0 0 0 0 0 0 0 0 0 0 0 0 0.05 0"/></filter><path d="M0 10.5C0 4.7 4.7 0 10.5 0h354c5.8 0 10.5 4.7 10.5 10.5v127c0 5.8-4.7 10.5-10.5 10.5H27.635L4.76 164.556A3 3 0 0 1 0 162.126V10.5z" id="G"/><filter x="-7.5%" y="-12.1%" width="114.9%" height="133.9%" id="H"><feOffset dy="8" in="SourceAlpha"/><feGaussianBlur stdDeviation="8"/><feColorMatrix values="0 0 0 0 0 0 0 0 0 0 0 0 0 0 0 0 0 0 0.05 0"/></filter><path d="M0 10.5C0 4.7 4.7 0 10.5 0h299c5.8 0 10.5 4.7 10.5 10.5v69c0 5.8-4.7 10.5-10.5 10.5H26.66L4.8 106.4a3 3 0 0 1-4.8-2.4V10.5z" id="I"/><filter x="-8.8%" y="-18.7%" width="117.5%" height="152.3%" id="J"><feOffset dy="8" in="SourceAlpha"/><feGaussianBlur stdDeviation="8"/><feColorMatrix values="0 0 0 0 0 0 0 0 0 0 0 0 0 0 0 0 0 0 0.05 0"/></filter><path d="M0 10.5C0 4.7 4.7 0 10.5 0h204c5.8 0 10.5 4.7 10.5 10.5v89c0 5.8-4.7 10.5-10.5 10.5H26.66L4.8 126.4a3 3 0 0 1-4.8-2.4V10.5z" id="K"/><filter x="-12.4%" y="-15.7%" width="124.9%" height="144.1%" id="L"><feOffset dy="8" in="SourceAlpha"/><feGaussianBlur stdDeviation="8"/><feColorMatrix values="0 0 0 0 0 0 0 0 0 0 0 0 0 0 0 0 0 0 0.05 0"/></filter><path d="M0 10.5C0 4.7 4.7 0 10.5 0h204c5.8 0 10.5 4.7 10.5 10.5v69.84c0 5.8-4.7 10.5-10.5 10.5H26.66L4.81 107.385A3 3 0 0 1 0 104.994V10.5z" id="M"/><filter x="-12.4%" y="-18.5%" width="124.9%" height="151.8%" id="N"><feOffset dy="8" in="SourceAlpha"/><feGaussianBlur stdDeviation="8"/><feColorMatrix values="0 0 0 0 0 0 0 0 0 0 0 0 0 0 0 0 0 0 0.05 0"/></filter></defs><g transform="translate(-19 8)" fill="none" fill-rule="evenodd"><g transform="translate(242 252)"><use filter="url(#B)" xlink:href="#A" class="C"/><use xlink:href="#A" class="D"/><text letter-spacing="-.026" class="B E F G H"><tspan x="207.747" y="64">Dalibor Rile</tspan></text><text letter-spacing="-.022" class="B I J K"><tspan x="28" y="32">Works great, easy and fast, excellent design!</tspan></text></g><g transform="translate(0 119)"><use filter="url(#D)" xlink:href="#C" class="C"/><use xlink:href="#C" class="D"/><text letter-spacing="-.026" class="B E F G H"><tspan x="47.896" y="64">Auke van der Meer</tspan></text><text letter-spacing="-.022" class="B I J K"><tspan x="28" y="32">Just perfect.</tspan></text></g><g transform="translate(342 19)"><use filter="url(#F)" xlink:href="#E" class="C"/><use xlink:href="#E" class="D"/><text letter-spacing="-.026" class="B E F G H"><tspan x="104.167" y="64">Majeed Zoabi</tspan></text><text letter-spacing="-.022" class="B I J K"><tspan x="28" y="32">Sleek and professional!</tspan></text></g><g transform="translate(392 98)"><use filter="url(#H)" xlink:href="#G" class="C"/><use xlink:href="#G" class="D"/><text letter-spacing="-.022" class="B I J K"><tspan x="28" y="32">Natrium is easily the most robust and intuitive Nano </tspan><tspan x="28" y="52">wallet. It gives the most control over your wallet’s </tspan><tspan x="28" y="72">security, contacts, and representative choice. Sending </tspan><tspan x="28" y="92">and receiving couldn’t be easier. Highly recommended.</tspan></text><text letter-spacing="-.026" class="B E F G H"><tspan x="275.846" y="124">Nate Ryan</tspan></text></g><g transform="translate(580)"><use filter="url(#F)" xlink:href="#I" class="C" href="#E"/><use xlink:href="#I" class="D" href="#E"/><text letter-spacing="-.026" class="B E F G H"><tspan x="94.547" y="64">Zhao Qing Koh</tspan></text><text letter-spacing="-.022" class="B I J K"><tspan x="28" y="32">Sleek and simple to use.</tspan></text></g><g transform="translate(5 234)"><use filter="url(#F)" xlink:href="#K" class="C" href="#E"/><use xlink:href="#K" class="D" href="#E"/><text letter-spacing="-.026" class="B E F G H"><tspan x="100.933" y="64">Bryan Lemyre</tspan></text><text letter-spacing="-.022" class="B I J K"><tspan x="28" y="32">Great, fast, always works.</tspan></text></g><g transform="translate(33 8)"><use filter="url(#J)" xlink:href="#I" class="C"/><use xlink:href="#I" class="D"/><text letter-spacing="-.026" class="B E F G H"><tspan x="195.131" y="64">Felix Dolderer</tspan></text><text letter-spacing="-.022" class="B I J K"><tspan x="28" y="32">Stylish, easy to use and speedy performance.</tspan></text></g><g transform="translate(184 122)"><use filter="url(#L)" xlink:href="#K" class="C"/><use xlink:href="#K" class="D"/><text letter-spacing="-.026" class="B E F G H"><tspan x="105.215" y="84">James Keillor</tspan></text><text letter-spacing="-.022" class="B I J K"><tspan x="28" y="32">Fantastic app, works great </tspan><tspan x="28" y="52">and super easy to use</tspan></text></g><g transform="translate(582 236)"><use filter="url(#N)" xlink:href="#M" class="C"/><use xlink:href="#M" class="D"/><text letter-spacing="-.026" class="B E F G H"><tspan x="100.933" y="64.561">Bryan Lemyre</tspan></text><text letter-spacing="-.022" class="B I J K"><tspan x="28" y="32.187">Great, fast, always works.</tspan></text></g></g></svg>