<svg xmlns="http://www.w3.org/2000/svg" xmlns:xlink="http://www.w3.org/1999/xlink" width="317" height="208"><defs><path d="M147.2 0C158.692 0 168 9.308 168 20.8v61.56c0 11.482-9.308 20.8-20.8 20.8H48.032L20.037 127v-23.874C8.904 102.73 0 93.58 0 82.35V20.8C0 9.308 9.308 0 20.8 0H147.2z" id="A"/><filter x="-16.7%" y="-15.7%" width="133.3%" height="144.1%" id="B"><feOffset dy="8" in="SourceAlpha"/><feGaussianBlur stdDeviation="8"/><feColorMatrix values="0 0 0 0 0.317647059 0 0 0 0 0.368627451 0 0 0 0 1 0 0 0 0.15 0"/></filter><linearGradient x1="100%" y1="42.8061831%" x2="0%" y2="57.1938169%" id="C"><stop stop-color="#4082ff" offset="0%"/><stop stop-color="#6040ff" offset="100%"/></linearGradient></defs><g transform="matrix(-1 0 0 1 297 61)" fill-rule="evenodd"><use fill="#000" filter="url(#B)" xlink:href="#A"/><use fill="#fff" xlink:href="#A"/><path d="M139 67a3 3 0 1 1 0 6H29a3 3 0 1 1 0-6h110zm0-19a3 3 0 1 1 0 6H29a3 3 0 1 1 0-6h110zm0-19a3 3 0 1 1 0 6H29a3 3 0 1 1 0-6h110z" fill="url(#C)"/></g></svg>