<svg xmlns="http://www.w3.org/2000/svg" width="101" height="40"><defs><linearGradient x1="28.1924628%" y1="-8.90744936%" x2="76.5405706%" y2="117.632947%" id="A"><stop stop-color="#63e5ff" offset="0%"/><stop stop-color="#40a5ff" offset="35.5917772%"/><stop stop-color="#3c0cbb" offset="100%"/></linearGradient></defs><g fill-rule="evenodd"><path d="M54.005 33c4.123 0 6.79-2.573 6.79-6.138 0-2.728-1.736-4.68-3.875-5.208 1.83-.62 3.193-2.45 3.193-4.712 0-3.4-2.418-5.92-6.696-5.92H45.51V33h8.494zm-1.24-12.896h-3.038v-5.487h3.007c2.077 0 3.162 1.054 3.162 2.728s-1.178 2.76-3.13 2.76zm.434 9.33h-3.472v-5.797h3.534c2.14 0 3.255 1.21 3.255 2.945 0 1.767-1.24 2.852-3.317 2.852zM66.734 33V10.556H62.61V33h4.123zm9.753.465c4.557 0 7.998-3.4 7.998-8.09 0-4.712-3.44-8.09-7.998-8.09s-7.998 3.38-7.998 8.09c0 4.68 3.44 8.09 7.998 8.09zm0-3.75c-2.015 0-3.875-1.488-3.875-4.34 0-2.883 1.86-4.34 3.875-4.34s3.875 1.457 3.875 4.34-1.86 4.34-3.875 4.34zm16.077 9.64c5.735 0 7.998-3.813 7.998-7.998v-13.61h-3.968v1.798c-.527-1.023-1.922-2.077-4.34-2.077-4.185 0-7.1 3.4-7.1 7.44 0 4.278 3.038 7.41 7.1 7.41 2.2 0 3.627-.96 4.247-1.953v1.116c0 2.945-1.457 4.247-4.06 4.247-1.953 0-3.286-1.21-3.565-2.883l-3.72.992c.434 2.914 3.224 5.518 7.41 5.518zm.403-10.57c-2.14 0-3.658-1.488-3.658-3.875 0-2.356 1.612-3.844 3.658-3.844 1.984 0 3.596 1.488 3.596 3.844s-1.488 3.875-3.596 3.875z" fill="#383c44" fill-rule="nonzero"/><path d="M36.63 7.158c.77.001 1.488.38 1.923 1.014a2.34 2.34 0 0 1 .255 2.161L28.01 38.5c-.346.903-1.212 1.498-2.177 1.5H10.557a2.33 2.33 0 0 1-1.923-1.013 2.34 2.34 0 0 1-.255-2.16l.93-2.43h9.462c.966-.001 1.83-.597 2.177-1.5l9.867-25.737zM28.406 0a2.33 2.33 0 0 1 1.923 1.013 2.34 2.34 0 0 1 .255 2.16l-10.8 28.164c-.345.905-1.212 1.502-2.18 1.502H2.332C1.564 32.84.845 32.46.4 31.827a2.34 2.34 0 0 1-.256-2.159L10.954 1.5C11.3.596 12.165 0 13.13 0zm-1.99 9.686L3.25 25.927l-1.442 3.765a1.17 1.17 0 0 0 1.089 1.589l14.438-.003a1.17 1.17 0 0 0 1.089-.752l7.992-20.84zm2.33-6.08L5.58 19.847l-1.164 3.038L27.582 6.648l1.166-3.043z" fill="url(#A)"/></g></svg>