<svg xmlns="http://www.w3.org/2000/svg" width="99" height="40"><defs><linearGradient x1="33.4842504%" y1="0%" x2="68.9678428%" y2="100%" id="A"><stop stop-color="#4082ff" offset="0%"/><stop stop-color="#6040ff" offset="100%"/></linearGradient></defs><g fill-rule="evenodd"><path d="M52.688 32.195c4.022 0 6.623-2.5 6.623-5.988 0-2.66-1.694-4.567-3.78-5.08 1.784-.605 3.115-2.39 3.115-4.597 0-3.327-2.36-5.777-6.533-5.777H44.4v21.443h8.287zm-1.2-12.58h-2.964V14.26h2.934c2.026 0 3.085 1.028 3.085 2.66s-1.15 2.692-3.055 2.692zm.423 9.103h-3.387V23.06h3.448c2.087 0 3.176 1.18 3.176 2.873 0 1.724-1.2 2.782-3.236 2.782zm13.205 3.478V10.3h-4.022v21.897h4.022zm9.515.454c4.446 0 7.803-3.327 7.803-7.894 0-4.597-3.357-7.894-7.803-7.894s-7.803 3.297-7.803 7.894c0 4.567 3.357 7.894 7.803 7.894zm0-3.66c-1.966 0-3.78-1.452-3.78-4.234 0-2.813 1.815-4.234 3.78-4.234s3.78 1.42 3.78 4.234-1.815 4.234-3.78 4.234zm15.685 9.406c5.595 0 7.803-3.72 7.803-7.803V17.315h-3.87v1.754c-.514-.998-1.875-2.026-4.234-2.026-4.083 0-6.926 3.327-6.926 7.26 0 4.174 2.964 7.228 6.926 7.228 2.147 0 3.54-.938 4.143-1.905v1.09c0 2.873-1.42 4.143-3.962 4.143-1.905 0-3.206-1.18-3.478-2.813l-3.63.968c.423 2.843 3.145 5.383 7.228 5.383zm.393-10.313c-2.087 0-3.57-1.452-3.57-3.78 0-2.3 1.573-3.75 3.57-3.75 1.936 0 3.508 1.452 3.508 3.75s-1.452 3.78-3.508 3.78z" fill="#383c44" fill-rule="nonzero"/><path d="M35.738 6.983c.75 0 1.45.37 1.876.99a2.28 2.28 0 0 1 .248 2.108l-10.536 27.48c-.338.88-1.182 1.462-2.124 1.462H10.3c-.75 0-1.45-.37-1.876-.99a2.28 2.28 0 0 1-.248-2.108l.908-2.372h9.232a2.28 2.28 0 0 0 2.124-1.463l9.627-25.1zM27.713 0c.75 0 1.45.37 1.876.99a2.28 2.28 0 0 1 .248 2.108L19.3 30.574c-.337.882-1.182 1.466-2.126 1.466h-14.9c-.75-.001-1.45-.37-1.875-.99a2.28 2.28 0 0 1-.249-2.107l10.536-27.48C11.024.582 11.87 0 12.81 0zm-1.94 9.45L3.17 25.294l-1.407 3.673c-.134.35-.088.745.125 1.054a1.14 1.14 0 0 0 .938.496l14.086-.003a1.14 1.14 0 0 0 1.063-.733l7.797-20.33zm2.275-5.933L5.444 19.363l-1.136 2.964 22.6-15.84 1.138-2.97z" fill="url(#A)"/></g></svg>