<svg xmlns="http://www.w3.org/2000/svg" width="160" height="40"><defs><linearGradient x1="28.1924628%" y1="-8.90744936%" x2="76.5405706%" y2="117.632947%" id="A"><stop stop-color="#63e5ff" offset="0%"/><stop stop-color="#40a5ff" offset="35.5917772%"/><stop stop-color="#3c0cbb" offset="100%"/></linearGradient></defs><g fill-rule="evenodd"><path d="M36.63 7.158c.77.001 1.488.38 1.923 1.014a2.34 2.34 0 0 1 .255 2.161L28.01 38.5c-.346.903-1.212 1.498-2.177 1.5H10.557a2.33 2.33 0 0 1-1.923-1.013 2.34 2.34 0 0 1-.255-2.16l.93-2.43h9.462c.966-.001 1.83-.597 2.177-1.5l9.867-25.737zM28.406 0a2.33 2.33 0 0 1 1.923 1.013 2.34 2.34 0 0 1 .255 2.16l-10.8 28.164c-.345.905-1.212 1.502-2.18 1.502H2.332C1.564 32.84.845 32.46.4 31.827a2.34 2.34 0 0 1-.256-2.159L10.954 1.5C11.3.596 12.165 0 13.13 0zm-1.99 9.686L3.25 25.927l-1.442 3.765a1.17 1.17 0 0 0 1.089 1.589l14.438-.003a1.17 1.17 0 0 0 1.089-.752l7.992-20.84zm2.33-6.08L5.58 19.847l-1.164 3.038L27.582 6.648l1.166-3.043z" fill="url(#A)"/><path d="M59.335 32.817L57.542 27.9h-8.754l-1.793 4.916h-4.438l8.268-21.514h4.864l8.207 21.514h-4.56zm-6.17-16.872l-2.98 8.132h5.958l-2.98-8.132zm16.263 22.637h-4.043V17.887h3.92v1.82c.67-1.153 2.34-2.154 4.6-2.154 4.377 0 6.9 3.338 6.9 7.768 0 4.52-2.827 7.86-7.052 7.86-2.067 0-3.587-.82-4.316-1.82v7.222zm7.387-13.23c0-2.64-1.64-4.188-3.708-4.188s-3.74 1.548-3.74 4.188 1.672 4.218 3.74 4.218 3.708-1.548 3.708-4.218zm10.028 13.23H82.8V17.887h3.92v1.82c.67-1.153 2.34-2.154 4.6-2.154 4.377 0 6.9 3.338 6.9 7.768 0 4.52-2.827 7.86-7.052 7.86-2.067 0-3.587-.82-4.316-1.82v7.222zm7.387-13.23c0-2.64-1.64-4.188-3.708-4.188s-3.74 1.548-3.74 4.188 1.672 4.218 3.74 4.218 3.708-1.548 3.708-4.218zm21.07-14.505v19.27c0 1 .06 2.094.122 2.7h-3.86a10.29 10.29 0 0 1-.152-1.73c-.67 1.183-2.19 2.094-4.195 2.094-4.256 0-7.295-3.338-7.295-7.86 0-4.37 2.95-7.8 7.174-7.8 2.584 0 3.8 1.062 4.225 1.85v-8.527h3.982zM103.992 25.32c0 2.67 1.58 4.248 3.708 4.248 2.067 0 3.678-1.578 3.678-4.28 0-2.67-1.61-4.157-3.678-4.157s-3.708 1.517-3.708 4.188zm17.987 7.495h-4.043v-14.93h4.043v14.93zm12.03-14.93c1.58 0 2.3-1.032 2.3-2.367v-2.094h3.648v4.46h3.01v3.58h-3.01v6.25c0 1.305.608 1.73 1.763 1.73.486 0 1.034-.06 1.246-.12v3.338c-.365.152-1.094.364-2.28.364-2.918 0-4.742-1.73-4.742-4.612v-6.95h-5.585v6.25c0 1.305.608 1.73 1.763 1.73.486 0 1.034-.06 1.246-.12v3.338c-.365.152-1.094.364-2.28.364-2.918 0-4.742-1.73-4.742-4.612v-6.95h-2.705v-3.58h.76c1.58 0 2.3-1.032 2.3-2.367v-2.094h3.648v4.46h3.64zM152.064 29.6c1.976 0 3.8-1.426 3.8-4.248s-1.824-4.248-3.8-4.248-3.8 1.426-3.8 4.248c0 2.792 1.824 4.248 3.8 4.248zm0-12.168c4.468 0 7.842 3.308 7.842 7.92 0 4.582-3.374 7.92-7.842 7.92s-7.842-3.338-7.842-7.92c0-4.612 3.374-7.92 7.842-7.92zm-32.122-6.95c1.398 0 2.493 1.123 2.493 2.52 0 1.335-1.094 2.458-2.493 2.458-1.368 0-2.493-1.123-2.493-2.458 0-1.396 1.125-2.52 2.493-2.52z" fill="#383c44"/></g></svg>