<svg xmlns="http://www.w3.org/2000/svg" xmlns:xlink="http://www.w3.org/1999/xlink" width="335" height="279"><defs><linearGradient x1="0%" y1="42.78%" x2="100%" y2="57.22%" id="A"><stop stop-color="#4082ff" offset="0%"/><stop stop-color="#5040ff" offset="100%"/></linearGradient><path d="M257 65c7.18 0 13 5.82 13 13s-5.82 13-13 13c-6.147 0-11.297-4.266-12.652-10H96v65.5a3.5 3.5 0 0 1-3.308 3.495L92.5 150H45.652c-1.355 5.733-6.505 10-12.652 10-7.18 0-13-5.82-13-13s5.82-13 13-13c5.784 0 10.686 3.778 12.373 9H89V77.5a3.5 3.5 0 0 1 3.5-3.5h152.127c1.687-5.223 6.59-9 12.373-9z" id="B"/><filter x="-8.4%" y="-15.8%" width="116.8%" height="144.2%" id="C"><feOffset dy="6" in="SourceAlpha"/><feGaussianBlur stdDeviation="6"/><feColorMatrix values="0 0 0 0 0.317647059 0 0 0 0 0.368627451 0 0 0 0 1 0 0 0 0.3 0"/></filter></defs><g fill-rule="evenodd"><use fill="#000" filter="url(#C)" xlink:href="#B"/><use fill="url(#A)" xlink:href="#B"/></g></svg>