<svg xmlns="http://www.w3.org/2000/svg" xmlns:xlink="http://www.w3.org/1999/xlink" width="335" height="279"><defs><linearGradient x1="0%" y1="21.875%" x2="100%" y2="78.125%" id="A"><stop stop-color="#4082ff" offset="0%"/><stop stop-color="#5040ff" offset="100%"/></linearGradient><path d="M128 113c7.18 0 13 5.82 13 13 0 5.784-3.778 10.686-9 12.373V216h117.627c1.657-5.13 6.416-8.866 12.066-8.997L262 207c7.18 0 13 5.82 13 13s-5.82 13-13 13c-6.147 0-11.297-4.266-12.652-10H128.5a3.5 3.5 0 0 1-3.5-3.5v-80.848c-5.733-1.355-10-6.505-10-12.652 0-7.18 5.82-13 13-13z" id="B"/><filter x="-13.1%" y="-12.5%" width="126.2%" height="135.0%" id="C"><feOffset dy="6" in="SourceAlpha"/><feGaussianBlur stdDeviation="6"/><feColorMatrix values="0 0 0 0 0.317647059 0 0 0 0 0.368627451 0 0 0 0 1 0 0 0 0.3 0"/></filter></defs><g fill-rule="evenodd"><use fill="#000" filter="url(#C)" xlink:href="#B"/><use fill="url(#A)" xlink:href="#B"/></g></svg>