<?xml version="1.0" encoding="UTF-8"?>
<svg width="301px" height="190px" viewBox="0 0 301 190" version="1.1" xmlns="http://www.w3.org/2000/svg" xmlns:xlink="http://www.w3.org/1999/xlink">
    <!-- Generator: Sketch 52.1 (67048) - http://www.bohemiancoding.com/sketch -->
    <title>chat</title>
    <desc>Created with Sketch.</desc>
    <defs>
        <path d="M48.0326835,103.139394 L20.0366972,127 L20.0366972,103.126 C8.90363377,102.729489 1.4902059e-14,93.5792191 3.55271368e-15,82.3493939 L-3.55271368e-15,20.79 C-1.00578854e-14,9.30800005 9.30800005,-4.99621818e-15 20.79,-7.10542736e-15 L147.21,-7.10542736e-15 C158.692,-9.21463653e-15 168,9.30800005 168,20.79 L168,82.3493939 C168,93.8313939 158.692,103.139394 147.21,103.139394 L48.0326835,103.139394 Z" id="path-1"></path>
        <filter x="-12.5%" y="-11.8%" width="125.0%" height="133.1%" filterUnits="objectBoundingBox" id="filter-2">
            <feOffset dx="0" dy="6" in="SourceAlpha" result="shadowOffsetOuter1"></feOffset>
            <feGaussianBlur stdDeviation="6" in="shadowOffsetOuter1" result="shadowBlurOuter1"></feGaussianBlur>
            <feColorMatrix values="0 0 0 0 0.250980392   0 0 0 0 0.509803922   0 0 0 0 1  0 0 0 0.25 0" type="matrix" in="shadowBlurOuter1"></feColorMatrix>
        </filter>
        <path d="M48.0326835,103.139394 L20.0366972,127 L20.0366972,103.126 C8.90363377,102.729489 1.84547727e-14,93.5792191 7.10542736e-15,82.3493939 L0,20.79 C-1.40613945e-15,9.30800005 9.30800005,2.10920917e-15 20.79,0 L147.21,-3.55271368e-15 C158.692,1.47342063e-14 168,9.30800005 168,20.79 L168,82.3493939 C168,93.8313939 158.692,103.139394 147.21,103.139394 L48.0326835,103.139394 Z" id="path-3"></path>
        <filter x="-12.5%" y="-11.8%" width="125.0%" height="133.1%" filterUnits="objectBoundingBox" id="filter-4">
            <feOffset dx="0" dy="6" in="SourceAlpha" result="shadowOffsetOuter1"></feOffset>
            <feGaussianBlur stdDeviation="6" in="shadowOffsetOuter1" result="shadowBlurOuter1"></feGaussianBlur>
            <feColorMatrix values="0 0 0 0 0.250980392   0 0 0 0 0.509803922   0 0 0 0 1  0 0 0 0.25 0" type="matrix" in="shadowBlurOuter1"></feColorMatrix>
        </filter>
    </defs>
    <g id="Page-1" stroke="none" stroke-width="1" fill="none" fill-rule="evenodd">
        <g id="Desktop-HD-Copy-3" transform="translate(-570.000000, -1980.000000)">
            <g id="chat" transform="translate(582.000000, 1986.000000)">
                <g id="Group-6-Copy" transform="translate(84.000000, 63.500000) scale(-1, 1) translate(-84.000000, -63.500000) ">
                    <g id="Group-3-Copy" transform="translate(84.000000, 63.500000) scale(-1, 1) translate(-84.000000, -63.500000) ">
                        <g id="Combined-Shape-Copy-4">
                            <use fill="black" fill-opacity="1" filter="url(#filter-2)" xlink:href="#path-1"></use>
                            <use fill="#FFFFFF" fill-rule="evenodd" xlink:href="#path-1"></use>
                        </g>
                        <rect id="Rectangle" fill="#4082FF" x="26" y="29" width="116" height="6" rx="3"></rect>
                        <rect id="Rectangle-Copy-6" fill="#4082FF" x="26" y="48" width="116" height="6" rx="3"></rect>
                        <rect id="Rectangle-Copy-7" fill="#4082FF" x="26" y="67" width="116" height="6" rx="3"></rect>
                    </g>
                </g>
                <g id="Group-6" transform="translate(109.000000, 41.000000)">
                    <g id="Group-3-Copy" transform="translate(84.000000, 63.500000) scale(-1, 1) translate(-84.000000, -63.500000) ">
                        <g id="Combined-Shape-Copy-4">
                            <use fill="black" fill-opacity="1" filter="url(#filter-4)" xlink:href="#path-3"></use>
                            <use fill="#FFFFFF" fill-rule="evenodd" xlink:href="#path-3"></use>
                        </g>
                        <rect id="Rectangle" fill="#4082FF" x="26" y="29" width="116" height="6" rx="3"></rect>
                        <rect id="Rectangle-Copy-6" fill="#4082FF" x="26" y="48" width="116" height="6" rx="3"></rect>
                        <rect id="Rectangle-Copy-7" fill="#4082FF" x="26" y="67" width="116" height="6" rx="3"></rect>
                    </g>
                </g>
            </g>
        </g>
    </g>
</svg>