<?xml version="1.0" encoding="UTF-8"?>
<svg width="30px" height="30px" viewBox="0 0 30 30" version="1.1" xmlns="http://www.w3.org/2000/svg" xmlns:xlink="http://www.w3.org/1999/xlink">
    <!-- Generator: Sketch 52.1 (67048) - http://www.bohemiancoding.com/sketch -->
    <title>dribbble-icon</title>
    <desc>Created with Sketch.</desc>
    <g id="Page-1" stroke="none" stroke-width="1" fill="none" fill-rule="evenodd">
        <g id="Desktop-HD-Copy-3" transform="translate(-817.000000, -2503.000000)" fill="#FFFFFF" fill-rule="nonzero">
            <g id="Group-3" transform="translate(593.000000, 2503.000000)">
                <path d="M224,15 C224,12.27999 224.67002,9.77001 226.01,7.47 C227.35001,5.16999 229.17002,3.35001 231.47,2.01 C233.77001,0.66999 236.28002,0 239,0 C241.72001,0 244.23002,0.66999 246.53,2.01 C248.83001,3.35001 250.65002,5.16999 251.99,7.47 C253.33001,9.77001 254,12.27999 254,15 C254,17.72001 253.33001,20.22999 251.99,22.53 C250.65002,24.83001 248.83001,26.64999 246.53,27.99 C244.23002,29.33001 241.72001,30 239,30 C236.28002,30 233.77001,29.33001 231.47,27.99 C229.17002,26.64999 227.35001,24.83001 226.01,22.53 C224.67002,20.22999 224,17.72001 224,15 Z M226.49,15 C226.49,18.12 227.54,20.87001 229.64,23.25 C230.6,21.36999 232.12001,19.58001 234.2,17.88 C236.28002,16.17999 238.31,15.11001 240.29,14.67 C239.99,13.97001 239.70002,13.34001 239.42,12.78 C235.98002,13.88001 232.26002,14.43 228.26,14.43 C227.48,14.43 226.90001,14.42001 226.52,14.4 C226.52,14.48001 226.51502,14.58 226.505,14.7 C226.49501,14.82 226.49,14.91999 226.49,15 Z M226.88,11.91 C227.32001,11.94999 227.97002,11.97 228.83,11.97 C232.17002,11.97 235.34,11.52 238.34,10.62 C236.82002,7.92 235.15001,5.67 233.33,3.87 C231.75002,4.67001 230.39501,5.78001 229.265,7.2 C228.13502,8.61999 227.34002,10.19001 226.88,11.91 Z M231.35,24.87 C233.61002,26.63001 236.16002,27.51 239,27.51 C240.48002,27.51 241.95002,27.23001 243.41,26.67 C243.01001,23.25 242.23001,19.94001 241.07,16.74 C239.23001,17.13999 237.37502,18.15 235.505,19.77 C233.63501,21.39 232.25,23.09001 231.35,24.87 Z M235.94,2.91 C237.70001,4.73001 239.33,6.99999 240.83,9.72 C243.55001,8.58 245.6,7.13001 246.98,5.37 C244.66001,3.45 242,2.49 239,2.49 C237.98,2.49 236.96,2.63001 235.94,2.91 Z M241.91,11.85 C242.21,12.48999 242.55002,13.29999 242.93,14.28 C244.41002,14.13999 246.02,14.07 247.76,14.07 C249.00002,14.07 250.23002,14.1 251.45,14.16 C251.29001,11.43999 250.31,9.02001 248.51,6.9 C247.21001,8.84001 245.01002,10.49001 241.91,11.85 Z M243.68,16.38 C244.7,19.34001 245.39,22.38 245.75,25.5 C247.33001,24.48 248.62001,23.16999 249.62,21.57 C250.62002,19.97001 251.22002,18.24 251.42,16.38 C249.96002,16.28001 248.63,16.23 247.43,16.23 C246.33002,16.23 245.08001,16.28001 243.68,16.38 Z" id="dribbble-icon"></path>
            </g>
        </g>
    </g>
</svg>