<?xml version="1.0" encoding="UTF-8"?>
<svg width="30px" height="30px" viewBox="0 0 30 30" version="1.1" xmlns="http://www.w3.org/2000/svg" xmlns:xlink="http://www.w3.org/1999/xlink">
    <!-- Generator: Sketch 52.1 (67048) - http://www.bohemiancoding.com/sketch -->
    <title>github-icon</title>
    <desc>Created with Sketch.</desc>
    <g id="Page-1" stroke="none" stroke-width="1" fill="none" fill-rule="evenodd">
        <g id="Desktop-HD-Copy-3" transform="translate(-755.000000, -2504.000000)" fill="#FFFFFF">
            <g id="Group-3" transform="translate(610.000000, 2503.000000)">
                <path d="M159.998987,1 C152.642393,1.00107948 146.372281,6.47283024 145.194757,13.9192356 C144.017233,21.3656409 148.279866,28.588755 155.259169,30.9735783 C156.009082,31.1145971 156.282816,30.639834 156.282816,30.2322228 C156.282816,29.867109 156.269812,28.8999315 156.262515,27.6164693 C152.090558,28.5458498 151.210701,25.5548139 151.210701,25.5548139 C150.528706,23.7780738 149.545473,23.3051335 149.545473,23.3051335 C148.183728,22.3508108 149.64838,22.3701889 149.64838,22.3701889 C151.153447,22.4789748 151.945646,23.9551626 151.945646,23.9551626 C153.283441,26.3054748 155.456002,25.6267622 156.310601,25.2330609 C156.446906,24.2391187 156.834493,23.5614614 157.262868,23.1769695 C153.932413,22.7888323 150.431037,21.4693958 150.431037,15.5757723 C150.409196,14.0478133 150.961979,12.5699069 151.974647,11.4488161 C151.820473,11.0597196 151.30575,9.49604253 152.121711,7.37855521 C152.121711,7.37855521 153.381016,6.96499621 156.246144,8.95518295 C158.704136,8.26499271 161.297861,8.26499271 163.755853,8.95518295 C166.619296,6.96499621 167.876263,7.37855521 167.876263,7.37855521 C168.694563,9.49604253 168.179746,11.0597196 168.025946,11.4488161 C168.987194,12.523916 169.567591,13.8967861 169.567591,15.5757723 C169.567591,21.4840733 166.060884,22.7842276 162.719576,23.1649781 C163.258156,23.6398371 163.737891,24.578427 163.737891,26.0130767 C163.737891,28.0691682 163.719181,29.7280089 163.719181,30.2322228 C163.719181,30.6434794 163.989265,31.1219838 164.750499,30.9717557 C171.726741,28.5822541 175.984414,21.3584941 174.804292,13.9140384 C173.624169,6.46958259 167.354401,1.00062613 159.999268,1 L159.998987,1 Z" id="github-icon"></path>
            </g>
        </g>
    </g>
</svg>