<?xml version="1.0" encoding="UTF-8"?>
<svg width="30px" height="30px" viewBox="0 0 30 30" version="1.1" xmlns="http://www.w3.org/2000/svg" xmlns:xlink="http://www.w3.org/1999/xlink">
    <!-- Generator: Sketch 52.1 (67048) - http://www.bohemiancoding.com/sketch -->
    <title>instagram-icon</title>
    <desc>Created with Sketch.</desc>
    <g id="Page-1" stroke="none" stroke-width="1" fill="none" fill-rule="evenodd">
        <g id="Desktop-HD-Copy-3" transform="translate(-663.000000, -2504.000000)" fill="#FFFFFF" fill-rule="nonzero">
            <g id="Group-3" transform="translate(610.000000, 2503.000000)">
                <path d="M68.0033463,8.30837889 C63.7467931,8.30837889 60.3134412,11.7424969 60.3134412,16 C60.3134412,20.2575031 63.7467931,23.6916211 68.0033463,23.6916211 C72.2598996,23.6916211 75.6932515,20.2575031 75.6932515,16 C75.6932515,11.7424969 72.2598996,8.30837889 68.0033463,8.30837889 Z M68.0033463,21.0005578 C65.2526492,21.0005578 63.0039041,18.7580051 63.0039041,16 C63.0039041,13.2419949 65.2459565,10.9994422 68.0033463,10.9994422 C70.7607362,10.9994422 73.0027886,13.2419949 73.0027886,16 C73.0027886,18.7580051 70.7540435,21.0005578 68.0033463,21.0005578 Z M77.8014501,7.99375209 C77.8014501,8.99118599 76.9983268,9.78779427 76.0078081,9.78779427 C75.0105968,9.78779427 74.2141662,8.9844918 74.2141662,7.99375209 C74.2141662,7.00301238 75.0172895,6.19970992 76.0078081,6.19970992 C76.9983268,6.19970992 77.8014501,7.00301238 77.8014501,7.99375209 Z M82.8945901,9.81457101 C82.7808143,7.4113578 82.2320134,5.28260627 80.4718349,3.52872922 C78.7183491,1.77485217 76.5900725,1.22592882 74.1873954,1.10543345 C71.7110987,0.964855517 64.2889013,0.964855517 61.8126046,1.10543345 C59.4166202,1.21923463 57.2883436,1.76815798 55.5281651,3.52203503 C53.7679866,5.27591208 53.2258784,7.40466362 53.1054099,9.80787683 C52.9648634,12.2847261 52.9648634,19.7085797 53.1054099,22.185429 C53.2191857,24.5886422 53.7679866,26.7173937 55.5281651,28.4712708 C57.2883436,30.2251478 59.4099275,30.7740712 61.8126046,30.8945666 C64.2889013,31.0351445 71.7110987,31.0351445 74.1873954,30.8945666 C76.5900725,30.7807654 78.7183491,30.231842 80.4718349,28.4712708 C82.2253207,26.7173937 82.7741216,24.5886422 82.8945901,22.185429 C83.0351366,19.7085797 83.0351366,12.2914203 82.8945901,9.81457101 Z M79.6954824,24.8430213 C79.1734523,26.155082 78.1628555,27.1659043 76.8443949,27.6947451 C74.8700502,28.477965 70.1851645,28.2972219 68.0033463,28.2972219 C65.8215282,28.2972219 61.1299498,28.4712708 59.1622978,27.6947451 C57.8505298,27.1725985 56.8399331,26.1617762 56.3112103,24.8430213 C55.5281651,22.8682361 55.7088678,18.182305 55.7088678,16 C55.7088678,13.817695 55.5348578,9.12506973 56.3112103,7.15697869 C56.8332404,5.844918 57.8438371,4.83409573 59.1622978,4.30525494 C61.1366425,3.52203503 65.8215282,3.70277809 68.0033463,3.70277809 C70.1851645,3.70277809 74.8767429,3.52872922 76.8443949,4.30525494 C78.1561629,4.82740154 79.1667596,5.83822381 79.6954824,7.15697869 C80.4785276,9.13176392 80.2978249,13.817695 80.2978249,16 C80.2978249,18.182305 80.4785276,22.8749303 79.6954824,24.8430213 Z" id="instagram-icon"></path>
            </g>
        </g>
    </g>
</svg>