<?xml version="1.0" encoding="UTF-8"?>
<svg width="579px" height="145px" viewBox="0 0 579 145" version="1.1" xmlns="http://www.w3.org/2000/svg" xmlns:xlink="http://www.w3.org/1999/xlink">
    <!-- Generator: Sketch 52.1 (67048) - http://www.bohemiancoding.com/sketch -->
    <title>logo-v2</title>
    <desc>Created with Sketch.</desc>
    <defs>
        <linearGradient x1="27.0170622%" y1="-8.90744936%" x2="77.9710761%" y2="117.632947%" id="linearGradient-1">
            <stop stop-color="#63E5FF" offset="0%"></stop>
            <stop stop-color="#40A5FF" offset="35.5917772%"></stop>
            <stop stop-color="#3C0CBB" offset="100%"></stop>
        </linearGradient>
    </defs>
    <g id="Page-1" stroke="none" stroke-width="1" fill="none" fill-rule="evenodd">
        <g id="logo-v2" transform="translate(-220.000000, -440.000000)">
            <g transform="translate(220.000000, 440.000000)">
                <path d="M132.559361,25.9472686 C135.34046,25.9491159 137.942414,27.3239434 139.516624,29.623366 C141.090834,31.9227886 141.435521,34.8520702 140.438268,37.4558573 L101.358892,139.56653 C100.106721,142.838407 96.9743257,144.998577 93.4799855,145 L38.2047299,145 C35.4238576,144.999267 32.8216768,143.6252 31.2473017,141.326167 C29.6729266,139.027135 29.3282801,136.098003 30.3258235,133.494572 L33.6948438,124.682173 L67.936571,124.682173 C71.4311455,124.678451 74.5628542,122.517498 75.8154774,119.245542 L111.522681,25.9472686 L132.559361,25.9472686 Z M71.5923835,113.600296 C70.3434766,116.879305 67.2069876,119.045598 63.707174,119.04641 L8.43822155,119.04641 C5.65874392,119.043766 3.05848188,117.669782 1.4846019,115.372105 C-0.0892780749,113.074427 -0.435283191,110.14721 0.559315167,107.544143 L39.6386908,5.43346994 C40.8908618,2.16159308 44.023257,0.00142336425 47.5175972,-7.10542736e-14 L102.792853,-7.10542736e-14 C105.573725,0.000732779657 108.175906,1.37480034 109.750281,3.67383253 C111.324656,5.97286471 111.669303,8.90199692 110.671759,11.5054279 L71.5923835,113.600296 Z M20.1935499,71.9468544 L15.9799107,82.9591926 L99.8114746,24.098182 L104.031417,13.0668788 L20.1935499,71.9468544 Z M10.4835856,113.391682 L62.7301896,113.379038 C64.4800734,113.377031 66.0477435,112.293653 66.6727944,110.654401 L95.5946839,35.1105201 L11.76312,93.984174 L6.54413245,107.632646 C6.04674474,108.935072 6.21949526,110.399499 7.00618916,111.549557 C7.79288306,112.699615 9.09298768,113.388335 10.4835856,113.391682 Z" id="Combined-Shape-Copy" fill="url(#linearGradient-1)"></path>
                <path d="M214.72,118.96 L208.23,101.14 L176.55,101.14 L170.06,118.96 L154,118.96 L183.92,40.97 L201.52,40.97 L231.22,118.96 L214.72,118.96 Z M192.39,57.8 L181.61,87.28 L203.17,87.28 L192.39,57.8 Z M251.240003,139.86 L236.610003,139.86 L236.610003,64.84 L250.800003,64.84 L250.800003,71.44 C253.220003,67.26 259.270003,63.63 267.410003,63.63 C283.250003,63.63 292.380003,75.73 292.380003,91.79 C292.380003,108.18 282.150003,120.28 266.860003,120.28 C259.380003,120.28 253.880003,117.31 251.240003,113.68 L251.240003,139.86 Z M277.970003,91.9 C277.970003,82.33 272.030003,76.72 264.550003,76.72 C257.070003,76.72 251.020003,82.33 251.020003,91.9 C251.020003,101.47 257.070003,107.19 264.550003,107.19 C272.030003,107.19 277.970003,101.58 277.970003,91.9 Z M314.260006,139.86 L299.630006,139.86 L299.630006,64.84 L313.820006,64.84 L313.820006,71.44 C316.240006,67.26 322.290006,63.63 330.430006,63.63 C346.270006,63.63 355.400006,75.73 355.400006,91.79 C355.400006,108.18 345.170006,120.28 329.880006,120.28 C322.400006,120.28 316.900006,117.31 314.260006,113.68 L314.260006,139.86 Z M340.990006,91.9 C340.990006,82.33 335.050006,76.72 327.570006,76.72 C320.090006,76.72 314.040006,82.33 314.040006,91.9 C314.040006,101.47 320.090006,107.19 327.570006,107.19 C335.050006,107.19 340.990006,101.58 340.990006,91.9 Z M417.240009,39.32 L417.240009,109.17 C417.240009,112.8 417.460009,116.76 417.680009,118.96 L403.710009,118.96 C403.490009,117.86 403.160009,115.22 403.160009,112.69 C400.740009,116.98 395.240009,120.28 387.980009,120.28 C372.580009,120.28 361.580009,108.18 361.580009,91.79 C361.580009,75.95 372.250009,63.52 387.540009,63.52 C396.890009,63.52 401.290009,67.37 402.830009,70.23 L402.830009,39.32 L417.240009,39.32 Z M376.320009,91.79 C376.320009,101.47 382.040009,107.19 389.740009,107.19 C397.220009,107.19 403.050009,101.47 403.050009,91.68 C403.050009,82 397.220009,76.61 389.740009,76.61 C382.260009,76.61 376.320009,82.11 376.320009,91.79 Z M441.410012,118.96 L426.780012,118.96 L426.780012,64.84 L441.410012,64.84 L441.410012,118.96 Z M482.660015,64.84 L484.940018,64.84 C490.660018,64.84 493.300018,61.1 493.300018,56.26 L493.300018,48.67 L506.500018,48.67 L506.500018,64.84 L517.390018,64.84 L517.390018,77.82 L506.500018,77.82 L506.500018,100.48 C506.500018,105.21 508.700018,106.75 512.880018,106.75 C514.640018,106.75 516.620018,106.53 517.390018,106.31 L517.390018,118.41 C516.070018,118.96 513.430018,119.73 509.140018,119.73 C498.580018,119.73 491.980018,113.46 491.980018,103.01 L491.980018,77.82 L482.660015,77.82 L471.770015,77.82 L471.770015,100.48 C471.770015,105.21 473.970015,106.75 478.150015,106.75 C479.910015,106.75 481.890015,106.53 482.660015,106.31 L482.660015,118.41 C481.340015,118.96 478.700015,119.73 474.410015,119.73 C463.850015,119.73 457.250015,113.46 457.250015,103.01 L457.250015,77.82 L447.460015,77.82 L447.460015,64.84 L450.210015,64.84 C455.930015,64.84 458.570015,61.1 458.570015,56.26 L458.570015,48.67 L471.770015,48.67 L471.770015,64.84 L482.660015,64.84 Z M550.280021,107.3 C557.430021,107.3 564.030021,102.13 564.030021,91.9 C564.030021,81.67 557.430021,76.5 550.280021,76.5 C543.130021,76.5 536.530021,81.67 536.530021,91.9 C536.530021,102.02 543.130021,107.3 550.280021,107.3 Z M550.280021,63.19 C566.450021,63.19 578.660021,75.18 578.660021,91.9 C578.660021,108.51 566.450021,120.61 550.280021,120.61 C534.110021,120.61 521.900021,108.51 521.900021,91.9 C521.900021,75.18 534.110021,63.19 550.280021,63.19 Z M425.020012,47.13 C425.020012,42.07 429.090012,38 434.040012,38 C439.100012,38 443.060012,42.07 443.060012,47.13 C443.060012,51.97 439.100012,56.04 434.040012,56.04 C429.090012,56.04 425.020012,51.97 425.020012,47.13 Z" id="Appditto" fill="#413D4D"></path>
            </g>
        </g>
    </g>
</svg>