<?xml version="1.0" encoding="UTF-8"?>
<svg width="30px" height="30px" viewBox="0 0 30 30" version="1.1" xmlns="http://www.w3.org/2000/svg" xmlns:xlink="http://www.w3.org/1999/xlink">
    <!-- Generator: Sketch 52.1 (67048) - http://www.bohemiancoding.com/sketch -->
    <title>medium-icon</title>
    <desc>Created with Sketch.</desc>
    <g id="Page-1" stroke="none" stroke-width="1" fill="none" fill-rule="evenodd">
        <g id="Desktop-HD-Copy-3" transform="translate(-709.000000, -2503.000000)" fill="#FFFFFF">
            <g id="Group-3" transform="translate(610.000000, 2503.000000)">
                <path d="M99,0 L129,0 L129,30 L99,30 L99,0 Z M106.159089,10.0331931 L106.159089,18.9408945 C106.213905,19.2622285 106.11261,19.5904732 105.886231,19.8250803 L103.769231,22.3929815 L103.769231,22.7316058 L109.772104,22.7316058 L109.772104,22.3929815 L107.655103,19.8250803 C107.427065,19.5908615 107.319497,19.2647798 107.363427,18.9408945 L107.363427,11.2371908 L112.632407,22.7316058 L113.243985,22.7316058 L117.769662,11.2371908 L117.769662,20.3988605 C117.769662,20.6434225 117.769662,20.6904535 117.609711,20.8503595 L115.981972,22.4306065 L115.981972,22.7692308 L123.885441,22.7692308 L123.885441,22.4306065 L122.314156,20.8879845 C122.17545,20.7822542 122.106644,20.6084791 122.135388,20.4364854 L122.135388,9.10197622 C122.106644,8.92998249 122.17545,8.75620734 122.314156,8.65047709 L123.923077,7.10785511 L123.923077,6.76923077 L118.353013,6.76923077 L114.382461,16.6739926 L109.866193,6.76923077 L104.023271,6.76923077 L104.023271,7.10785511 L105.905049,9.37475692 C106.089785,9.54126631 106.184129,9.78579342 106.159089,10.0331931 Z" id="medium-icon"></path>
            </g>
        </g>
    </g>
</svg>