<?xml version="1.0" encoding="UTF-8"?>
<svg width="30px" height="30px" viewBox="0 0 30 30" version="1.1" xmlns="http://www.w3.org/2000/svg" xmlns:xlink="http://www.w3.org/1999/xlink">
    <!-- Generator: Sketch 52.1 (67048) - http://www.bohemiancoding.com/sketch -->
    <title>reddit-icon</title>
    <desc>Created with Sketch.</desc>
    <g id="Page-1" stroke="none" stroke-width="1" fill="none" fill-rule="evenodd">
        <g id="Desktop-HD-Copy-3" transform="translate(-801.000000, -2504.000000)" fill="#FFFFFF">
            <g id="Group-3" transform="translate(610.000000, 2503.000000)">
                <path d="M206,31 C197.715729,31 191,24.2842712 191,16 C191,7.71572875 197.715729,1 206,1 C214.284271,1 221,7.71572875 221,16 C221,24.2842712 214.284271,31 206,31 Z M215.621424,15.9282535 C215.635166,14.7439629 214.692989,13.7718251 213.514945,13.7547905 C212.963448,13.7585676 212.435908,13.9818596 212.047822,14.3757799 C210.389369,13.2093629 208.425191,12.5612698 206.401716,12.5128116 L207.368473,7.82434131 L210.50966,8.51984948 C210.571608,9.33709808 211.269968,9.95594902 212.084283,9.91519939 C212.898599,9.87444977 213.532369,9.18893688 213.513273,8.36954392 C213.494177,7.55015097 212.829167,6.89522635 212.013847,6.89285714 C211.434253,6.89824177 210.909761,7.23926429 210.667182,7.76845226 L207.161531,6.97669072 C207.066153,6.95699661 206.966908,6.97717421 206.886639,7.03257977 C206.800337,7.0875355 206.743527,7.17891101 206.732205,7.28097554 L205.660433,12.5128116 C203.607084,12.5425789 201.609955,13.1916028 199.927844,14.3757799 C199.540145,13.9812847 199.012357,13.7578877 198.460721,13.7547905 C197.283162,13.7718214 196.34187,14.744472 196.357331,15.9282535 C196.348262,16.7762107 196.830613,17.5520375 197.592802,17.9154198 C197.55771,18.1341018 197.540151,18.3552644 197.540295,18.5767735 C197.540295,21.9425363 201.320838,24.6810997 205.981656,24.6810997 C210.642473,24.6810997 214.423017,21.961166 214.423017,18.5767735 C214.422421,18.3552945 214.404866,18.1341901 214.370509,17.9154198 C215.131908,17.5488196 215.617817,16.7769194 215.621424,15.9282535 Z M201.15405,17.4807271 C201.176084,16.6512282 201.858974,15.9945491 202.684292,16.0092186 C203.50961,16.0238881 204.168981,16.704425 204.161831,17.5341886 C204.154682,18.3639521 203.483684,19.0329051 202.658237,19.0332008 C201.817468,19.0195835 201.145447,18.3259898 201.15405,17.4807271 Z M209.561435,21.6196218 C208.526728,22.6939335 206.559239,22.7591374 205.987833,22.7591374 C205.416427,22.7591374 203.433495,22.6690939 202.414231,21.6134119 C202.260445,21.4543504 202.260445,21.2011631 202.414231,21.0421016 C202.485544,20.9647127 202.585729,20.9207233 202.690668,20.9207233 C202.795606,20.9207233 202.895791,20.9647127 202.967105,21.0421016 C203.621905,21.722085 205.005633,21.9549561 205.987833,21.9549561 C206.970033,21.9549561 208.369205,21.722085 209.008562,21.0421016 C209.079875,20.9647127 209.18006,20.9207233 209.284998,20.9207233 C209.389937,20.9207233 209.490122,20.9647127 209.561435,21.0421016 C209.704305,21.2078204 209.704305,21.453903 209.561435,21.6196218 Z M209.286543,19.0611453 C208.658279,19.0788362 208.082023,18.7120105 207.829304,18.1335165 C207.576586,17.5550225 207.697826,16.8802737 208.135895,16.4272117 C208.573964,15.9741498 209.241464,15.8331636 209.823871,16.070686 C210.406277,16.3082084 210.787394,16.8768518 210.787641,17.5086717 C210.796261,18.352744 210.126099,19.0458422 209.286543,19.0611453 Z" id="reddit-icon"></path>
            </g>
        </g>
    </g>
</svg>