<?xml version="1.0" encoding="UTF-8"?>
<svg width="337px" height="271px" viewBox="0 0 337 271" version="1.1" xmlns="http://www.w3.org/2000/svg" xmlns:xlink="http://www.w3.org/1999/xlink">
    <!-- Generator: Sketch 52.1 (67048) - http://www.bohemiancoding.com/sketch -->
    <title>single-codebase</title>
    <desc>Created with Sketch.</desc>
    <defs>
        <rect id="path-1" x="125" y="0" width="172" height="20" rx="4"></rect>
        <filter x="-12.2%" y="-75.0%" width="124.4%" height="310.0%" filterUnits="objectBoundingBox" id="filter-2">
            <feOffset dx="0" dy="6" in="SourceAlpha" result="shadowOffsetOuter1"></feOffset>
            <feGaussianBlur stdDeviation="6" in="shadowOffsetOuter1" result="shadowBlurOuter1"></feGaussianBlur>
            <feColorMatrix values="0 0 0 0 0.25   0 0 0 0 0.507   0 0 0 0 1  0 0 0 0.25 0" type="matrix" in="shadowBlurOuter1"></feColorMatrix>
        </filter>
        <rect id="path-3" x="0" y="0" width="105" height="20" rx="4"></rect>
        <filter x="-20.0%" y="-75.0%" width="140.0%" height="310.0%" filterUnits="objectBoundingBox" id="filter-4">
            <feOffset dx="0" dy="6" in="SourceAlpha" result="shadowOffsetOuter1"></feOffset>
            <feGaussianBlur stdDeviation="6" in="shadowOffsetOuter1" result="shadowBlurOuter1"></feGaussianBlur>
            <feColorMatrix values="0 0 0 0 0.25   0 0 0 0 0.507   0 0 0 0 1  0 0 0 0.25 0" type="matrix" in="shadowBlurOuter1"></feColorMatrix>
        </filter>
        <rect id="path-5" x="214" y="72" width="83" height="20" rx="4"></rect>
        <filter x="-25.3%" y="-75.0%" width="150.6%" height="310.0%" filterUnits="objectBoundingBox" id="filter-6">
            <feOffset dx="0" dy="6" in="SourceAlpha" result="shadowOffsetOuter1"></feOffset>
            <feGaussianBlur stdDeviation="6" in="shadowOffsetOuter1" result="shadowBlurOuter1"></feGaussianBlur>
            <feColorMatrix values="0 0 0 0 0.25   0 0 0 0 0.507   0 0 0 0 1  0 0 0 0.25 0" type="matrix" in="shadowBlurOuter1"></feColorMatrix>
        </filter>
        <rect id="path-7" x="0" y="36" width="297" height="20" rx="4"></rect>
        <filter x="-7.1%" y="-75.0%" width="114.1%" height="310.0%" filterUnits="objectBoundingBox" id="filter-8">
            <feOffset dx="0" dy="6" in="SourceAlpha" result="shadowOffsetOuter1"></feOffset>
            <feGaussianBlur stdDeviation="6" in="shadowOffsetOuter1" result="shadowBlurOuter1"></feGaussianBlur>
            <feColorMatrix values="0 0 0 0 0.25   0 0 0 0 0.507   0 0 0 0 1  0 0 0 0.25 0" type="matrix" in="shadowBlurOuter1"></feColorMatrix>
        </filter>
        <rect id="path-9" x="0" y="72" width="194" height="20" rx="4"></rect>
        <filter x="-10.8%" y="-75.0%" width="121.6%" height="310.0%" filterUnits="objectBoundingBox" id="filter-10">
            <feOffset dx="0" dy="6" in="SourceAlpha" result="shadowOffsetOuter1"></feOffset>
            <feGaussianBlur stdDeviation="6" in="shadowOffsetOuter1" result="shadowBlurOuter1"></feGaussianBlur>
            <feColorMatrix values="0 0 0 0 0.25   0 0 0 0 0.507   0 0 0 0 1  0 0 0 0.25 0" type="matrix" in="shadowBlurOuter1"></feColorMatrix>
        </filter>
        <path d="M148.433072,107.002594 C149.04701,106.99084 149.670012,107.167865 150.209891,107.549499 L199.918183,142.687754 L203.345168,137.789693 C204.010053,136.839399 205.319414,136.608029 206.269709,137.272913 C206.537878,137.460541 206.75848,137.708253 206.913911,137.996282 L216.247942,155.293185 C216.798731,156.313853 216.417819,157.587771 215.397151,158.13856 C214.995827,158.355128 214.534912,158.435174 214.084068,158.366597 L194.709914,155.419662 C193.563304,155.245256 192.775178,154.17436 192.949585,153.027751 C192.998173,152.708317 193.119815,152.404404 193.305045,152.139662 L196.483476,147.596851 L148.399148,113.606558 L100.104201,147.596851 L103.29348,152.135287 C103.480355,152.401217 103.602953,152.706894 103.651621,153.028255 C103.825284,154.174977 103.036464,155.245361 101.889741,155.419025 L82.4148474,158.368364 C81.9631202,158.436775 81.5014054,158.356002 81.0997323,158.138295 C80.0800735,157.585641 79.7014918,156.311029 80.2541465,155.29137 L89.6367113,137.980353 C89.7913556,137.695031 90.0100248,137.449434 90.2755542,137.262839 C91.2244807,136.596004 92.5343147,136.824683 93.2011504,137.77361 L96.6544491,142.687754 L146.584094,107.54695 C147.145726,107.151671 147.796104,106.976138 148.433072,107.002594 Z" id="path-11"></path>
        <filter x="-15.4%" y="-29.2%" width="130.8%" height="181.7%" filterUnits="objectBoundingBox" id="filter-12">
            <feOffset dx="0" dy="6" in="SourceAlpha" result="shadowOffsetOuter1"></feOffset>
            <feGaussianBlur stdDeviation="6" in="shadowOffsetOuter1" result="shadowBlurOuter1"></feGaussianBlur>
            <feColorMatrix values="0 0 0 0 0.25   0 0 0 0 0.507   0 0 0 0 1  0 0 0 0.25 0" type="matrix" in="shadowBlurOuter1"></feColorMatrix>
        </filter>
        <path d="M297,30.9150557 L297,51.5248666 C297,54.2563682 294.772197,56.4706876 292.024063,56.4706876 C289.275929,56.4706876 287.048126,54.2563682 287.048126,51.5248666 L287.048126,30.9150557 C287.048126,29.1480838 287.996534,27.5153343 289.536095,26.6318483 C291.075655,25.7483624 292.972471,25.7483624 294.512032,26.6318483 C296.051592,27.5153343 297,29.1480838 297,30.9150557 Z M238.951874,30.9150557 L238.951874,51.5248666 C238.951874,54.2563683 236.724071,56.470688 233.975937,56.470688 C231.227803,56.470688 229,54.2563683 229,51.5248666 L229,30.9150557 C229,28.1835539 231.227803,25.9692343 233.975937,25.9692343 C236.724071,25.9692343 238.951874,28.1835539 238.951874,30.9150557 Z M273.877318,7.3457505 C280.70094,10.6741524 285.072985,17.5220529 285.197239,25.0760536 L240.802761,25.0760536 C240.925937,17.5142683 245.311175,10.6619427 252.149507,7.3457505 L248.635503,1.0401615 C248.540423,0.880264869 248.515297,0.688665818 248.565964,0.259886809 C248.616631,0.331107799 248.738679,0.180715345 248.903748,0.0936566015 C249.24153,-0.0876133775 249.66309,0.030417356 249.856016,0.360277701 L253.383432,6.74585302 C259.510209,4.06222781 266.489791,4.06222781 272.616568,6.74585302 L276.170809,0.360277701 C276.28953,0.132183501 276.529528,-0.00783222159 276.787771,0.000339216824 C276.904653,0.00907336543 277.018626,0.040792707 277.123077,0.0936566015 C277.291101,0.177791234 277.41584,0.328211445 277.466852,0.258209301 C277.517865,0.688207156 277.490458,0.88122571 277.391321,1.0401615 L273.877318,7.3457505 Z M252.753057,16.9974343 C253.775274,16.9974343 254.603945,16.173779 254.603945,15.1577487 C254.609368,14.4058744 254.157145,13.725279 253.459298,13.4350538 C252.761452,13.1448286 251.95634,13.3025156 251.421434,13.8341846 C250.886527,14.3658537 250.72788,15.1660924 251.019873,15.8597157 C251.311865,16.5533389 251.996605,17.0028243 252.753057,16.9974343 Z M273.246943,16.9974343 C273.737829,16.9974343 274.208609,16.8036108 274.555718,16.4586029 C274.902827,16.1135949 275.09783,15.6456637 275.09783,15.1577487 C275.103253,14.4058744 274.651031,13.725279 273.953184,13.4350538 C273.255337,13.1448286 272.450226,13.3025156 271.915319,13.8341846 C271.380413,14.3658537 271.221766,15.1660924 271.513758,15.8597157 C271.805751,16.5533389 272.49049,17.0028243 273.246943,16.9974343 Z M240.802761,26.8224218 L285.197239,26.8224218 L285.197239,58.8169537 C285.197239,61.761969 282.795295,64.1493757 279.832347,64.1493757 L276.264694,64.1493757 L276.264694,75.0541786 C276.264694,77.7856803 274.036891,80 271.288757,80 C268.540623,80 266.312821,77.7856803 266.312821,75.0541786 L266.312821,64.1493757 L259.687179,64.1493757 L259.687179,75.0541786 C259.687179,77.7856803 257.459377,80 254.711243,80 C251.963109,80 249.735306,77.7856803 249.735306,75.0541786 L249.735306,64.1493757 L246.167653,64.1493757 C243.204705,64.1493757 240.802761,61.761969 240.802761,58.8169537 L240.802761,26.8224218 Z" id="path-13"></path>
        <filter x="-51.5%" y="-31.2%" width="202.9%" height="187.5%" filterUnits="objectBoundingBox" id="filter-14">
            <feOffset dx="0" dy="10" in="SourceAlpha" result="shadowOffsetOuter1"></feOffset>
            <feGaussianBlur stdDeviation="10" in="shadowOffsetOuter1" result="shadowBlurOuter1"></feGaussianBlur>
            <feColorMatrix values="0 0 0 0 0.25   0 0 0 0 0.507   0 0 0 0 1  0 0 0 0.25 0" type="matrix" in="shadowBlurOuter1"></feColorMatrix>
        </filter>
        <path d="M54.328657,42.5396373 C54.2355156,32.3984439 62.5783237,27.5413461 62.9508893,27.3011599 C59.6016659,22.4697031 54.1782788,19.5030967 48.3143839,19.2949547 C42.1005221,18.6678019 36.1793904,22.9644654 33.0258888,22.9644654 C29.8723872,22.9644654 25.0423404,19.3883604 19.853034,19.4817661 C12.9706912,19.6766506 6.69817348,23.4883507 3.34039476,29.5162101 C-3.69843372,41.7790478 1.54409637,59.9264464 8.39664206,69.8541409 C11.7497324,74.7245824 15.7548125,80.1821457 20.9973426,79.9953342 C26.2398727,79.8085227 27.9696415,76.71279 34.077056,76.71279 C40.1844705,76.71279 41.9142393,79.9953342 47.2632167,79.8885848 C52.6121941,79.7818354 56.1515672,74.9380812 59.4780457,70.054296 C61.8537617,66.5456079 63.7134832,62.712248 65,58.6721409 C58.5623445,55.8988484 54.3732086,49.5658828 54.328657,42.5396373 Z M44.282692,12.7832411 C47.2961587,9.23948238 48.7886539,4.64375135 48.4341371,0 C43.8866963,0.442102691 39.679271,2.609062 36.6717092,6.05802865 C34.0903619,9.06035562 31.8283565,13.8507351 32.4404286,18.4543031 C36.9112157,18.8012387 41.4884501,16.1725346 44.282692,12.7832411 Z" id="path-15"></path>
        <filter x="-53.8%" y="-31.2%" width="207.7%" height="187.5%" filterUnits="objectBoundingBox" id="filter-16">
            <feOffset dx="0" dy="10" in="SourceAlpha" result="shadowOffsetOuter1"></feOffset>
            <feGaussianBlur stdDeviation="10" in="shadowOffsetOuter1" result="shadowBlurOuter1"></feGaussianBlur>
            <feColorMatrix values="0 0 0 0 0.25   0 0 0 0 0.507   0 0 0 0 1  0 0 0 0.25 0" type="matrix" in="shadowBlurOuter1"></feColorMatrix>
        </filter>
    </defs>
    <g id="Page-1" stroke="none" stroke-width="1" fill="none" fill-rule="evenodd">
        <g id="Desktop-HD" transform="translate(-287.000000, -716.000000)">
            <g id="Group-7" transform="translate(307.000000, 722.000000)">
                <g id="single-codebase">
                    <g id="Group-5">
                        <g id="Rectangle">
                            <use fill="black" fill-opacity="1" filter="url(#filter-2)" xlink:href="#path-1"></use>
                            <use fill="#FFFFFF" fill-rule="evenodd" xlink:href="#path-1"></use>
                        </g>
                        <g id="Rectangle-Copy-2">
                            <use fill="black" fill-opacity="1" filter="url(#filter-4)" xlink:href="#path-3"></use>
                            <use fill="#4082FF" fill-rule="evenodd" xlink:href="#path-3"></use>
                        </g>
                        <g id="Rectangle-Copy-4">
                            <use fill="black" fill-opacity="1" filter="url(#filter-6)" xlink:href="#path-5"></use>
                            <use fill="#4082FF" fill-rule="evenodd" xlink:href="#path-5"></use>
                        </g>
                        <g id="Rectangle-Copy">
                            <use fill="black" fill-opacity="1" filter="url(#filter-8)" xlink:href="#path-7"></use>
                            <use fill="#FFFFFF" fill-rule="evenodd" xlink:href="#path-7"></use>
                        </g>
                        <g id="Rectangle-Copy-3">
                            <use fill="black" fill-opacity="1" filter="url(#filter-10)" xlink:href="#path-9"></use>
                            <use fill="#FFFFFF" fill-rule="evenodd" xlink:href="#path-9"></use>
                        </g>
                    </g>
                    <g id="Combined-Shape" fill-rule="nonzero">
                        <use fill="black" fill-opacity="1" filter="url(#filter-12)" xlink:href="#path-11"></use>
                        <use fill="#4082FF" xlink:href="#path-11"></use>
                    </g>
                    <g id="Group-2" transform="translate(0.000000, 156.000000)">
                        <g id="Combined-Shape">
                            <use fill="black" fill-opacity="1" filter="url(#filter-14)" xlink:href="#path-13"></use>
                            <use fill="#4082FF" fill-rule="evenodd" xlink:href="#path-13"></use>
                        </g>
                        <g id="Shape" fill-rule="nonzero">
                            <use fill="black" fill-opacity="1" filter="url(#filter-16)" xlink:href="#path-15"></use>
                            <use fill="#4082FF" xlink:href="#path-15"></use>
                        </g>
                    </g>
                </g>
            </g>
        </g>
    </g>
</svg>