<svg xmlns="http://www.w3.org/2000/svg" width="1920" height="1080"><defs><linearGradient x1="0%" y1="34.1796875%" x2="100%" y2="65.8203125%" id="A"><stop stop-color="#63e5ff" offset="0%"/><stop stop-color="#40a5ff" offset="35.5917772%"/><stop stop-color="#3c0cbb" offset="100%"/></linearGradient><linearGradient x1="87.8288724%" y1="35.1942756%" x2="12.1711276%" y2="100%" id="B"><stop stop-color="#63e5ff" offset="0%"/><stop stop-color="#40a5ff" offset="35.5917772%"/><stop stop-color="#3c0cbb" offset="100%"/></linearGradient><linearGradient x1="87.8245353%" y1="0%" x2="12.1754647%" y2="64.2008253%" id="C"><stop stop-color="#63e5ff" offset="0%"/><stop stop-color="#40a5ff" offset="35.5917772%"/><stop stop-color="#3c0cbb" offset="100%"/></linearGradient></defs><g fill="none" fill-rule="evenodd"><path fill="url(#A)" d="M0 0h1920v1080H0z"/><path d="M125.802 1080l85.274-532.852c2.85-17.85 14.28-33.184 30.56-41s35.325-7.115 50.913 1.885l309.854 178.894c19.583 11.317 30.138 33.587 26.55 56.014L575 1080h-449.21z" fill="url(#B)" opacity=".4"/><path d="M1291.105 336.996L1345.017 0h449.186l-85.274 532.878c-2.865 17.838-14.296 33.158-30.568 40.968s-35.304 7.11-50.893-1.87l-309.82-178.874c-19.62-11.327-30.174-33.65-26.543-56.106z" fill="url(#C)" opacity=".4"/><g fill="#fff"><g fill-rule="nonzero"><path d="M1250.6 939.888l49.547-152.488h-99.095l49.547 152.488z"/><path fill-opacity=".75" d="M1250.6 939.886l-49.548-152.488h-69.438z"/><path d="M1131.624 787.398l-15.056 46.34a10.26 10.26 0 0 0 3.726 11.468l130.316 94.68-118.986-152.5z" fill-opacity=".5"/><path d="M1131.624 787.4h69.438l-29.84-91.843c-1.536-4.726-8.22-4.725-9.756 0l-29.84 91.843z"/><path fill-opacity=".75" d="M1250.6 939.886l49.547-152.488h69.44l-118.987 152.488z"/><path d="M1369.595 787.398l15.056 46.34a10.26 10.26 0 0 1-3.727 11.468l-130.315 94.68 118.986-152.5z" fill-opacity=".5"/><path d="M1369.595 787.4h-69.44l29.84-91.843c1.536-4.726 8.22-4.725 9.756 0l29.84 91.843z"/><g opacity=".8"><path d="M944.84 607.38h-.155l-72.3-72.3 41.276-41.43 113.586 113.74z"/><path d="M944.686 462.603l-72.466 72.3 41.43 41.276 113.586-113.586zm0-123.827l-.155-.155L809.997 473l41.43 41.43 175.655-175.655z"/></g></g><path d="M579.625 882.672l8.477 6.625c-8.3 10.812-8.9 26.208-.477 37.802 10.257 14.118 30.01 17.25 44.12 7 6.293-4.572 10.4-11.034 12.1-18.043l.113-.478a31.69 31.69 0 0 0 .14-13.443l73.902.018c1.895-5.14 6.087-9.365 11.73-11.1a18.15 18.15 0 0 1 22.662 12.042 18.15 18.15 0 0 1-12.054 22.656c-8.94 2.734-18.37-1.772-21.975-10.165l-63.45-.016a42.18 42.18 0 0 1-16.858 27.221c-18.914 13.742-45.392 9.54-59.14-9.383-11.3-15.567-10.483-36.25.697-50.746zM774.37 775.04a18.15 18.15 0 0 1 18.142 18.151c0 9.488-7.276 17.276-16.55 18.082l-20.66 59.952a42.18 42.18 0 0 1 20.25 24.802c6.835 22.357-5.757 46.025-28.126 52.864-18.402 5.626-37.687-1.9-47.754-17.18l9.024-5.86c7.52 11.367 21.883 16.947 35.587 12.758 16.688-5.102 26.082-22.76 20.983-39.438-2.274-7.438-7.047-13.426-13.117-17.325l-.415-.262a31.69 31.69 0 0 0-12.665-4.509l24.01-69.678a18.12 18.12 0 0 1-6.849-14.207 18.15 18.15 0 0 1 18.142-18.151zM592.263 752.2l-3.857 10.044c-12.766-4.775-27.665-.85-36.29 10.596-10.502 13.936-7.723 33.743 6.206 44.24 6.212 4.68 13.592 6.72 20.795 6.306l.5-.032a31.69 31.69 0 0 0 12.897-3.796l21.64 70.847c5.266.288 10.364 2.858 13.706 7.46a18.15 18.15 0 0 1-4.008 25.348 18.15 18.15 0 0 1-25.346-4.021c-5.615-7.73-4.25-18.4 2.907-24.482L582.8 833.843a42.18 42.18 0 0 1-30.96-8.163c-18.67-14.07-22.395-40.62-8.318-59.3 11.58-15.368 31.6-20.623 48.732-14.17zm83.334-48.43a18.15 18.15 0 0 1 18.142 18.151 18.24 18.24 0 0 1-.373 3.681l51.366 37.338.4-.377c7.6-7.27 17.903-11.735 29.248-11.735 23.38 0 42.33 18.962 42.33 42.353 0 19.242-12.826 35.488-30.39 40.645l-2.964-10.342c13.07-3.87 22.605-15.97 22.605-30.302 0-17.45-14.14-31.596-31.58-31.596a31.45 31.45 0 0 0-20.775 7.799h-.001l-.437.4c-3.187 2.893-5.78 6.43-7.577 10.403l-59.632-43.347a18.05 18.05 0 0 1-10.35 3.242 18.15 18.15 0 1 1 0-36.302zm16.83-20.28c18.082 6.58 28.96 24.2 27.8 42.46l-10.733-.752c.834-13.604-7.277-26.704-20.743-31.606-16.398-5.968-34.527 2.48-40.492 18.87-2.66 7.31-2.452 14.963.05 21.73l.174.46a31.69 31.69 0 0 0 7.401 11.223l-61.048 41.156c1.435 5.237.513 11.06-3.01 15.734a18.15 18.15 0 0 1-25.412 3.578 18.15 18.15 0 0 1-3.565-25.414c5.652-7.5 15.994-9.38 23.857-4.63l52.69-35.52a42.18 42.18 0 0 1-1.246-31.994c7.996-21.97 32.296-33.293 54.277-25.292z"/></g><path d="M852.956 565.56l-93.77 126.14M816.7 864.05l275.28.088M999.5 530.5l144.8 143.2" stroke="#fff" stroke-width="9" stroke-linecap="round" stroke-linejoin="round" stroke-dasharray="18"/><path d="M606.665 150v-24.84h24.75v-11.43h-24.84V97.98h27.9V86.2h-40.32V150h12.5zm46.62 0V84.84h-11.97V150h11.97zm26.28 1.17c4.68 0 9.8-1.8 12.24-5.94 0 1.8.18 3.87.36 4.77h11.43c-.18-1.53-.45-4.6-.45-8v-36.27h-11.97v25.74c0 5.13-3.06 8.73-8.37 8.73-5.58 0-8.1-3.96-8.1-8.9v-25.56h-11.97v28c0 9.63 6.12 17.46 16.83 17.46zm50.58-.54c3.5 0 5.67-.63 6.75-1.08v-9.9c-.63.18-2.25.36-3.7.36-3.42 0-5.22-1.26-5.22-5.13v-18.54h8.9v-10.62h-8.9V92.5h-10.8v6.2c0 3.96-2.16 7.02-6.84 7.02h-2.25v10.62h8v20.6c0 8.55 5.4 13.68 14.04 13.68zm30.87 0c3.5 0 5.67-.63 6.75-1.08v-9.9c-.63.18-2.25.36-3.7.36-3.42 0-5.22-1.26-5.22-5.13v-18.54h8.9v-10.62h-8.9V92.5h-10.8v6.2c0 3.96-2.16 7.02-6.84 7.02h-2.25v10.62h8v20.6c0 8.55 5.4 13.68 14.04 13.68zm33.3.72c10.9 0 17.9-6.4 20.16-14.04l-10-2.97c-1.44 3.96-4.5 6.75-10.08 6.75-5.94 0-10.9-4.23-11.16-10.08h31.68c0-.18.18-1.98.18-3.7 0-14.22-8.2-22.95-21.87-22.95-11.34 0-21.78 9.18-21.78 23.3 0 14.94 10.7 23.67 22.86 23.67zm9-28.53h-19.8c.27-4.05 3.7-8.73 9.9-8.73 6.84 0 9.72 4.32 9.9 8.73zm30.5 27.18v-20.25c0-9.54 5.3-12.5 11.43-12.5 1.08 0 2.25.1 3.6.36v-12.06c-.9-.1-1.8-.18-2.8-.18-3.78 0-9.9 1.08-12.6 6.93v-6.57h-11.6V150h11.97zm47.7 0l5.3-14.58h25.92l5.3 14.58h13.5l-24.3-63.8h-14.4l-24.48 63.8h13.14zm27.1-25.92h-17.64l8.82-24.12 8.82 24.12zm42.2 27.1c4.68 0 9.8-1.8 12.24-5.94 0 1.8.18 3.87.36 4.77h11.43c-.18-1.53-.45-4.6-.45-8v-36.27h-11.97v25.74c0 5.13-3.06 8.73-8.37 8.73-5.58 0-8.1-3.96-8.1-8.9v-25.56h-11.97v28c0 9.63 6.12 17.46 16.83 17.46zm50.58-.54c3.5 0 5.67-.63 6.75-1.08v-9.9c-.63.18-2.25.36-3.7.36-3.42 0-5.22-1.26-5.22-5.13v-18.54h8.9v-10.62h-8.9V92.5h-10.8v6.2c0 3.96-2.16 7.02-6.84 7.02h-2.25v10.62h8v20.6c0 8.55 5.4 13.68 14.04 13.68zm33.66.72c13.23 0 23.22-9.9 23.22-23.5 0-13.68-10-23.5-23.22-23.5s-23.22 9.8-23.22 23.5c0 13.6 10 23.5 23.22 23.5zm0-10.9c-5.85 0-11.25-4.32-11.25-12.6 0-8.37 5.4-12.6 11.25-12.6s11.25 4.23 11.25 12.6-5.4 12.6-11.25 12.6zm41.94 9.54v-25.92c0-4.86 3.06-8.73 8.28-8.73 5.4 0 7.83 3.6 7.83 8.37V150h11.88v-25.92c0-4.77 3.06-8.73 8.2-8.73 5.5 0 7.83 3.6 7.83 8.37V150h11.6v-28.7c0-11.88-7.83-16.83-16.02-16.83-5.85 0-10.53 1.98-14.04 7.38-2.25-4.77-7.1-7.38-13.14-7.38-4.86 0-10.53 2.34-12.96 6.66v-5.4h-11.43V150h11.97zm77.58 1.26c6.57 0 10.8-3.06 13.05-6.57 0 1.7.18 4.14.45 5.3h10.98c-.27-1.53-.54-4.68-.54-7.02V121.2c0-8.9-5.22-16.83-19.26-16.83-11.88 0-18.27 7.65-19 14.58l10.62 2.25c.36-3.87 3.24-7.2 8.46-7.2 5.04 0 7.47 2.6 7.47 5.76 0 1.53-.8 2.8-3.33 3.15l-10.9 1.62c-7.38 1.08-13.23 5.5-13.23 13.4 0 6.93 5.76 13.32 15.2 13.32zm2.52-8.9c-3.87 0-5.76-2.52-5.76-5.13 0-3.42 2.43-5.13 5.5-5.58l10-1.53v1.98c0 7.83-4.68 10.26-9.72 10.26zm47.43 8.28c3.5 0 5.67-.63 6.75-1.08v-9.9c-.63.18-2.25.36-3.7.36-3.42 0-5.22-1.26-5.22-5.13v-18.54h8.9v-10.62h-8.9V92.5h-10.8v6.2c0 3.96-2.16 7.02-6.84 7.02h-2.25v10.62h8v20.6c0 8.55 5.4 13.68 14.04 13.68zm20.16-52.1c4.14 0 7.38-3.33 7.38-7.3 0-4.14-3.24-7.47-7.38-7.47-4.05 0-7.38 3.33-7.38 7.47 0 3.96 3.33 7.3 7.38 7.3zm6.03 51.48v-44.28h-11.97V150h11.97zm29.97 1.35c13.23 0 23.22-9.9 23.22-23.5 0-13.68-10-23.5-23.22-23.5s-23.22 9.8-23.22 23.5c0 13.6 10 23.5 23.22 23.5zm0-10.9c-5.85 0-11.25-4.32-11.25-12.6 0-8.37 5.4-12.6 11.25-12.6s11.25 4.23 11.25 12.6-5.4 12.6-11.25 12.6zm41.94 9.54v-25.47c0-5.13 3.06-9.18 8.28-9.18 5.76 0 8.2 3.87 8.2 8.82V150h11.97v-27.9c0-9.72-5.04-17.55-16.02-17.55-4.77 0-10.08 2.07-12.78 6.66v-5.5h-11.6V150h11.97zm-752.76 114l10.17-30.24 10.35 30.24h11.97l13.86-44.28h-11.88l-8.2 28.53-9.54-28.53h-12.6l-9.63 28.44-8.2-28.44h-12.6l14.13 44.28h12.15zm57.06-51.48c4.14 0 7.38-3.33 7.38-7.3 0-4.14-3.24-7.47-7.38-7.47-4.05 0-7.38 3.33-7.38 7.47 0 3.96 3.33 7.3 7.38 7.3zm6.03 51.48v-44.28h-11.97V264h11.97zm27 .63c3.5 0 5.67-.63 6.75-1.08v-9.9c-.63.18-2.25.36-3.7.36-3.42 0-5.22-1.26-5.22-5.13v-18.54h8.9v-10.62h-8.9V206.5h-10.8v6.2c0 3.96-2.16 7.02-6.84 7.02h-2.25v10.62h8v20.6c0 8.55 5.4 13.68 14.04 13.68zm24.03-.63v-26c.27-4.86 3.24-8.64 8.28-8.64 5.76 0 8.2 3.87 8.2 8.82V264h11.97v-27.9c0-9.72-5.22-17.55-16.47-17.55-4.23 0-9.1 1.44-11.97 4.86v-24.57h-11.97V264h11.97zm86.4 1.35c9.63 0 15.93-4.32 18.8-8.64l.8 7.3h10.08v-33.2h-31.86v10.8h20.16c-.72 4.5-5.3 12.42-17.1 12.42-10.7 0-20.16-7.47-20.16-21.87 0-15.12 10.44-21.7 20.07-21.7 10.35 0 15.66 6.57 17.28 12.24l11.88-4.23c-3.15-9.8-12.42-19.62-29.16-19.62-17.28 0-32.67 12.7-32.67 33.3s14.67 33.2 31.86 33.2zm44.55-52.83c4.14 0 7.38-3.33 7.38-7.3 0-4.14-3.24-7.47-7.38-7.47-4.05 0-7.38 3.33-7.38 7.47 0 3.96 3.33 7.3 7.38 7.3zm6.03 51.48v-44.28h-11.97V264h11.97zm27 .63c3.5 0 5.67-.63 6.75-1.08v-9.9c-.63.18-2.25.36-3.7.36-3.42 0-5.22-1.26-5.22-5.13v-18.54h8.9v-10.62h-8.9V206.5h-10.8v6.2c0 3.96-2.16 7.02-6.84 7.02h-2.25v10.62h8v20.6c0 8.55 5.4 13.68 14.04 13.68zm55.7-.63v-11.88h-28.44V200.2h-12.42V264h40.86zm19 1.26c6.57 0 10.8-3.06 13.05-6.57 0 1.7.18 4.14.45 5.3h10.98c-.27-1.53-.54-4.68-.54-7.02V235.2c0-8.9-5.22-16.83-19.26-16.83-11.88 0-18.27 7.65-19 14.58l10.62 2.25c.36-3.87 3.24-7.2 8.46-7.2 5.04 0 7.47 2.6 7.47 5.76 0 1.53-.8 2.8-3.33 3.15l-10.9 1.62c-7.38 1.08-13.23 5.5-13.23 13.4 0 6.93 5.76 13.32 15.2 13.32zm2.52-8.9c-3.87 0-5.76-2.52-5.76-5.13 0-3.42 2.43-5.13 5.5-5.58l10-1.53v1.98c0 7.83-4.68 10.26-9.72 10.26zm55.53 8.73c12.6 0 20.88-10 20.88-23.4 0-13.14-7.47-23.13-20.43-23.13-6.57 0-11.43 2.88-13.4 6.03v-25.74h-11.8V264h11.6v-5.4c2.34 3.78 7.02 6.48 13.14 6.48zm-2.07-10.7c-6.03 0-11.07-4.6-11.07-12.6 0-8.1 5.04-12.5 11.07-12.5 6.12 0 10.98 4.4 10.98 12.5s-4.86 12.6-10.98 12.6zm64.62 10.8c6.84 0 12.33-3.24 17.1-8.1l6.57 6.93h15.48l-14.4-15.12 8.9-9.36v-14.94l-16.1 16.83-9.63-10.17 2.43-1.8c4.6-3.42 9-8.1 9-14.58 0-9.54-7.56-16.1-17.73-16.1-8.64 0-17.64 5.94-17.64 16.65 0 5.76 3.96 10.62 7.02 13.86l1 1.08-.45.27c-6.66 4.95-10.9 9.54-10.9 17.46 0 8.55 6.84 17.1 19.35 17.1zm.8-41.3l-1.7-1.9c-1.62-1.62-3.78-4.23-3.78-6.93 0-4.32 3.24-6.4 6.2-6.4 3.78 0 6.48 2.7 6.48 6.12 0 2.34-1.08 4.6-4.05 6.75l-3.15 2.34zm-.63 30.87c-4.68 0-7.65-3.7-7.65-7.38 0-3.78 2.07-6.2 5.13-8.46l1.35-1 10.9 11.52c-3.06 3.24-5.85 5.3-9.72 5.3zm72 9.27v-24.84h24.75v-11.43h-24.84v-15.75h27.9v-11.8h-40.32V264h12.5zm43.83 1.26c6.57 0 10.8-3.06 13.05-6.57 0 1.7.18 4.14.45 5.3h10.98c-.27-1.53-.54-4.68-.54-7.02V235.2c0-8.9-5.22-16.83-19.26-16.83-11.88 0-18.27 7.65-19 14.58l10.62 2.25c.36-3.87 3.24-7.2 8.46-7.2 5.04 0 7.47 2.6 7.47 5.76 0 1.53-.8 2.8-3.33 3.15l-10.9 1.62c-7.38 1.08-13.23 5.5-13.23 13.4 0 6.93 5.76 13.32 15.2 13.32zm2.52-8.9c-3.87 0-5.76-2.52-5.76-5.13 0-3.42 2.43-5.13 5.5-5.58l10-1.53v1.98c0 7.83-4.68 10.26-9.72 10.26zm45.45 9c11.6 0 17.2-7.38 17.2-14.58 0-6.48-4.4-11.8-13.14-13.6l-6.3-1.35c-2.43-.45-4.05-1.8-4.05-3.96 0-2.52 2.52-4.4 5.67-4.4 5.04 0 6.93 3.33 7.3 5.94l10-2.25c-.54-4.77-4.77-12.78-17.37-12.78-9.54 0-16.56 6.57-16.56 14.5 0 6.2 3.87 11.34 12.42 13.23l5.85 1.35c3.42.72 4.77 2.34 4.77 4.32 0 2.34-1.9 4.4-5.85 4.4-5.22 0-7.83-3.24-8.1-6.75l-10.26 2.25c.54 5.04 5.13 13.68 18.45 13.68zm41.04-.72c3.5 0 5.67-.63 6.75-1.08v-9.9c-.63.18-2.25.36-3.7.36-3.42 0-5.22-1.26-5.22-5.13v-18.54h8.9v-10.62h-8.9V206.5h-10.8v6.2c0 3.96-2.16 7.02-6.84 7.02h-2.25v10.62h8v20.6c0 8.55 5.4 13.68 14.04 13.68zm24.03-.63v-65.16h-11.97V264h11.97zm22.32 1.26c6.57 0 10.8-3.06 13.05-6.57 0 1.7.18 4.14.45 5.3h10.98c-.27-1.53-.54-4.68-.54-7.02V235.2c0-8.9-5.22-16.83-19.26-16.83-11.88 0-18.27 7.65-19 14.58l10.62 2.25c.36-3.87 3.24-7.2 8.46-7.2 5.04 0 7.47 2.6 7.47 5.76 0 1.53-.8 2.8-3.33 3.15l-10.9 1.62c-7.38 1.08-13.23 5.5-13.23 13.4 0 6.93 5.76 13.32 15.2 13.32zm2.52-8.9c-3.87 0-5.76-2.52-5.76-5.13 0-3.42 2.43-5.13 5.5-5.58l10-1.53v1.98c0 7.83-4.68 10.26-9.72 10.26zm42.75 7.65v-25.47c0-5.13 3.06-9.18 8.28-9.18 5.76 0 8.2 3.87 8.2 8.82V264h11.97v-27.9c0-9.72-5.04-17.55-16.02-17.55-4.77 0-10.08 2.07-12.78 6.66v-5.5h-11.6V264h11.97zm57.42 1.35c10.9 0 17.9-6.4 20.16-14.04l-10-2.97c-1.44 3.96-4.5 6.75-10.08 6.75-5.94 0-10.9-4.23-11.16-10.08h31.68c0-.18.18-1.98.18-3.7 0-14.22-8.2-22.95-21.87-22.95-11.34 0-21.78 9.18-21.78 23.3 0 14.94 10.7 23.67 22.86 23.67zm9-28.53h-19.8c.27-4.05 3.7-8.73 9.9-8.73 6.84 0 9.72 4.32 9.9 8.73z" fill="#efeff3" fill-rule="nonzero"/><path d="M1823.907 843.734a7.73 7.73 0 0 1 6.37 3.363 7.76 7.76 0 0 1 .844 7.164l-35.78 93.402a7.73 7.73 0 0 1-7.214 4.97h-50.6c-2.546 0-4.93-1.258-6.37-3.36a7.76 7.76 0 0 1-.844-7.164l3.085-8.06h31.35c3.2-.003 6.067-1.98 7.214-4.973l32.693-85.34zM1796.653 820c2.546 0 4.93 1.258 6.37 3.36a7.76 7.76 0 0 1 .844 7.164l-35.78 93.387a7.73 7.73 0 0 1-7.22 4.982h-50.603a7.73 7.73 0 0 1-6.367-3.361 7.76 7.76 0 0 1-.847-7.16l35.78-93.402a7.73 7.73 0 0 1 7.214-4.97zm-6.6 32.116l-76.754 53.852-4.778 12.484a3.89 3.89 0 0 0 .423 3.583 3.87 3.87 0 0 0 3.184 1.685l47.836-.012a3.87 3.87 0 0 0 3.61-2.492l26.48-69.1zm7.724-20.164l-76.76 53.858-3.858 10.073 76.754-53.84 3.864-10.1zM1692.82 1010.2l-2.973-8.173h-14.514l-2.973 8.173H1665l13.708-35.772h8.064l13.607 35.772h-7.56zm-10.23-28.052l-4.94 13.522h9.878l-4.94-13.522zm26.962 37.638h-6.703v-34.4h6.5v3.027c1.1-1.917 3.88-3.582 7.6-3.582 7.257 0 11.44 5.55 11.44 12.916 0 7.518-4.687 13.067-11.692 13.067-3.427 0-5.947-1.362-7.156-3.027v12.008zm12.246-21.998c0-4.4-2.72-6.963-6.148-6.963s-6.2 2.573-6.2 6.963 2.772 7.013 6.2 7.013 6.148-2.573 6.148-7.013zm16.626 21.998h-6.703v-34.4h6.5v3.027c1.1-1.917 3.88-3.582 7.6-3.582 7.257 0 11.44 5.55 11.44 12.916 0 7.518-4.687 13.067-11.692 13.067-3.427 0-5.947-1.362-7.156-3.027v12.008zm12.246-21.998c0-4.4-2.72-6.963-6.148-6.963s-6.2 2.573-6.2 6.963 2.772 7.013 6.2 7.013 6.148-2.573 6.148-7.013zm34.934-24.117v32.038a51.14 51.14 0 0 0 .202 4.5h-6.4c-.1-.505-.252-1.715-.252-2.876-1.1 1.968-3.63 3.48-6.955 3.48-7.056 0-12.095-5.55-12.095-13.067 0-7.265 4.9-12.967 11.894-12.967 4.284 0 6.3 1.766 7.005 3.078V973.68h6.602zm-18.748 24.066c0 4.44 2.62 7.063 6.148 7.063 3.427 0 6.098-2.624 6.098-7.114 0-4.44-2.67-6.912-6.098-6.912s-6.148 2.523-6.148 6.963zm29.82 12.462h-6.703v-24.823h6.703v24.823zm19.943-24.823c2.62 0 3.83-1.715 3.83-3.935v-3.48h6.048v7.417h5v5.954h-5v10.393c0 2.17 1.008 2.876 2.923 2.876.806 0 1.713-.1 2.066-.202v5.55c-.605.252-1.814.605-3.78.605-4.838 0-7.862-2.876-7.862-7.67V991.33h-9.26v10.393c0 2.17 1.008 2.876 2.923 2.876.806 0 1.713-.1 2.066-.202v5.55c-.605.252-1.814.605-3.78.605-4.838 0-7.862-2.876-7.862-7.67V991.33h-4.485v-5.954h1.26c2.62 0 3.83-1.715 3.83-3.935v-3.48h6.048v7.417h6.034zm29.936 19.475c3.276 0 6.3-2.37 6.3-7.063s-3.024-7.063-6.3-7.063-6.3 2.37-6.3 7.063c0 4.642 3.024 7.063 6.3 7.063zm0-20.232c7.408 0 13.002 5.5 13.002 13.168 0 7.618-5.594 13.168-13.002 13.168s-13.002-5.55-13.002-13.168c0-7.67 5.594-13.168 13.002-13.168zm-53.256-11.554c2.318 0 4.133 1.867 4.133 4.188 0 2.22-1.814 4.087-4.133 4.087-2.268 0-4.133-1.867-4.133-4.087 0-2.32 1.865-4.188 4.133-4.188z" fill="#fff"/></g></svg>