<svg xmlns="http://www.w3.org/2000/svg" xmlns:xlink="http://www.w3.org/1999/xlink" width="900" height="500"><defs><rect id="A" x="347.5" y="147.5" width="204.8" height="204.8" rx="102.4"/><filter x="-34.2%" y="-24.4%" width="168.4%" height="168.4%" id="B"><feOffset dy="20" in="SourceAlpha"/><feGaussianBlur stdDeviation="20"/><feColorMatrix values="0 0 0 0 0.631372549 0 0 0 0 0.117647059 0 0 0 0 0.152941176 0 0 0 0.2 0"/></filter><radialGradient cx="13.2545856%" cy="13.3394017%" fx="13.2545856%" fy="13.3394017%" r="77.3006755%" id="C"><stop stop-color="#fff" stop-opacity=".15" offset="0%"/><stop stop-color="#fff" stop-opacity="0" offset="100%"/></radialGradient><path d="M502.152 227.565h-9.898c-.655 0-1.284.26-1.747.725a2.48 2.48 0 0 0-.723 1.753v9.25l-3.16 3.164h-9.214c-.655 0-1.284.26-1.747.725a2.48 2.48 0 0 0-.723 1.753v9.25l-3.16 3.165-9.58.03-4.892-4.13v-7.63l3.16-3.164h9.22c.656.001 1.285-.26 1.75-.724a2.48 2.48 0 0 0 .725-1.754v-9.932a2.48 2.48 0 0 0-.723-1.757c-.464-.466-1.094-.727-1.75-.725H459.8c-.655 0-1.284.26-1.747.725a2.48 2.48 0 0 0-.724 1.753v9.25l-3.153 3.164-9.58.03-4.892-4.133v-8.31a2.48 2.48 0 0 0-.722-1.755c-.463-.466-1.092-.727-1.748-.727h-9.898c-.655 0-1.284.26-1.747.725a2.48 2.48 0 0 0-.724 1.753v9.25l-3.153 3.164h-9.2c-.655 0-1.284.26-1.747.725a2.48 2.48 0 0 0-.724 1.753v9.25l-3.153 3.164h-9.218c-.655 0-1.284.26-1.747.725a2.48 2.48 0 0 0-.724 1.753v9.93c.002 1.368 1.108 2.475 2.47 2.475h9.898c.655 0 1.284-.26 1.747-.726a2.48 2.48 0 0 0 .723-1.753v-9.25l3.155-3.164h9.22c.655 0 1.284-.26 1.747-.726a2.48 2.48 0 0 0 .723-1.753v-9.24l3.155-3.164 9.58-.03 4.892 4.133v7.62l-3.155 3.165h-9.22c-.656-.001-1.285.26-1.75.724a2.48 2.48 0 0 0-.724 1.754v9.93a2.48 2.48 0 0 0 .723 1.756c.464.466 1.094.727 1.75.726H440c1.365 0 2.47-1.1 2.47-2.48v-9.25l3.153-3.164 9.58-.03 4.892 4.133v8.306a2.48 2.48 0 0 0 .723 1.753c.463.465 1.092.726 1.747.726h9.898c1.365 0 2.47-1.1 2.47-2.48v-9.25l3.153-3.164h9.22c1.365 0 2.47-1.1 2.47-2.48v-9.234l3.153-3.164h9.22c1.364 0 2.47-1.11 2.47-2.478v-9.932c0-.66-.26-1.294-.727-1.76s-1.1-.726-1.757-.722z" id="D"/><filter x="-25.6%" y="-44.8%" width="151.2%" height="225.4%" id="E"><feOffset dy="8" in="SourceAlpha"/><feGaussianBlur stdDeviation="8"/><feColorMatrix values="0 0 0 0 0.631372549 0 0 0 0 0.117647059 0 0 0 0 0.152941176 0 0 0 0.2 0"/></filter></defs><g fill="none" fill-rule="evenodd"><path fill="#f13f4b" d="M0 0h900v500H0z"/><path d="M0 324.1c52.76 28.153 117.086 45.716 197.257 45.716C509.072 369.815 509.684 0 799 0 991.877 0 725.544 0 0 0v324.1z" fill="#fff"/><path d="M246.022 92.664l-1.322 8.384c-4.2-1.172-20.137-4.824-20.137 2.942s24.04 6.073 24.04 25.138-31.236 12.534-34.877 11.773c.48-2.78 1.36-6.592 1.803-8.543 5.468 1.393 23.157 5.455 23.157-3.23s-24.032-7.37-24.032-25.138c0-9.32 12.443-16.455 31.367-11.327zm84.24-.728l-1.203 9.096c-10.1-2.965-24.044-1.295-24.044 15.738s16.38 19.02 26.898 16.173v8.67c-15.838 2.816-38.008-.17-38.008-23.987s23.742-29.336 36.356-25.69zm-265.726.728c15.47 0 11.986 22.497 1.396 24.4 7.47 6.212 12.248 14.14 14.332 23.785l.127.605H68.7c-1.98-14.104-7.915-20.517-17.8-19.237l-.327.045v19.192H40v-48.78h24.535zm51.94 0v7.318H96.42v11.774h16.416v8.272H96.42v13.385h21.82v8.03H85.986v-48.78h30.49zm170.615 0v7.318h-20.055v11.774h16.416v8.272h-16.416v13.385h21.82v8.03H256.6v-48.78h30.49zm-141.207 0c32.004 0 26.7 47.8.79 48.766l-.79.015h-19.657v-48.78h19.657zm-1.132 7.848h-8.762v33.34h9.618c14.17 0 16.37-33.34-.857-33.34zm-86.63-.53h-7.79v14.947h7.79c8.888 0 10.558-14.947 0-14.947z" fill="#5b5b5b"/><path d="M201.76 101.723v27.9h6.308v7.7h-6.308v16.58h-10.012v-16.58h-20.443v-7.7l20.443-27.9h10.012zm-10.012 10.033L179.7 129.128h12.045v-17.372zm.553-74.538c26.184 0 48.148 18.21 54.1 42.747a1.71 1.71 0 0 1 .802 1.451c0 .946-.767 1.714-1.714 1.714s-1.714-.767-1.714-1.714c0-.42.15-.805.402-1.103-2.705-3.294-6.812-5.395-11.41-5.395-4.795 0-9.056 2.286-11.752 5.827a1.69 1.69 0 0 1 .138.672c0 .946-.767 1.714-1.714 1.714s-1.714-.767-1.714-1.714c0-.305.08-.592.22-.84-2.828-3.455-7.125-5.66-11.938-5.66-4.913 0-9.3 2.297-12.113 5.876a1.68 1.68 0 0 1 .118.622c0 .946-.767 1.714-1.714 1.714s-1.714-.767-1.714-1.714a1.71 1.71 0 0 1 .117-.623 15.39 15.39 0 0 0-12.112-5.876c-4.813 0-9.11 2.205-11.938 5.66.14.25.22.535.22.84 0 .946-.767 1.714-1.714 1.714s-1.714-.767-1.714-1.714a1.72 1.72 0 0 1 .039-.364 15.39 15.39 0 0 0-12.311-6.135c-4.566 0-8.67 1.984-11.493 5.138a1.71 1.71 0 0 1 .673 1.361c0 .946-.767 1.714-1.714 1.714s-1.714-.767-1.714-1.714c0-.813.567-1.494 1.327-1.67 6.03-24.427 27.94-42.528 54.047-42.528zm0-6.854a2.57 2.57 0 1 1 0 5.141 2.57 2.57 0 1 1 0-5.141z" fill="#f13f4b"/><use fill="#000" filter="url(#B)" xlink:href="#A"/><use fill="#fff" xlink:href="#A"/><g fill-rule="nonzero"><circle fill="#f13f4b" cx="449.9" cy="249.9" r="89.2"/><circle fill="url(#C)" cx="449.9" cy="249.9" r="89.2"/><use fill="#000" filter="url(#E)" xlink:href="#D"/><use fill="#fff" xlink:href="#D"/><path d="M438.733 229.085a2.46 2.46 0 0 0-.311-1.204c.785.438 1.272 1.268 1.272 2.17v8.154l-.962-.81v-8.308zm-10.725 13.37l-3.153 3.172v9.245c0 1.37-1.106 2.478-2.47 2.478h-9.22L410 260.522v9.25c-.01 1.36-1.11 2.46-2.465 2.462h-9.9a2.46 2.46 0 0 1-2.159-1.275 2.43 2.43 0 0 0 1.197.312h9.9c1.364 0 2.47-1.11 2.47-2.478v-9.25l3.153-3.167h9.22c1.364 0 2.47-1.11 2.47-2.478v-9.25l3.153-3.164 9.58-.03 4.892 4.13v.153l-3.93-3.32-9.585.04.001-.001zm26.246 13.894l4.892 4.13v.153l-3.93-3.32-9.58.03-3.153 3.172v9.25c-.004 1.365-1.11 2.47-2.47 2.47h-9.9c-.898.001-1.725-.487-2.16-1.275.366.206.78.313 1.2.312h9.9c.655 0 1.284-.26 1.747-.725a2.48 2.48 0 0 0 .723-1.753v-9.25l3.153-3.167 9.58-.025zm3.067-3.26l-.966-.81v-7.623l3.16-3.164h9.22c1.364 0 2.47-1.11 2.47-2.478v-9.93a2.46 2.46 0 0 0-.311-1.204c.785.438 1.272 1.268 1.272 2.168v9.93c-.001 1.368-1.106 2.477-2.47 2.478h-9.22l-3.153 3.172-.004 7.462zm47.302-23.04v9.93a2.48 2.48 0 0 1-.724 1.753c-.463.465-1.092.726-1.747.725h-9.22l-3.153 3.172v9.245a2.48 2.48 0 0 1-.724 1.753c-.463.465-1.092.726-1.747.725h-9.22l-3.155 3.172v9.25a2.48 2.48 0 0 1-.723 1.753c-.463.465-1.092.725-1.747.725h-9.898c-.898.001-1.725-.488-2.16-1.275a2.44 2.44 0 0 0 1.199.312h9.902c.655 0 1.284-.26 1.747-.725a2.48 2.48 0 0 0 .723-1.753v-9.25l3.153-3.164h9.22c.655 0 1.284-.26 1.747-.725a2.48 2.48 0 0 0 .723-1.753v-9.25l3.153-3.164h9.22c.655 0 1.284-.26 1.747-.725a2.48 2.48 0 0 0 .723-1.753v-9.938a2.46 2.46 0 0 0-.311-1.204 2.48 2.48 0 0 1 1.275 2.169l-.003-.001z" fill="#231f20" opacity=".2"/><g fill="#fff"><path d="M428.284 228.532c-.655 0-1.284.26-1.747.726a2.48 2.48 0 0 0-.723 1.753v9.24l-3.153 3.172h-9.22c-1.364 0-2.47 1.11-2.47 2.478v9.25l-3.153 3.164h-9.22c-1.364 0-2.47 1.11-2.47 2.478v9.932c-.001.42.106.834.31 1.2a2.47 2.47 0 0 1-1.271-2.166v-9.932c.001-1.368 1.106-2.477 2.47-2.478h9.214l3.16-3.164v-9.25c-.001-.66.26-1.292.726-1.758s1.096-.726 1.753-.724h9.214l3.16-3.164v-9.242c-.003-1.367 1.097-2.478 2.46-2.485h9.896a2.47 2.47 0 0 1 2.162 1.277 2.44 2.44 0 0 0-1.2-.312l-9.9.003zm14.197 18.18l.964.8v7.622l-3.16 3.165h-9.22c-1.364 0-2.47 1.11-2.47 2.478v9.932c-.001.42.106.834.31 1.2a2.47 2.47 0 0 1-1.271-2.166v-9.932c.001-1.368 1.106-2.477 2.47-2.478h9.22l3.155-3.164v-7.468zm15.8-6.46l-3.153 3.172-9.58.03-4.892-4.13v-.153l3.93 3.32 9.58-.03 3.155-3.164v-9.246c-.001-.658.26-1.29.722-1.755s1.092-.728 1.748-.728h9.9a2.47 2.47 0 0 1 2.159 1.277 2.44 2.44 0 0 0-1.199-.312h-9.9c-.655 0-1.284.26-1.747.726a2.48 2.48 0 0 0-.723 1.753v9.242zm46.032-11.408c-.366-.206-.78-.313-1.2-.312h-9.9c-.655 0-1.284.26-1.747.726a2.48 2.48 0 0 0-.723 1.753v9.24l-3.153 3.172h-9.22c-1.364.001-2.47 1.1-2.47 2.478v9.25l-3.153 3.164-9.58.03-4.892-4.13v-.153l3.93 3.32 9.58-.03 3.153-3.164v-9.25c.001-1.368 1.107-2.477 2.47-2.478h9.214l3.16-3.164v-9.246c-.001-.658.26-1.29.722-1.755s1.09-.728 1.747-.728h9.898a2.47 2.47 0 0 1 2.16 1.279v-.002z" opacity=".2"/><path d="M609.497 234v-24.83L628.76 234h5.518v-37.5h-7.275v24.756L607.7 196.5h-5.47V234h7.275zm36.972 0l1.978-5.786h15.674l1.978 5.786h8.032l-14.355-37.5h-7.007L638.486 234h7.983zm15.552-11.938h-11.45l5.713-16.724 5.737 16.724zM689.057 234v-30.933h9.644V196.5h-26.562v6.567h9.668V234h7.25zm22.08 0v-15.527h6.2L725.1 234h7.9l-8.3-16.04c1.48-.472 2.79-1.204 3.93-2.197s2.026-2.193 2.66-3.6.952-2.926.952-4.553c0-2.018-.488-3.878-1.465-5.58s-2.307-3.048-3.992-4.04-3.544-1.49-5.58-1.49H703.86V234h7.275zm8.984-21.68h-8.984v-9.326h8.984c.96 0 1.827.2 2.6.598s1.38.952 1.82 1.66.66 1.518.66 2.43c0 .928-.22 1.742-.66 2.44s-1.046 1.24-1.82 1.624-1.64.574-2.6.574zM746.156 234v-37.5h-7.275V234h7.275zm23.13.488c2.88 0 5.48-.562 7.8-1.685s4.146-2.686 5.48-4.687 2.002-4.272 2.002-6.812V196.5h-7.3v23.486c0 1.563-.346 2.946-1.038 4.15s-1.644 2.14-2.856 2.808-2.576 1-4.09 1c-1.497 0-2.852-.334-4.065-1s-2.165-1.603-2.856-2.808-1.038-2.588-1.038-4.15V196.5h-7.275v24.805c0 2.54.663 4.8 2 6.812s3.15 3.564 5.47 4.688 4.91 1.685 7.776 1.685zm30.112-.488v-22.974l12.06 19.263 12.183-19.336V234h7.25v-37.5h-5.737l-13.696 21.362-13.525-21.362h-5.81V234h7.275zm-188.082 74l3.006-8.795h23.824L641.15 308h12.21l-21.82-57h-10.65l-21.71 57h12.135zm23.64-18.146H617.55l8.684-25.42 8.72 25.42zm47.255 18.89c4.38 0 8.33-.854 11.856-2.56s6.302-4.082 8.33-7.125 3.043-6.494 3.043-10.354V251h-11.096v35.7c0 2.375-.526 4.478-1.577 6.31s-2.5 3.253-4.342 4.268-3.915 1.52-6.216 1.52c-2.276 0-4.336-.507-6.18-1.52s-3.3-2.437-4.342-4.268-1.577-3.934-1.577-6.31V251h-11.06v37.703c0 3.86 1.008 7.31 3.024 10.354s4.787 5.418 8.313 7.125 7.465 2.56 11.82 2.56zM735.4 308c5.84 0 10.953-1.262 15.345-3.785s7.762-5.956 10.112-10.298 3.525-9.147 3.525-14.417-1.175-10.075-3.525-14.417-5.72-7.774-10.112-10.298S741.24 251 735.4 251h-17.998v57H735.4zm-.482-9.982h-6.494v-37.035h6.494c3.66 0 6.847.804 9.556 2.412s4.787 3.816 6.234 6.624 2.17 5.968 2.17 9.48-.724 6.674-2.17 9.48-3.525 5.016-6.234 6.624-5.894 2.412-9.556 2.412zM784.77 308v-57h-11.06v57h11.06zm33.56 0v-47.018h14.658V251h-40.375v9.982H807.3V308h11.02z"/></g></g><path stroke="#f13f4b" stroke-width="4" d="M2 2h896v496H2z"/></g></svg>