<?xml version="1.0" encoding="UTF-8"?>
<svg width="97px" height="97px" viewBox="0 0 97 97" version="1.1" xmlns="http://www.w3.org/2000/svg" xmlns:xlink="http://www.w3.org/1999/xlink">
    <!-- Generator: Sketch 60 (88103) - https://sketch.com -->
    <title>tick copy 2</title>
    <desc>Created with Sketch.</desc>
    <g id="Page-1" stroke="none" stroke-width="1" fill="none" fill-rule="evenodd">
        <path d="M48.5,97 C75.2858104,97 97,75.2858104 97,48.5 C97,21.7141896 75.2858104,0 48.5,0 C21.7141896,0 0,21.7141896 0,48.5 C0,75.2858104 21.7141896,97 48.5,97 Z M66.1776695,30.8223305 C67.6421356,32.2867966 67.6421356,34.6611652 66.1776695,36.1256313 L53.8033009,48.5 L66.1776695,60.8743687 C67.6421356,62.3388348 67.6421356,64.7132034 66.1776695,66.1776695 C64.7132034,67.6421356 62.3388348,67.6421356 60.8743687,66.1776695 L48.5,53.8033009 L36.1256313,66.1776695 C34.6611652,67.6421356 32.2867966,67.6421356 30.8223305,66.1776695 C29.3578644,64.7132034 29.3578644,62.3388348 30.8223305,60.8743687 L43.1966991,48.5 L30.8223305,36.1256313 C29.3578644,34.6611652 29.3578644,32.2867966 30.8223305,30.8223305 C32.2867966,29.3578644 34.6611652,29.3578644 36.1256313,30.8223305 L48.5,43.1966991 L60.8743687,30.8223305 C62.3388348,29.3578644 64.7132034,29.3578644 66.1776695,30.8223305 Z" id="tick-copy-2" fill="#FFFFFF"></path>
    </g>
</svg>