<svg xmlns="http://www.w3.org/2000/svg" width="118" height="20"><defs><linearGradient x1="0%" y1="48.5022483%" x2="100%" y2="51.4977517%" id="A"><stop stop-color="#4082ff" offset="0%"/><stop stop-color="#6040ff" offset="100%"/></linearGradient></defs><g fill-rule="evenodd"><path d="M10.88.148a1.43 1.43 0 0 1 .649.649l2.393 4.848 5.35.777a1.43 1.43 0 0 1 .792 2.437l-3.87 3.774.914 5.328a1.43 1.43 0 0 1-2.073 1.506l-4.785-2.516-4.785 2.516a1.43 1.43 0 0 1-2.073-1.506l.914-5.328L.432 8.86a1.43 1.43 0 0 1-.026-2.02 1.43 1.43 0 0 1 .818-.417l5.35-.777L8.966.797A1.43 1.43 0 0 1 10.88.148zm24.175 0a1.43 1.43 0 0 1 .649.649l2.393 4.848 5.35.777a1.43 1.43 0 0 1 .792 2.437l-3.87 3.774.914 5.328a1.43 1.43 0 0 1-2.073 1.506l-4.785-2.516-4.785 2.516a1.43 1.43 0 0 1-2.073-1.506l.914-5.328-3.87-3.774a1.43 1.43 0 0 1 .792-2.437l5.35-.777L33.142.797a1.43 1.43 0 0 1 1.913-.649zm24.286 0a1.43 1.43 0 0 1 .649.649l2.393 4.848 5.35.777a1.43 1.43 0 0 1 .792 2.437l-3.87 3.774.914 5.328a1.43 1.43 0 0 1-2.073 1.506l-4.785-2.516-4.785 2.516a1.43 1.43 0 0 1-2.073-1.506l.914-5.328-3.87-3.774a1.43 1.43 0 0 1 .792-2.437l5.35-.777L57.427.797a1.43 1.43 0 0 1 1.913-.649zm24.286 0a1.43 1.43 0 0 1 .649.649l2.393 4.848 5.35.777a1.43 1.43 0 0 1 .792 2.437l-3.87 3.774.914 5.328a1.43 1.43 0 0 1-2.073 1.506l-4.785-2.516-4.785 2.516a1.43 1.43 0 0 1-2.073-1.506l.914-5.328-3.87-3.774a1.43 1.43 0 0 1 .792-2.437l5.35-.777L81.713.797a1.43 1.43 0 0 1 1.913-.649zm24.286 0a1.43 1.43 0 0 1 .649.649l2.393 4.848 2.47.358v6.433l-.2.196.2 1.172.002 5.646c-.138.077-.3.132-.454.16a1.43 1.43 0 0 1-.906-.144l-4.785-2.516-4.785 2.516a1.43 1.43 0 0 1-2.073-1.506l.914-5.328-3.87-3.774a1.43 1.43 0 0 1 .792-2.437l5.35-.777L106 .797a1.43 1.43 0 0 1 1.913-.649z" fill="url(#A)"/><path d="M107.28 16.95l-4.785 2.516a1.43 1.43 0 0 1-2.073-1.506l.914-5.328-3.87-3.774a1.43 1.43 0 0 1 .792-2.437l5.35-.777L106 .797a1.43 1.43 0 0 1 1.913-.649 1.43 1.43 0 0 1 .649.649l2.393 4.848 5.35.777a1.43 1.43 0 0 1 .792 2.437l-3.87 3.774.914 5.328a1.43 1.43 0 0 1-2.073 1.506l-4.785-2.516z" fill="#4f5bff" opacity=".25"/></g></svg>