<svg xmlns="http://www.w3.org/2000/svg" width="118" height="20" fill="#4082ff" fill-rule="evenodd"><path d="M10.247 16.95l-4.785 2.516a1.43 1.43 0 0 1-2.073-1.506l.914-5.328L.43 8.86a1.43 1.43 0 0 1 .792-2.437l5.35-.777L8.966.797a1.43 1.43 0 0 1 1.913-.649 1.43 1.43 0 0 1 .649.649l2.393 4.848 5.35.777a1.43 1.43 0 0 1 .792 2.437l-3.87 3.774.914 5.328a1.43 1.43 0 0 1-2.073 1.506L10.25 16.95zm24.175 0l-4.785 2.516a1.43 1.43 0 0 1-2.073-1.506l.914-5.328-3.87-3.774a1.43 1.43 0 0 1 .792-2.437l5.35-.777 2.4-4.847a1.43 1.43 0 0 1 1.913-.649 1.43 1.43 0 0 1 .649.649l2.393 4.848 5.35.777a1.43 1.43 0 0 1 .792 2.437l-3.87 3.774.914 5.328a1.43 1.43 0 0 1-2.073 1.506l-4.785-2.516zm24.286 0l-4.785 2.516a1.43 1.43 0 0 1-2.073-1.506l.914-5.328-3.87-3.774a1.43 1.43 0 0 1 .792-2.437l5.35-.777 2.39-4.847A1.43 1.43 0 0 1 59.34.148a1.43 1.43 0 0 1 .649.649l2.393 4.848 5.35.777a1.43 1.43 0 0 1 .792 2.437l-3.87 3.774.914 5.328a1.43 1.43 0 0 1-2.073 1.506L58.7 16.95zm24.286 0l-4.785 2.516a1.43 1.43 0 0 1-2.073-1.506l.914-5.328-3.87-3.774a1.43 1.43 0 0 1 .792-2.437l5.35-.777 2.39-4.847a1.43 1.43 0 0 1 1.913-.649 1.43 1.43 0 0 1 .649.649l2.393 4.848 5.35.777a1.43 1.43 0 0 1 .792 2.437l-3.87 3.774.914 5.328a1.43 1.43 0 0 1-2.073 1.506l-4.785-2.516zM107.278 0l-.001 16.95-4.782 2.516a1.43 1.43 0 0 1-2.073-1.506l.914-5.328-3.87-3.774a1.43 1.43 0 0 1 .792-2.437l5.35-.777L106 .797A1.43 1.43 0 0 1 107.278 0z"/><path d="M107.28 16.95l-4.785 2.516a1.43 1.43 0 0 1-2.073-1.506l.914-5.328-3.87-3.774a1.43 1.43 0 0 1 .792-2.437l5.35-.777L106 .797a1.43 1.43 0 0 1 1.913-.649 1.43 1.43 0 0 1 .649.649l2.393 4.848 5.35.777a1.43 1.43 0 0 1 .792 2.437l-3.87 3.774.914 5.328a1.43 1.43 0 0 1-2.073 1.506l-4.785-2.516z" opacity=".25"/></svg>